<?xml version="1.0" encoding="UTF-8"?><svg id="Layer_1" xmlns="http://www.w3.org/2000/svg" xmlns:xlink="http://www.w3.org/1999/xlink" viewBox="0 0 465 173.05"><defs><style>.cls-1{fill:#fff;}.cls-2{stroke-width:4.72px;}.cls-2,.cls-3,.cls-4,.cls-5,.cls-6,.cls-7,.cls-8,.cls-9,.cls-10,.cls-11,.cls-12,.cls-13,.cls-14,.cls-15,.cls-16{fill:none;}.cls-2,.cls-3,.cls-4,.cls-10,.cls-14,.cls-15,.cls-16{stroke-linecap:round;}.cls-2,.cls-3,.cls-10,.cls-14,.cls-15,.cls-16{stroke-linejoin:round;}.cls-2,.cls-11,.cls-15{stroke:#fff;}.cls-3,.cls-4,.cls-6,.cls-7,.cls-8,.cls-9,.cls-10,.cls-13,.cls-14,.cls-16{stroke:#000;}.cls-3,.cls-13{stroke-width:2.05px;}.cls-4{stroke-linejoin:bevel;}.cls-4,.cls-10{stroke-width:.51px;}.cls-17{clip-path:url(#clippath-2);}.cls-18{fill:#a70e19;}.cls-19{fill:#b778be;}.cls-20{clip-path:url(#clippath-6);}.cls-5{stroke:#231f20;stroke-width:1.31px;}.cls-5,.cls-6,.cls-7,.cls-8,.cls-9,.cls-11,.cls-13{stroke-miterlimit:10;}.cls-6,.cls-16{stroke-width:.77px;}.cls-21{fill:#84ccb0;}.cls-22{clip-path:url(#clippath-7);}.cls-7{stroke-width:2.04px;}.cls-23{clip-path:url(#clippath-1);}.cls-24{clip-path:url(#clippath-4);}.cls-8{stroke-width:1.02px;}.cls-9{stroke-width:2px;}.cls-25{clip-path:url(#clippath-9);}.cls-26{clip-path:url(#clippath);}.cls-11,.cls-15{stroke-width:5.33px;}.cls-27{clip-path:url(#clippath-3);}.cls-28{fill:#f4c01e;fill-rule:evenodd;}.cls-29{clip-path:url(#clippath-8);}.cls-30{fill:#a19ca2;}.cls-31{clip-path:url(#clippath-5);}.cls-32{fill:#b33077;}.cls-14{stroke-width:.89px;}.cls-33{clip-path:url(#clippath-10);}.cls-34{fill:#e81f7b;}</style><clipPath id="clippath"><rect class="cls-12" x="240.36" y="56.52" width="171.29" height="60" transform="translate(229.52 409.72) rotate(-88.24)"/></clipPath><clipPath id="clippath-1"><rect class="cls-12" x="240.36" y="56.52" width="171.29" height="60" transform="translate(229.52 409.72) rotate(-88.24)"/></clipPath><clipPath id="clippath-2"><rect class="cls-12" x="240.36" y="56.52" width="171.29" height="60" transform="translate(229.52 409.72) rotate(-88.24)"/></clipPath><clipPath id="clippath-3"><rect class="cls-12" x="240.36" y="56.52" width="171.29" height="60" transform="translate(229.52 409.72) rotate(-88.24)"/></clipPath><clipPath id="clippath-4"><rect class="cls-12" x="240.36" y="56.52" width="171.29" height="60" transform="translate(229.52 409.72) rotate(-88.24)"/></clipPath><clipPath id="clippath-5"><rect class="cls-12" y="49.88" width="91" height="102.74"/></clipPath><clipPath id="clippath-6"><rect class="cls-12" y="49.88" width="91" height="102.74"/></clipPath><clipPath id="clippath-7"><rect class="cls-12" x="374" y="34.88" width="91" height="105.59"/></clipPath><clipPath id="clippath-8"><rect class="cls-12" x="374" y="34.88" width="91" height="105.59"/></clipPath><clipPath id="clippath-9"><rect class="cls-12" x="92" y="60.88" width="122.91" height="52"/></clipPath><clipPath id="clippath-10"><rect class="cls-12" x="92" y="60.88" width="122.91" height="52"/></clipPath></defs><g id="Artwork_41"><g class="cls-26"><polygon class="cls-34" points="297.86 102.42 343.43 3.74 326.46 75.92 349.48 67.17 315.19 169.51 324.3 92.41 297.86 102.42"/><g class="cls-23"><polygon class="cls-2" points="297.86 102.42 343.43 3.74 326.46 75.92 349.48 67.17 315.19 169.51 324.3 92.41 297.86 102.42"/></g><polygon class="cls-21" points="349.48 67.17 354.08 72.34 315.19 169.51 349.48 67.17"/><g class="cls-17"><polygon class="cls-2" points="349.48 67.17 354.08 72.34 315.19 169.51 349.48 67.17"/></g><polygon class="cls-21" points="297.87 102.38 324.49 92.37 323.46 99.42 302.58 107.36 297.87 102.38"/><g class="cls-27"><polygon class="cls-2" points="297.87 102.38 324.49 92.37 323.46 99.42 302.58 107.36 297.87 102.38"/></g><polygon class="cls-21" points="343.43 3.74 332.33 73.69 326.46 75.92 343.43 3.74"/><g class="cls-24"><polygon class="cls-2" points="343.43 3.74 332.33 73.69 326.46 75.92 343.43 3.74"/></g><polygon class="cls-34" points="297.85 102.96 343.41 4.28 326.44 76.47 349.47 67.72 315.18 170.06 324.28 92.95 297.85 102.96"/><polygon class="cls-14" points="297.85 102.96 343.41 4.28 326.44 76.47 349.47 67.72 315.18 170.06 324.28 92.95 297.85 102.96"/><polygon class="cls-21" points="349.47 67.72 354.07 72.89 315.18 170.06 349.47 67.72"/><polygon class="cls-14" points="349.47 67.72 354.07 72.89 315.18 170.06 349.47 67.72"/><polygon class="cls-21" points="297.85 102.92 324.47 92.92 323.44 99.97 302.56 107.91 297.85 102.92"/><polygon class="cls-14" points="297.85 102.92 324.47 92.92 323.44 99.97 302.56 107.91 297.85 102.92"/><polygon class="cls-21" points="343.41 4.28 332.31 74.24 326.44 76.47 343.41 4.28"/><polygon class="cls-14" points="343.41 4.28 332.31 74.24 326.44 76.47 343.41 4.28"/></g></g><g id="Artwork_26"><g class="cls-31"><g class="cls-20"><path class="cls-32" d="M43.58,151.31c-2.05,0-3.88-1.22-4.67-3.12l-.02-.04v-.04c-.76-2.22-.22-4.4,.27-6.32,.21-.84,.41-1.64,.51-2.42v-.04s.01-.04,.01-.04c.43-2.18,.43-4.5,.43-6.74v-.19c-.02-.5-.03-1.01-.04-1.56-.04-2.08-.08-4.37-.83-5.86-.02,.4-.03,.83-.03,1.25,0,2.11-.02,5.65-4.35,5.65-.15,0-.32,0-.48-.01h-.07s-.07-.02-.07-.02c-4.96-.83-4.42-5.31-4.06-8.28,.13-1.06,.25-2.05,.18-2.84v-.06c-.15-4.01-3.6-7.11-6.85-9.7-.81-.45-1.27-.52-1.48-.52-.19,0-.27,.05-.35,.15-.57,.7-.95,2.93,.45,9.6l.06,.27c.82,2.97,.54,5.58-.8,7.34-.93,1.22-2.29,1.93-3.73,1.93-1.3,0-2.49-.56-3.36-1.57-.81-.95-1.69-2.7-1.23-5.67v-.06c2.52-12.48-.66-20.85-7.01-31.11l-.02-.03C.54,81.73-.19,71.23,4.09,63.17c3.67-7.39,11.26-11.98,19.8-11.98,4.1,0,8.1,1.1,11.58,3.2,1.16,.62,2.32,1.45,3.63,2.61,1.76,1.55,3.36,3.31,4.75,5.22,.49,.68,.94,1.53,1.37,2.36,.08,.16,.18,.35,.28,.53,.1-.19,.2-.37,.28-.53,.43-.83,.88-1.68,1.37-2.36,1.39-1.91,2.99-3.67,4.75-5.22,1.32-1.16,2.47-1.99,3.63-2.61,3.47-2.09,7.48-3.2,11.58-3.2,8.54,0,16.12,4.59,19.8,11.98,2.01,3.78,2.94,8.01,2.76,12.58,.13,2.96-.26,5.85-1.13,8.59v.03c-3.14,9.07-9.82,15.81-16.28,22.34-1.74,1.76-3.54,3.58-5.22,5.39-.52,.61-1.06,1.21-1.58,1.79-1.42,1.58-2.77,3.07-3.68,4.83-2.1,4.61-2.19,10.11-2.03,14.4,.06,.83,.19,1.69,.32,2.6,.4,2.76,.85,5.89-.49,8.71l-.03,.06-.04,.06c-.79,1.29-2.14,2.03-3.69,2.03h0c-1.47,0-2.86-.68-3.75-1.82-1.89-1.83-1.64-6.06-1.01-12.74,.26-2.78,.7-7.31,.17-8.53-2.25,1.77-3.47,9.48-3.59,14.43-.02,1.21,.17,2.43,.37,3.73,.28,1.82,.57,3.71,.28,5.68v.05c-.45,2.35-2.35,3.93-4.73,3.93"/><path class="cls-1" d="M67.12,52.5c7.6,0,15.03,4.01,18.63,11.27,2.01,3.78,2.78,7.88,2.61,11.98,.12,2.75-.22,5.52-1.07,8.19-3.88,11.23-13.43,18.84-21.24,27.3-1.88,2.24-4.11,4.29-5.45,6.92-2.11,4.62-2.34,10.04-2.16,15.05,.27,3.48,1.53,7.37-.04,10.67-.59,.96-1.57,1.41-2.57,1.41s-2.11-.49-2.77-1.39c-3.38-2.99,2.22-21.82-1.74-21.82-.09,0-.19,.01-.3,.03-3.58,1.75-4.57,12.1-4.66,15.79-.05,3.1,1.13,6.14,.66,9.24-.36,1.91-1.88,2.87-3.43,2.87-1.39,0-2.82-.77-3.46-2.31-.92-2.71,.51-5.45,.85-8.16,.47-2.37,.45-4.8,.45-7.21-.14-3.12,.22-7.54-2.18-9.45-.05-.06-.13-.08-.24-.08-.3,0-.73,.21-.77,.41-1,2.7,1.08,7.32-3.37,7.32-.13,0-.27,0-.41-.01-5.09-.85-2.51-6.5-2.79-9.93-.17-4.65-4.02-8.05-7.42-10.75-.9-.51-1.63-.74-2.21-.74-3.69,0-1.66,9.02-1.11,11.64,1.42,5.07-.96,7.65-3.26,7.65-1.97,0-3.88-1.89-3.3-5.73,2.54-12.64-.59-21.38-7.19-32.06-4.68-8.1-6.46-18.31-1.92-26.84,3.6-7.26,11.03-11.27,18.63-11.27,3.75,0,7.54,.98,10.93,3.03,1.25,.66,2.36,1.52,3.41,2.45,1.7,1.5,3.23,3.18,4.56,5.01,.99,1.36,1.93,3.84,2.71,4.46,.78-.62,1.72-3.1,2.71-4.46,1.33-1.83,2.86-3.51,4.56-5.01,1.05-.93,2.16-1.79,3.41-2.45,3.39-2.05,7.18-3.03,10.93-3.03m0-2.62c-4.33,0-8.55,1.16-12.22,3.37-1.24,.67-2.47,1.55-3.85,2.77-1.83,1.61-3.49,3.44-4.95,5.43-.21,.29-.41,.59-.59,.91-.19-.32-.39-.63-.59-.91-1.45-1.99-3.11-3.82-4.95-5.43-1.38-1.22-2.61-2.1-3.85-2.77-3.67-2.2-7.89-3.37-12.22-3.37h0c-4.29,0-8.49,1.13-12.14,3.27-3.82,2.24-6.86,5.49-8.82,9.42-2.39,4.5-3.32,9.56-2.77,15.04,.48,4.8,2.12,9.75,4.76,14.31l.02,.03,.02,.03c6.17,9.98,9.27,18.11,6.85,30.16v.06s-.02,.06-.02,.06c-.41,2.7,.13,5.09,1.54,6.72,1.1,1.28,2.69,2.02,4.35,2.02,1.86,0,3.6-.89,4.78-2.44,.92-1.21,2.27-3.92,1.03-8.44l-.05-.23c-.24-1.15-.64-3.07-.83-4.95-.16-1.57-.1-2.51-.01-3.03,.06,.03,.13,.07,.21,.11,3,2.39,6.14,5.23,6.26,8.66v.06s0,.06,0,.06c.05,.66-.06,1.63-.18,2.58-.2,1.66-.43,3.55,.02,5.28,.63,2.42,2.45,4,5.13,4.44l.14,.02h.14c.19,.02,.38,.02,.56,.02,1.89,0,3.13-.62,3.92-1.35,0,.2,.01,.39,.02,.59v.16c0,2.28,0,4.44-.4,6.49l-.02,.09v.09c-.1,.7-.29,1.46-.49,2.26-.53,2.1-1.12,4.48-.25,7.06l.03,.08,.03,.08c.99,2.38,3.3,3.93,5.88,3.93,3.02,0,5.44-2.01,6-5v-.05s.02-.05,.02-.05c.33-2.17,0-4.24-.28-6.07-.19-1.24-.37-2.4-.35-3.5,.05-1.91,.33-5.18,.97-8.13,.01-.06,.03-.12,.04-.18-.07,.81-.14,1.6-.21,2.27-.58,6.04-1.07,11.28,1.33,13.73,1.14,1.42,2.89,2.26,4.73,2.26,1.99,0,3.78-.99,4.8-2.66l.07-.12,.06-.13c1.51-3.18,1.03-6.52,.6-9.46-.13-.88-.25-1.71-.31-2.49-.15-4.13-.07-9.4,1.9-13.75,.83-1.6,2.11-3.02,3.47-4.53,.52-.58,1.07-1.18,1.59-1.8,1.66-1.79,3.44-3.6,5.17-5.34,6.56-6.63,13.35-13.49,16.58-22.84v-.03s.02-.03,.02-.03c.92-2.87,1.32-5.89,1.2-8.99,.18-4.78-.8-9.21-2.9-13.18-1.96-3.92-5-7.18-8.82-9.42-3.65-2.14-7.85-3.27-12.14-3.27"/><path class="cls-5" d="M88.36,75.75c.17-4.1-.6-8.21-2.61-11.98-5.38-10.84-19.31-14.44-29.56-8.24-1.25,.66-2.36,1.52-3.41,2.45-1.7,1.5-3.23,3.18-4.56,5.01-.99,1.36-1.93,3.84-2.71,4.46-.78-.62-1.72-3.1-2.71-4.46-1.33-1.83-2.86-3.51-4.56-5.01-1.05-.93-2.16-1.79-3.41-2.45-10.26-6.2-24.18-2.6-29.56,8.24-4.54,8.54-2.76,18.74,1.92,26.84,6.6,10.67,9.73,19.41,7.19,32.06-1.27,8.32,9.2,7.49,6.56-1.92-.63-3.05-3.26-14.66,3.33-10.9,3.39,2.7,7.25,6.09,7.42,10.75,.28,3.44-2.3,9.08,2.79,9.93,4.98,.29,2.75-4.53,3.78-7.31,.05-.27,.82-.56,1.01-.33,2.4,1.91,2.04,6.33,2.18,9.45,0,2.41,.01,4.83-.45,7.21-.34,2.71-1.76,5.45-.85,8.16,1.35,3.25,6.2,3.07,6.89-.55,.47-3.1-.71-6.14-.66-9.24,.09-3.69,1.09-14.04,4.66-15.79,4.53-.94-1.42,18.72,2.04,21.78,1.3,1.77,4.14,1.95,5.34-.02,1.57-3.3,.31-7.19,.04-10.67-.19-5.01,.05-10.43,2.16-15.05,1.35-2.63,3.57-4.68,5.45-6.92,7.81-8.46,17.36-16.07,21.24-27.3,.85-2.67,1.19-5.43,1.07-8.19Z"/></g></g></g><g id="Artwork_23"><g class="cls-22"><g class="cls-29"><path class="cls-11" d="M406.75,104.78c4.21-3.95,10.46-10.94,14.36-21.33,8.05-21.46-.02-40.88-2.26-45.74-.04-.09-.07-.18,.02-.16,2.52,.59,25.58,7.5,21.31,63.74"/><path class="cls-13" d="M406.75,104.78c4.21-3.95,10.46-10.94,14.36-21.33,8.05-21.46-.02-40.88-2.26-45.74-.04-.09-.07-.18,.02-.16,2.52,.59,25.58,7.5,21.31,63.74"/><path class="cls-18" d="M398.85,137.85c-2.28,0-4.28-.23-5.97-.67-3.19-.84-7.83-3.18-11.79-9.52-4.16-6.67-6.22-16.95-1.43-24.88,.83-1.37,1.17-1.97,1.34-2.26,.16-.27,.3-.53,.61-.73,.02-.02,.03-.04,.05-.06,2-2.19,4.84-4.09,7.42-4.98,2.29-.79,4.2-1.18,5.82-1.18,.99,0,1.71,.14,2.29,.25,.26,.05,.48,.09,.67,.11,3.73,.38,7.01,3.27,10.03,8.82,.7-.09,1.39-.13,2.06-.13,2.42,0,4.61,.55,6.51,1.64,7.37,4.24,8.72,15.53,5,22.8-4.05,7.91-12.82,9.67-14.67,9.95-1.05,.23-2.12,.41-3.19,.54-.61,.07-2.46,.3-4.74,.3"/><path class="cls-1" d="M394.9,95.01c1.29,0,2.07,.27,2.82,.35,2.63,.27,5.93,2.22,9.38,8.96,.72-.13,1.72-.27,2.86-.27,1.74,0,3.82,.32,5.79,1.45,6.37,3.67,8.05,13.84,4.43,20.9-3.88,7.58-12.58,9.03-13.66,9.19-.74,.16-1.81,.37-3.1,.53-.57,.07-2.38,.29-4.57,.29-1.77,0-3.78-.14-5.6-.62-6.45-1.7-10.1-7.55-10.94-8.89-3.97-6.36-5.82-16.09-1.42-23.37,2.18-3.61,1.1-2.01,1.83-2.81,1.86-2.04,4.48-3.79,6.83-4.6,2.49-.86,4.14-1.1,5.35-1.1m0-2.87c-1.78,0-3.84,.41-6.29,1.26-2.81,.97-5.78,2.95-7.96,5.32-.47,.36-.72,.79-.89,1.09-.16,.28-.5,.87-1.32,2.23-5.11,8.45-2.96,19.34,1.44,26.38,4.21,6.74,9.2,9.24,12.64,10.15,1.81,.48,3.94,.72,6.34,.72s4.28-.23,4.91-.31c1.1-.13,2.2-.32,3.28-.55,2.08-.33,11.35-2.24,15.69-10.71,2.05-4,2.7-8.95,1.79-13.58-.98-5.01-3.59-8.95-7.35-11.11-2.11-1.22-4.54-1.83-7.22-1.83-.42,0-.84,.02-1.27,.05-3.14-5.46-6.65-8.31-10.67-8.73-.13-.01-.33-.05-.55-.09-.61-.11-1.44-.27-2.56-.27"/><path class="cls-13" d="M407.09,104.32c-3.45-6.74-6.75-8.69-9.38-8.96-1.45-.15-3.01-1.03-8.17,.75-2.35,.81-4.96,2.56-6.83,4.6-.73,.8,.36-.8-1.83,2.81-4.41,7.28-2.55,17.01,1.42,23.37,.84,1.34,4.49,7.19,10.94,8.89,4.07,1.07,9.13,.46,10.17,.33,1.29-.16,2.36-.36,3.1-.53,1.08-.16,9.78-1.61,13.66-9.19,3.61-7.06,1.94-17.23-4.43-20.9-3.25-1.87-6.81-1.52-8.64-1.18Z"/><path class="cls-3" d="M399.78,132.26s16.41,0,18.46-13.95"/><path class="cls-18" d="M439.23,139.03c-3.69,0-7.5-1.16-11.34-3.45-6.8-4.06-13.39-12.34-12.8-21.72,.1-1.62,.13-2.33,.15-2.66,.01-.33,.03-.61,.2-.93,0-.02,.01-.05,.02-.08,.77-2.9,2.41-5.95,4.29-7.96,3.37-3.6,5.43-4.23,6.79-4.64,.25-.08,.47-.14,.65-.22,.97-.39,2.03-.59,3.15-.59,2.86,0,6.1,1.25,9.87,3.83,2.51-1.75,5.2-2.67,7.84-2.67,.16,0,.33,0,.49,.01,8.53,.36,14.96,9.9,15.02,18.18,.06,9.02-6.93,14.71-8.44,15.83-.83,.7-1.7,1.36-2.59,1.98-3.43,2.38-6.88,4.04-9.71,4.69-1.15,.26-2.36,.4-3.58,.4h0Z"/><path class="cls-1" d="M430.34,98.21c2.37,0,5.55,1.04,9.9,4.16,1.42-1.12,4.25-3,7.82-3,.14,0,.29,0,.43,0,7.37,.31,13.59,8.7,13.64,16.75,.06,8.65-7.01,14.04-7.9,14.69-.59,.5-1.44,1.18-2.52,1.93-.86,.6-5.09,3.53-9.21,4.47-1.11,.25-2.2,.36-3.26,.36-5.16,0-9.47-2.57-10.6-3.24-6.49-3.87-12.65-11.77-12.1-20.4,.27-4.28,.04-2.33,.32-3.39,.72-2.71,2.24-5.52,3.95-7.35,3.77-4.02,5.57-3.96,6.93-4.51,.74-.3,1.6-.49,2.61-.49m0-2.87h0c-1.3,0-2.54,.23-3.68,.69-.12,.05-.31,.11-.53,.18-1.92,.59-4.07,1.46-7.42,5.04-2.05,2.19-3.77,5.36-4.61,8.51-.25,.54-.27,1.03-.29,1.38-.01,.33-.04,1.03-.14,2.63-.63,9.98,6.32,18.77,13.5,23.05,4.06,2.42,8.12,3.65,12.07,3.65,1.33,0,2.64-.15,3.9-.43,3.86-.88,7.68-3.16,10.21-4.91,.92-.64,1.81-1.32,2.66-2.04,1.69-1.27,9.05-7.33,8.99-16.97-.03-4.55-1.74-9.3-4.69-13.04-3.2-4.05-7.35-6.38-11.7-6.56-.19,0-.37-.01-.55-.01-2.65,0-5.32,.82-7.84,2.38-3.69-2.38-6.93-3.54-9.88-3.54"/><path class="cls-13" d="M440.24,102.38c-6.2-4.46-10.04-4.67-12.51-3.68-1.36,.55-3.16,.49-6.93,4.51-1.71,1.83-3.23,4.64-3.95,7.35-.28,1.07-.05-.88-.32,3.39-.55,8.63,5.62,16.53,12.1,20.4,1.37,.82,7.34,4.37,13.87,2.88,4.12-.94,8.35-3.87,9.21-4.47,1.08-.75,1.93-1.44,2.52-1.93,.89-.65,7.96-6.04,7.9-14.69-.05-8.06-6.27-16.44-13.64-16.75-3.76-.16-6.77,1.83-8.25,2.99Z"/><path class="cls-3" d="M446.68,130.99s14.61-7.7,9.97-21.23"/><path class="cls-21" d="M418.85,37.71c-.71,3.71-3.44,4.94-3.44,4.94-31.87-5.71-38.74,23.67-38.74,23.67,0,0,33.68,15.6,38.73-23.26"/><path class="cls-3" d="M418.85,37.71c-.71,3.71-3.44,4.94-3.44,4.94-31.87-5.71-38.74,23.67-38.74,23.67,0,0,33.68,15.6,38.73-23.26"/><path class="cls-15" d="M418.85,37.71c-.71,3.71-3.44,4.94-3.44,4.94-31.87-5.71-38.74,23.67-38.74,23.67,0,0,33.68,15.6,38.73-23.26"/><path class="cls-21" d="M418.85,37.71c-.71,3.71-3.44,4.94-3.44,4.94-31.87-5.71-38.74,23.67-38.74,23.67,0,0,33.68,15.6,38.73-23.26"/><path class="cls-3" d="M418.85,37.71c-.71,3.71-3.44,4.94-3.44,4.94-31.87-5.71-38.74,23.67-38.74,23.67,0,0,33.68,15.6,38.73-23.26"/><path class="cls-3" d="M385.81,61.62s16.01-.43,29.6-18.97"/><path class="cls-13" d="M407.16,104.37c4.21-3.95,10.05-10.53,13.95-20.92,8.05-21.46-.02-40.88-2.26-45.74-.04-.09-.07-.18,.02-.16,2.52,.59,25.58,7.5,21.31,63.74"/></g></g></g><g id="Artwork_56"><g class="cls-25"><g class="cls-33"><path class="cls-30" d="M197.77,68.58c-3.93-.92-8.12-1.89-13.83-2.13-4.46-.19-8.27,.12-11.15,.51-.46,.06-.74,.52-.61,.96,.21,.7,.39,1.6,.35,2.65-.1,2.72-1.55,4.58-2.1,5.21-.02,.03-.04,.05-.07,.07-1.73,1.62-3.95,1.7-5.16,1.6-.27-.02-.5-.21-.61-.46-.16-.36-.35-.71-.55-1.04h.01s.32-12.76,.32-12.76c.02-.66-.77-1.01-1.25-.56l-7.7,7.15c-.14,.13-.33,.2-.52,.2l-1.29-.02c-4.32-.39-8.62,.95-11.94,3.73-.14,.12-.32,.18-.5,.17l-11.28-.51c-.64-.03-1.02,.72-.61,1.22l6.86,8.45c.1,.12,.15,.26,.16,.42,.03,.34,.07,.69,.15,1.03,.02,.11,.05,.22,.09,.32,.08,.28-.01,.58-.24,.77-.89,.72-2.9,2.02-5.39,1.55-.03,0-.06-.01-.09-.02-.81-.24-3.03-1.03-4.56-3.28-.6-.87-.94-1.74-1.13-2.44-.12-.44-.61-.66-1.02-.47-2.64,1.21-6.03,2.99-9.69,5.55-4.68,3.26-7.71,6.33-10.53,9.21-2.87,2.93-6.46,6.95-10.21,12.15-.44,.61,.2,1.42,.89,1.12,4.36-1.85,13.31-4.67,19.85-.12,.81,.56,1.67,1.3,2.51,2.29,.35,.4,1,.36,1.23-.12,1.39-2.8,4.43-4.86,7.44-5.46,3.31-.65,5.97,1.01,7.41,2.21,.46,.38,1.16,.08,1.21-.52,.17-2.03,.88-5.47,3.89-7.61,3.04-2.16,6.26-2.05,7.24-1.97l.75,.04c.34,.02,.62,.27,.69,.6,.11,.54,.28,1.33,.54,1.99,1.23,3.19,5.53,6.98,9.87,5.92,4.12-1,6.31-5.74,6.58-6.58,.15-.46,.94-3.85,.16-6.73-.09-.32,.06-.66,.34-.84,1.15-.72,3.58-1.92,6.73-1.75,3.68,.2,6.12,2.72,7.36,4.34,.37,.48,1.11,.36,1.3-.22,.57-1.78,1.93-4.6,5.07-5.82,2.87-1.11,6.54-1.01,9.21,.61,.45,.28,1.03-.03,1.11-.56,.18-1.28,.51-2.36,.89-3.27,3.08-7.35,12.15-9.77,16.82-10.54,.75-.12,.85-1.15,.15-1.43-5.95-2.38-11.14-3.85-15.13-4.78"/><path class="cls-7" d="M197.77,68.58c-3.93-.92-8.12-1.89-13.83-2.13-4.46-.19-8.27,.12-11.15,.51-.46,.06-.74,.52-.61,.96,.21,.7,.39,1.6,.35,2.65-.1,2.72-1.55,4.58-2.1,5.21-.02,.03-.04,.05-.07,.07-1.73,1.62-3.95,1.7-5.16,1.6-.27-.02-.5-.21-.61-.46-.16-.36-.35-.71-.55-1.04h.01s.32-12.76,.32-12.76c.02-.66-.77-1.01-1.25-.56l-7.7,7.15c-.14,.13-.33,.2-.52,.2l-1.29-.02c-4.32-.39-8.62,.95-11.94,3.73-.14,.12-.32,.18-.5,.17l-11.28-.51c-.64-.03-1.02,.72-.61,1.22l6.86,8.45c.1,.12,.15,.26,.16,.42,.03,.34,.07,.69,.15,1.03,.02,.11,.05,.22,.09,.32,.08,.28-.01,.58-.24,.77-.89,.72-2.9,2.02-5.39,1.55-.03,0-.06-.01-.09-.02-.81-.24-3.03-1.03-4.56-3.28-.6-.87-.94-1.74-1.13-2.44-.12-.44-.61-.66-1.02-.47-2.64,1.21-6.03,2.99-9.69,5.55-4.68,3.26-7.71,6.33-10.53,9.21-2.87,2.93-6.46,6.95-10.21,12.15-.44,.61,.2,1.42,.89,1.12,4.36-1.85,13.31-4.67,19.85-.12,.81,.56,1.67,1.3,2.51,2.29,.35,.4,1,.36,1.23-.12,1.39-2.8,4.43-4.86,7.44-5.46,3.31-.65,5.97,1.01,7.41,2.21,.46,.38,1.16,.08,1.21-.52,.17-2.03,.88-5.47,3.89-7.61,3.04-2.16,6.26-2.05,7.24-1.97l.75,.04c.34,.02,.62,.27,.69,.6,.11,.54,.28,1.33,.54,1.99,1.23,3.19,5.53,6.98,9.87,5.92,4.12-1,6.31-5.74,6.58-6.58,.15-.46,.94-3.85,.16-6.73-.09-.32,.06-.66,.34-.84,1.15-.72,3.58-1.92,6.73-1.75,3.68,.2,6.12,2.72,7.36,4.34,.37,.48,1.11,.36,1.3-.22,.57-1.78,1.93-4.6,5.07-5.82,2.87-1.11,6.54-1.01,9.21,.61,.45,.28,1.03-.03,1.11-.56,.18-1.28,.51-2.36,.89-3.27,3.08-7.35,12.15-9.77,16.82-10.54,.75-.12,.85-1.15,.15-1.43-5.95-2.38-11.14-3.85-15.13-4.78Z"/><path class="cls-1" d="M163.64,62.41c.39,0,.76,.31,.75,.77l-.32,12.76h-.01c.21,.34,.4,.69,.55,1.05,.11,.25,.34,.44,.61,.46,.21,.02,.44,.03,.7,.03,1.25,0,3.02-.29,4.46-1.63,.02-.02,.04-.04,.07-.07,.55-.64,2-2.49,2.1-5.21,.04-1.05-.14-1.95-.35-2.65-.13-.44,.15-.9,.61-.96,2.28-.31,5.14-.57,8.45-.57,.87,0,1.78,.02,2.71,.06,5.7,.25,9.9,1.21,13.83,2.13,3.99,.94,9.18,2.41,15.13,4.78,.7,.28,.6,1.31-.15,1.43-4.67,.77-13.74,3.19-16.82,10.54-.38,.91-.71,2-.89,3.27-.05,.39-.39,.66-.74,.66-.12,0-.25-.03-.36-.1-1.51-.92-3.35-1.35-5.17-1.35-1.4,0-2.79,.25-4.04,.74-3.14,1.22-4.5,4.04-5.07,5.82-.11,.33-.4,.52-.71,.52-.22,0-.44-.1-.59-.3-1.24-1.63-3.68-4.15-7.36-4.34-.2-.01-.4-.02-.6-.02-2.86,0-5.06,1.09-6.13,1.77-.28,.18-.43,.52-.34,.84,.79,2.89,0,6.28-.16,6.73-.27,.84-2.46,5.58-6.58,6.58-.51,.12-1.01,.18-1.51,.18-3.79,0-7.27-3.29-8.36-6.1-.25-.66-.43-1.45-.54-1.99-.07-.33-.35-.58-.69-.6l-.75-.04c-.19-.01-.47-.03-.82-.03-1.42,0-3.98,.27-6.42,2-3.01,2.14-3.71,5.57-3.89,7.61-.03,.42-.38,.69-.74,.69-.16,0-.32-.05-.46-.17-1.21-1.01-3.3-2.35-5.91-2.35-.48,0-.98,.05-1.5,.15-3.02,.6-6.06,2.65-7.44,5.46-.13,.26-.38,.39-.64,.39-.22,0-.43-.09-.59-.27-.84-.98-1.7-1.72-2.51-2.28-2.61-1.82-5.6-2.46-8.53-2.46-4.42,0-8.7,1.46-11.32,2.58-.1,.04-.2,.06-.3,.06-.56,0-.97-.67-.6-1.19,3.75-5.2,7.35-9.22,10.21-12.15,2.82-2.88,5.85-5.95,10.53-9.21,3.66-2.55,7.05-4.33,9.69-5.55,.1-.05,.21-.07,.31-.07,.32,0,.62,.21,.71,.54,.19,.71,.53,1.57,1.13,2.45,1.54,2.24,3.76,3.03,4.56,3.28,.03,0,.06,.02,.09,.02,.36,.07,.72,.1,1.06,.1,1.99,0,3.57-1.04,4.33-1.65,.23-.18,.33-.49,.24-.77-.03-.11-.06-.21-.09-.32-.08-.34-.12-.69-.15-1.03-.01-.15-.07-.3-.16-.42l-6.87-8.45c-.4-.49-.04-1.22,.58-1.22,.01,0,.02,0,.04,0l11.28,.51s.02,0,.03,0c.17,0,.34-.06,.47-.17,2.95-2.46,6.65-3.8,10.47-3.8,.49,0,.98,.02,1.48,.07l1.29,.02h.01c.19,0,.37-.07,.51-.2l7.7-7.15c.15-.14,.33-.2,.5-.2m0-1.53h0c-.57,0-1.12,.22-1.55,.61l-7.46,6.93h-.92c-.52-.06-1.04-.08-1.56-.08-4.07,0-8.04,1.4-11.21,3.96l-10.97-.5s-.07,0-.11,0c-.89,0-1.67,.5-2.06,1.3-.38,.8-.27,1.73,.29,2.42l6.71,8.26c.03,.3,.07,.59,.13,.87-.68,.47-1.73,1.01-2.96,1.01-.25,0-.5-.02-.74-.07-.9-.28-2.55-.99-3.7-2.67-.41-.6-.72-1.27-.92-1.98-.27-.98-1.17-1.66-2.19-1.66-.33,0-.65,.07-.95,.21-3.46,1.59-6.8,3.5-9.93,5.68-4.9,3.41-8,6.59-10.75,9.4-3.71,3.8-7.2,7.94-10.36,12.33-.5,.7-.57,1.6-.18,2.37,.39,.77,1.17,1.25,2.02,1.25,.31,0,.61-.06,.9-.18,2.63-1.12,6.63-2.45,10.72-2.45,3,0,5.57,.74,7.65,2.18,.81,.56,1.55,1.24,2.22,2.02,.44,.52,1.08,.81,1.76,.81,.86,0,1.64-.48,2.02-1.25,1.11-2.24,3.66-4.1,6.37-4.63,.4-.08,.8-.12,1.2-.12,2.1,0,3.84,1.09,4.93,2,.41,.34,.92,.53,1.45,.53,1.19,0,2.17-.9,2.27-2.09,.17-2.03,.87-4.8,3.25-6.49,2-1.42,4.11-1.72,5.53-1.72,.24,0,.47,0,.7,.03h.17c.14,.64,.31,1.19,.49,1.66,1.34,3.48,5.37,7.08,9.79,7.08,.63,0,1.27-.08,1.88-.22,4.71-1.15,7.25-6.29,7.68-7.6,.24-.75,.95-4,.32-7.02,1.01-.56,2.71-1.26,4.85-1.26,.17,0,.34,0,.52,.01,2.91,.15,4.99,2.12,6.22,3.74,.44,.57,1.1,.9,1.81,.9,.99,0,1.86-.64,2.17-1.58,.54-1.69,1.71-3.91,4.17-4.86,1.06-.41,2.27-.63,3.48-.63,1.62,0,3.18,.4,4.38,1.13,.35,.21,.75,.33,1.16,.33,1.13,0,2.1-.85,2.26-1.98,.14-1.01,.41-1.99,.79-2.89,2.76-6.58,10.99-8.85,15.66-9.62,1.02-.17,1.78-.97,1.89-2,.11-1.03-.46-1.98-1.43-2.37-5.02-2.01-10.18-3.64-15.35-4.85-3.82-.9-8.15-1.92-14.11-2.17-.92-.04-1.85-.06-2.77-.06-2.88,0-5.8,.2-8.65,.59-.66,.09-1.25,.46-1.61,1.02-.36,.56-.46,1.26-.26,1.9,.21,.71,.31,1.43,.29,2.15-.07,2.03-1.08,3.52-1.7,4.24-1.07,.99-2.43,1.19-3.39,1.19-.04,0-.07,0-.11,0-.06-.12-.13-.25-.2-.38l.31-12.35c.02-.62-.21-1.2-.64-1.65-.43-.44-1.03-.69-1.64-.69"/><path class="cls-4" d="M136.13,89.04c-8.23,2.96-12.5-5.92-12.5-5.92,0,0-20.07,12.83-24.68,21.39"/><path class="cls-4" d="M117.55,111.35s-.16-17.37,6.09-28.23c0,0,3.9,17.55,10.01,24.73"/><path class="cls-4" d="M166.61,80.22c8.5-2.05,7.18-11.82,7.18-11.82,0,0,23.82-.32,32.37,4.29"/><path class="cls-4" d="M194.4,88.62s-9.42-14.6-20.61-20.22c0,0,6.4,16.8,5.24,26.16"/><path class="cls-30" d="M163.89,93.92c1.28,5.51-1.55,10.88-6.31,11.98-4.76,1.1-9.66-2.47-10.94-7.99-1.28-5.51,1.55-10.88,6.31-11.98,4.76-1.1,9.66,2.47,10.94,7.99"/><path class="cls-8" d="M163.89,93.92c1.28,5.51-1.55,10.88-6.31,11.98-4.76,1.1-9.66-2.47-10.94-7.99-1.28-5.51,1.55-10.88,6.31-11.98,4.76-1.1,9.66,2.47,10.94,7.99Z"/><path class="cls-19" d="M161.34,95.02c.89,3.84-1.08,7.59-4.4,8.35-3.32,.77-6.74-1.72-7.63-5.57s1.08-7.59,4.4-8.35c3.32-.77,6.74,1.72,7.63,5.57"/><path class="cls-6" d="M161.34,95.02c.89,3.84-1.08,7.59-4.4,8.35-3.32,.77-6.74-1.72-7.63-5.57s1.08-7.59,4.4-8.35c3.32-.77,6.74,1.72,7.63,5.57Z"/><path class="cls-30" d="M164.18,76.48c-.05-.15-.11-.3-.17-.45l.07-13.14c0-.37-.41-.57-.67-.33l-7.44,7.61c-2.8-.54-5.99-.33-9.17,.77-2.07,.71-3.91,1.73-5.47,2.94l-11.88-.25c-.37-.01-.59,.38-.37,.65l7,8.42c-.08,1.12,.06,2.23,.43,3.31,1.96,5.69,9.74,8.18,17.38,5.55,7.64-2.63,12.24-9.38,10.28-15.08"/><path class="cls-8" d="M164.18,76.48c-.05-.15-.11-.3-.17-.45l.07-13.14c0-.37-.41-.57-.67-.33l-7.44,7.61c-2.8-.54-5.99-.33-9.17,.77-2.07,.71-3.91,1.73-5.47,2.94l-11.88-.25c-.37-.01-.59,.38-.37,.65l7,8.42c-.08,1.12,.06,2.23,.43,3.31,1.96,5.69,9.74,8.18,17.38,5.55,7.64-2.63,12.24-9.38,10.28-15.08Z"/><polygon class="cls-1" points="135.38 78.48 132.63 75.55 137.43 75.92 135.38 78.48"/><polygon class="cls-10" points="135.38 78.48 132.63 75.55 137.43 75.92 135.38 78.48"/><polygon class="cls-1" points="159.92 68.77 162.47 66.21 162.47 70.3 159.92 68.77"/><polygon class="cls-10" points="159.92 68.77 162.47 66.21 162.47 70.3 159.92 68.77"/><path d="M142.55,88.82c-2.33,0-4.22-1.89-4.22-4.22s1.89-4.22,4.22-4.22,4.22,1.89,4.22,4.22-1.89,4.22-4.22,4.22"/><path class="cls-1" d="M142.55,81.15c1.91,0,3.45,1.55,3.45,3.45s-1.55,3.45-3.45,3.45-3.45-1.55-3.45-3.45,1.55-3.45,3.45-3.45m0-1.53c-2.75,0-4.99,2.24-4.99,4.99s2.24,4.99,4.99,4.99,4.99-2.24,4.99-4.99-2.24-4.99-4.99-4.99"/><path d="M158.15,83.94c-2.33,0-4.22-1.89-4.22-4.22s1.89-4.22,4.22-4.22,4.22,1.89,4.22,4.22-1.89,4.22-4.22,4.22"/><path class="cls-1" d="M158.15,76.26c1.91,0,3.45,1.55,3.45,3.45s-1.55,3.45-3.45,3.45-3.45-1.55-3.45-3.45,1.55-3.45,3.45-3.45m0-1.53c-2.75,0-4.99,2.24-4.99,4.99s2.24,4.99,4.99,4.99,4.99-2.24,4.99-4.99-2.24-4.99-4.99-4.99"/><path class="cls-16" d="M152.66,85.55c.36,.87-.03,1.86-.87,2.21-.84,.35-1.82-.07-2.19-.94"/></g></g></g><g><path class="cls-28" d="M252.23,71.84l20.61-9.73c.72-.34,1.47,.4,1.15,1.12l-9.52,21.35c-.14,.32-.08,.7,.17,.95l15.69,15.96c.57,.58,.09,1.55-.72,1.45l-22.15-2.85c-.35-.04-.69,.13-.86,.44l-11.23,20.4c-.39,.71-1.45,.53-1.59-.26l-3.7-21.06c-.06-.34-.32-.61-.66-.69l-23.42-5.23c-.78-.17-.92-1.24-.2-1.6l21.09-10.64c.34-.17,.52-.54,.46-.92l-4.23-23.17c-.15-.8,.81-1.33,1.41-.79l16.77,15.13c.26,.23,.63,.29,.94,.14Z"/><path class="cls-9" d="M252.23,71.84l20.61-9.73c.72-.34,1.47,.4,1.15,1.12l-9.52,21.35c-.14,.32-.08,.7,.17,.95l15.69,15.96c.57,.58,.09,1.55-.72,1.45l-22.15-2.85c-.35-.04-.69,.13-.86,.44l-11.23,20.4c-.39,.71-1.45,.53-1.59-.26l-3.7-21.06c-.06-.34-.32-.61-.66-.69l-23.42-5.23c-.78-.17-.92-1.24-.2-1.6l21.09-10.64c.34-.17,.52-.54,.46-.92l-4.23-23.17c-.15-.8,.81-1.33,1.41-.79l16.77,15.13c.26,.23,.63,.29,.94,.14Z"/><path class="cls-1" d="M233.96,56.34c.19,0,.39,.07,.57,.22l16.77,15.13c.16,.14,.37,.22,.57,.22,.12,0,.25-.03,.36-.08l20.61-9.73c.12-.06,.25-.08,.37-.08,.58,0,1.04,.61,.78,1.21l-9.52,21.35c-.14,.32-.08,.7,.17,.95l15.69,15.96c.54,.55,.13,1.45-.6,1.45-.04,0-.08,0-.12,0l-22.15-2.85s-.07,0-.11,0c-.31,0-.6,.17-.75,.44l-11.23,20.4c-.17,.3-.46,.44-.74,.44-.39,0-.77-.25-.85-.71l-3.7-21.06c-.06-.34-.32-.61-.66-.69l-23.42-5.23c-.78-.17-.92-1.24-.2-1.6l21.09-10.64c.34-.17,.52-.54,.46-.92l-4.23-23.17c-.11-.57,.35-1.01,.85-1.01m0-2h0c-.85,0-1.66,.38-2.21,1.03-.54,.65-.76,1.5-.61,2.34l4.08,22.33-20.32,10.25c-1.09,.55-1.7,1.69-1.55,2.9,.15,1.21,1.02,2.17,2.21,2.43l22.67,5.06,3.57,20.31c.24,1.37,1.42,2.36,2.82,2.36,1.04,0,1.99-.57,2.5-1.48l10.85-19.72,21.38,2.75c.13,.02,.25,.02,.37,.02,1.15,0,2.18-.69,2.62-1.75,.45-1.06,.21-2.28-.6-3.1l-15.14-15.41,9.2-20.63c.4-.89,.32-1.9-.21-2.71-.53-.82-1.43-1.31-2.39-1.31-.42,0-.83,.09-1.22,.28l-19.92,9.41-16.2-14.62c-.53-.48-1.2-.74-1.91-.74h0Z"/></g></svg>