<?xml version="1.0" encoding="UTF-8"?><svg id="Layer_1" xmlns="http://www.w3.org/2000/svg" xmlns:xlink="http://www.w3.org/1999/xlink" viewBox="0 0 495.19 170.76"><defs><style>.cls-1{clip-path:url(#clippath-11);}.cls-2{fill:#fff;}.cls-3{fill:#ffce24;}.cls-4{stroke-width:1.32px;}.cls-4,.cls-5,.cls-6,.cls-7,.cls-8,.cls-9,.cls-10,.cls-11,.cls-12,.cls-13,.cls-14,.cls-15,.cls-16{fill:none;}.cls-4,.cls-5,.cls-6,.cls-7,.cls-8,.cls-9,.cls-10,.cls-11,.cls-12,.cls-13,.cls-14,.cls-16{stroke:#000;}.cls-4,.cls-5,.cls-13,.cls-14,.cls-16{stroke-miterlimit:10;}.cls-17{clip-path:url(#clippath-2);}.cls-5,.cls-13{stroke-width:1.21px;}.cls-6{stroke-miterlimit:10;stroke-width:.61px;}.cls-18{clip-path:url(#clippath-13);}.cls-19{fill:#a70e19;}.cls-20{clip-path:url(#clippath-15);}.cls-21{clip-path:url(#clippath-6);}.cls-7{stroke-width:1.18px;}.cls-7,.cls-8,.cls-11,.cls-12{stroke-linejoin:round;}.cls-7,.cls-8,.cls-11,.cls-12,.cls-13{stroke-linecap:round;}.cls-8{stroke-width:1.21px;}.cls-9{stroke-miterlimit:10;stroke-width:.61px;}.cls-10{stroke-miterlimit:10;stroke-width:.61px;}.cls-22{fill:#84ccb0;}.cls-11{stroke-width:1.21px;}.cls-23{clip-path:url(#clippath-7);}.cls-12{stroke-width:1.21px;}.cls-24{clip-path:url(#clippath-1);}.cls-25{clip-path:url(#clippath-4);}.cls-26{fill:#f686b0;}.cls-27{opacity:.58;}.cls-28{clip-path:url(#clippath-12);}.cls-14{stroke-width:.68px;}.cls-29{clip-path:url(#clippath-9);}.cls-30{clip-path:url(#clippath);}.cls-31{clip-path:url(#clippath-3);}.cls-32{clip-path:url(#clippath-8);}.cls-33{clip-path:url(#clippath-14);}.cls-34{clip-path:url(#clippath-5);}.cls-35{fill:#84c2a9;}.cls-36{clip-path:url(#clippath-10);}.cls-16{stroke-width:.77px;}.cls-37{fill:#840b19;}</style><clipPath id="clippath"><rect class="cls-15" x="0" y="22.27" width="117.07" height="69.35"/></clipPath><clipPath id="clippath-1"><rect class="cls-15" x="0" y="22.27" width="117.07" height="69.35"/></clipPath><clipPath id="clippath-2"><rect class="cls-15" x="231.05" y="8.6" width="83.87" height="162.15"/></clipPath><clipPath id="clippath-3"><rect class="cls-15" x="231.05" y="8.6" width="83.87" height="162.15"/></clipPath><clipPath id="clippath-4"><rect class="cls-15" x="231.05" y="8.6" width="83.87" height="162.15"/></clipPath><clipPath id="clippath-5"><rect class="cls-15" x="255.09" y="48.54" width="14.82" height="33.1"/></clipPath><clipPath id="clippath-6"><rect class="cls-15" x="255.09" y="48.54" width="14.82" height="33.1"/></clipPath><clipPath id="clippath-7"><rect class="cls-15" x="252.01" y="36.35" width="35.14" height="25.21"/></clipPath><clipPath id="clippath-8"><rect class="cls-15" x="253.28" y="75.81" width="11.23" height="4.86"/></clipPath><clipPath id="clippath-9"><rect class="cls-15" x="118.21" y="6.32" width="100.3" height="100.3"/></clipPath><clipPath id="clippath-10"><rect class="cls-15" x="118.21" y="6.32" width="100.3" height="100.3"/></clipPath><clipPath id="clippath-11"><rect class="cls-15" x="330.59" y="14.3" width="82.33" height="86.6"/></clipPath><clipPath id="clippath-12"><rect class="cls-15" x="330.59" y="14.3" width="82.33" height="86.6"/></clipPath><clipPath id="clippath-13"><rect class="cls-15" x="330.59" y="14.3" width="82.33" height="86.6"/></clipPath><clipPath id="clippath-14"><rect class="cls-15" x="430.51" width="64.68" height="140.03"/></clipPath><clipPath id="clippath-15"><rect class="cls-15" x="430.51" width="64.68" height="140.03"/></clipPath></defs><g id="Artwork_20"><g class="cls-30"><g class="cls-24"><g><path class="cls-22" d="M112.9,38.9c-1.76-6.72-27.53-3.65-57.55,6.85-9.84,3.44-18.92,7.26-26.6,11.06-15.79,7.81-25.75,15.6-24.57,20.12,1.76,6.72,27.53,3.65,57.55-6.85,30.02-10.5,52.94-24.46,51.17-31.18m-52.48,24.83c-24.06,8.41-44.28,12.56-45.15,9.26s17.94-12.81,42.01-21.23c24.06-8.41,44.28-12.56,45.15-9.26,.87,3.3-17.94,12.81-42.01,21.23"/><path class="cls-4" d="M112.9,38.9c-1.76-6.72-27.53-3.65-57.55,6.85-9.84,3.44-18.92,7.26-26.6,11.06-15.79,7.81-25.75,15.6-24.57,20.12,1.76,6.72,27.53,3.65,57.55-6.85,30.02-10.5,52.94-24.46,51.17-31.18Zm-52.48,24.83c-24.06,8.41-44.28,12.56-45.15,9.26-.87-3.3,17.94-12.81,42.01-21.23,24.06-8.41,44.28-12.56,45.15-9.26,.87,3.3-17.94,12.81-42.01,21.23Z"/><path class="cls-2" d="M102.64,35.33c5.9,0,9.62,1.15,10.25,3.56,1.76,6.72-21.15,20.68-51.17,31.18-19.25,6.73-36.75,10.41-47.29,10.41-5.9,0-9.62-1.15-10.25-3.56-1.18-4.52,8.79-12.31,24.57-20.12,7.7-3.81,16.77-7.63,26.6-11.06,19.25-6.73,36.75-10.41,47.29-10.41M18.84,74.12c6.94,0,23.12-3.94,41.58-10.4,24.06-8.41,42.87-17.92,42.01-21.23-.2-.76-1.46-1.14-3.57-1.14-6.94,0-23.12,3.94-41.58,10.4-24.06,8.41-42.87,17.92-42.01,21.23,.2,.77,1.46,1.14,3.57,1.14M102.64,31.25c-11.42,0-29.59,3.98-48.65,10.64-9.64,3.37-19.01,7.27-27.06,11.25C7.42,62.8-1.56,71.15,.22,77.96c1.73,6.61,11.13,6.61,14.21,6.61,11.42,0,29.59-3.98,48.65-10.64,5.92-2.07,57.8-20.7,53.78-36.08-1.73-6.61-11.12-6.61-14.21-6.61M26.53,69.11c6.53-3.48,17.22-8.29,32.1-13.49,13.84-4.84,25.07-7.84,32.54-9.24-6.53,3.48-17.22,8.29-32.1,13.49-13.84,4.84-25.07,7.84-32.54,9.24"/><path class="cls-26" d="M88.38,56.94c0,16.89-13.7,30.59-30.59,30.59s-30.59-13.69-30.59-30.59,13.7-30.59,30.59-30.59,30.59,13.69,30.59,30.59"/><path class="cls-4" d="M88.38,56.94c0,16.89-13.7,30.59-30.59,30.59s-30.59-13.69-30.59-30.59,13.7-30.59,30.59-30.59,30.59,13.69,30.59,30.59Z"/><path class="cls-4" d="M88.38,56.94c0,16.89-13.7,30.59-30.59,30.59s-30.59-13.69-30.59-30.59,13.7-30.59,30.59-30.59,30.59,13.69,30.59,30.59Z"/><path class="cls-2" d="M57.79,26.36c16.89,0,30.59,13.7,30.59,30.59s-13.69,30.59-30.59,30.59-30.59-13.7-30.59-30.59,13.69-30.59,30.59-30.59m0-4.09c-19.11,0-34.67,15.55-34.67,34.67s15.55,34.68,34.67,34.68,34.67-15.55,34.67-34.68-15.55-34.67-34.67-34.67"/><path class="cls-26" d="M88.38,56.92c0,16.89-13.7,30.59-30.59,30.59s-30.59-13.69-30.59-30.59,13.7-30.59,30.59-30.59,30.59,13.69,30.59,30.59"/><path class="cls-4" d="M88.38,56.92c0,16.89-13.7,30.59-30.59,30.59s-30.59-13.69-30.59-30.59,13.7-30.59,30.59-30.59,30.59,13.69,30.59,30.59Z"/><path class="cls-4" d="M88.38,56.92c0,16.89-13.7,30.59-30.59,30.59s-30.59-13.69-30.59-30.59,13.7-30.59,30.59-30.59,30.59,13.69,30.59,30.59Z"/><path class="cls-22" d="M112.09,38.87c-1.76-6.72-27.53-3.65-57.55,6.85-9.84,3.44-18.92,7.26-26.6,11.06-15.79,7.81-25.75,15.6-24.57,20.12,1.76,6.72,27.53,3.65,57.55-6.85s52.94-24.46,51.17-31.18m-52.48,24.83c-24.06,8.41-44.28,12.56-45.15,9.26s17.94-12.81,42.01-21.23c24.06-8.41,44.28-12.56,45.15-9.26,.87,3.3-17.94,12.81-42.01,21.23"/><path class="cls-4" d="M112.09,38.87c-1.76-6.72-27.53-3.65-57.55,6.85-9.84,3.44-18.92,7.26-26.6,11.06-15.79,7.81-25.75,15.6-24.57,20.12,1.76,6.72,27.53,3.65,57.55-6.85s52.94-24.46,51.17-31.18Zm-52.48,24.83c-24.06,8.41-44.28,12.56-45.15,9.26-.87-3.3,17.94-12.81,42.01-21.23,24.06-8.41,44.28-12.56,45.15-9.26,.87,3.3-17.94,12.81-42.01,21.23Z"/><path class="cls-26" d="M29.4,68.25c-6.21-15.71,1.48-33.47,17.19-39.7,15.71-6.21,33.47,1.48,39.69,17.19"/><path class="cls-4" d="M29.4,68.25c-6.21-15.71,1.48-33.47,17.19-39.7,15.71-6.21,33.47,1.48,39.69,17.19"/></g></g></g></g><g id="Artwork_24"><g class="cls-17"><g class="cls-31"><g class="cls-25"><g><path class="cls-19" d="M238.69,168.98c-.35,0-.7-.04-1.04-.13l-1.57-.39c-2.29-.58-3.7-2.91-3.13-5.2l20.98-84.23c-8.44-8.13-18.64-31.59-19.7-37.19-1.52-8.05-2.35-18.17,4.8-25.04,1.59-1.53,3.57-2.85,5.73-3.83,2.91-1.72,6.1-2.58,9.53-2.58,1.61,0,3.3,.2,5,.58,7.56,1.7,12.89,7.08,15.86,15.99,.15,.44,.29,.98,.46,1.65,3.46-2.54,8.58-5.68,13.99-6.83,1.2-.42,2.59-.62,4.14-.62,7.82,0,19.4,5.7,19.4,17.91,0,7.09-1.26,11.2-5.19,16.9-1.45,2.11-6.8,8.45-11.42,11.63-17.11,11.8-28.48,15.63-33.44,16.84l-20.24,81.29c-.48,1.91-2.18,3.26-4.16,3.26h0Z"/><path class="cls-2" d="M254.29,12.15c1.4,0,2.95,.16,4.61,.54,6.94,1.56,11.83,6.58,14.56,14.81,.34,1.01,.67,2.61,.98,4.22,3.24-2.64,9.25-6.92,15.63-8.25,1.04-.37,2.29-.57,3.66-.57,7.19,0,17.62,5.21,17.62,16.14,0,6.63-1.09,10.41-4.88,15.9-1.22,1.77-6.43,8.05-10.96,11.19-18.41,12.7-30.03,16-33.89,16.82l-20.51,82.35c-.28,1.14-1.31,1.91-2.44,1.91-.2,0-.41-.02-.61-.08l-1.57-.39c-1.35-.33-2.16-1.7-1.83-3.05l21.23-85.25c-8.01-6.84-18.87-31.28-19.93-36.92-1.65-8.73-1.84-17.54,4.29-23.43,1.41-1.37,3.25-2.6,5.32-3.54,2.09-1.25,4.94-2.39,8.7-2.39m0-3.55h0c-3.71,0-7.19,.94-10.35,2.79-2.31,1.06-4.44,2.49-6.14,4.13-7.86,7.55-6.8,18.83-5.31,26.65,1.05,5.58,10.96,28.4,19.48,37.4l-20.74,83.26c-.81,3.25,1.17,6.54,4.42,7.35l1.57,.39c.48,.12,.98,.18,1.46,.18,2.79,0,5.21-1.89,5.88-4.6l19.99-80.27c5.54-1.5,16.75-5.65,32.98-16.84,5.09-3.51,10.56-10.19,11.87-12.09,4.12-5.98,5.5-10.49,5.5-17.9,0-13.43-12.64-19.69-21.17-19.69-1.7,0-3.25,.23-4.61,.69-4.61,1-8.95,3.28-12.52,5.67-3.19-9.02-9.02-14.72-16.93-16.49-1.83-.41-3.65-.62-5.39-.62"/><path class="cls-37" d="M260.2,83.19s12.39-1.26,35.33-17.07c4.53-3.13,9.75-9.42,10.96-11.19,3.78-5.49,4.88-9.26,4.88-15.9,0-13.46-15.84-18.25-21.93-15.3"/><path class="cls-13" d="M260.2,83.19s12.39-1.26,35.33-17.07c4.53-3.13,9.75-9.42,10.96-11.19,3.78-5.49,4.88-9.26,4.88-15.9,0-13.46-15.84-18.25-21.93-15.3"/><path class="cls-2" d="M236.51,166.74l1.57,.39c1.35,.33,2.71-.49,3.05-1.83l28.1-112.82c.33-1.35-.49-2.71-1.83-3.05l-1.57-.39c-1.35-.33-2.71,.49-3.05,1.83l-28.1,112.82c-.33,1.35,.49,2.71,1.83,3.05"/><path class="cls-5" d="M236.51,166.74l1.57,.39c1.35,.33,2.71-.49,3.05-1.83l28.1-112.82c.33-1.35-.49-2.71-1.83-3.05l-1.57-.39c-1.35-.33-2.71,.49-3.05,1.83l-28.1,112.82c-.33,1.35,.49,2.71,1.83,3.05Z"/><path class="cls-5" d="M240.69,166.24c-.2,.77-1.44,.91-3.36,.43-1.92-.48-2.77-1.36-2.57-2.13s1.49-1.1,3.41-.62,2.72,1.55,2.53,2.32h0Z"/><path class="cls-37" d="M242.76,16.58c2.43-2.01,7.49-5.84,16.16-3.9,6.94,1.56,11.83,6.58,14.56,14.81,.56,1.67,1.11,4.89,1.52,7.19"/><path class="cls-13" d="M242.76,16.58c2.43-2.01,7.49-5.84,16.16-3.9,6.94,1.56,11.83,6.58,14.56,14.81,.56,1.67,1.11,4.89,1.52,7.19"/><path class="cls-19" d="M271.97,33.9s12.01-11.73,23.16-10.78c3.72,.32,7.96,1.65,10.38,6.09,5.68,10.39,1.33,19.89-3.36,26.09-2.87,3.79-6.46,6.99-10.46,9.55-7.73,4.93-26.32,16.27-32.54,15.34-7.93-1.17-21.95-32.22-23.17-38.67-1.65-8.73-1.84-17.54,4.29-23.43,5.49-5.28,17.08-8.79,26.22,.59,0,0,4.27,4.11,5.49,15.23"/><path class="cls-5" d="M271.97,33.9s12.01-11.73,23.16-10.78c3.72,.32,7.96,1.65,10.38,6.09,5.68,10.39,1.33,19.89-3.36,26.09-2.87,3.79-6.46,6.99-10.46,9.55-7.73,4.93-26.32,16.27-32.54,15.34-7.93-1.17-21.95-32.22-23.17-38.67-1.65-8.73-1.84-17.54,4.29-23.43,5.49-5.28,17.08-8.79,26.22,.59,0,0,4.27,4.11,5.49,15.23h0Z"/><g class="cls-34"><g><path class="cls-19" d="M269.29,51.57c-.21-.41-.72-1.21-1.69-1.79-.36-.22-1.1-.65-2.16-.64s-1.81,.47-2.11,.67l-7.62,28.46s2.61,5.01,6.85,1.57l6.72-28.27h0Z"/><g class="cls-21"><path class="cls-13" d="M269.29,51.57c-.21-.41-.72-1.21-1.69-1.79-.36-.22-1.1-.65-2.16-.64s-1.81,.47-2.11,.67l-7.62,28.46s2.61,5.01,6.85,1.57l6.72-28.27h0Z"/></g></g></g><g class="cls-27"><g class="cls-23"><g><rect x="251.97" y="39.33" width="8.87" height=".32" transform="translate(19.89 146.1) rotate(-33.02)"/><rect class="cls-6" x="251.97" y="39.33" width="8.87" height=".32" transform="translate(19.89 146.1) rotate(-33.02)"/><rect x="269.11" y="55.53" width="18.87" height=".3" transform="translate(14.61 160.69) rotate(-33)"/><rect class="cls-10" x="269.11" y="55.53" width="18.87" height=".3" transform="translate(14.61 160.69) rotate(-33)"/><rect x="251.35" y="47.85" width="30.09" height=".66" transform="translate(16.85 153.12) rotate(-33.06)"/><rect class="cls-9" x="251.35" y="47.85" width="30.09" height=".66" transform="translate(16.85 153.12) rotate(-33.06)"/><rect x="251.97" y="39.33" width="8.87" height=".32" transform="translate(19.89 146.1) rotate(-33.02)"/><rect x="269.11" y="55.53" width="18.87" height=".3" transform="translate(14.61 160.69) rotate(-33)"/><rect x="251.35" y="47.85" width="30.09" height=".66" transform="translate(16.85 153.12) rotate(-33.06)"/><rect class="cls-12" x="251.97" y="39.33" width="8.87" height=".32" transform="translate(19.89 146.1) rotate(-33.02)"/><rect class="cls-11" x="269.11" y="55.53" width="18.87" height=".3" transform="translate(14.61 160.69) rotate(-33)"/><rect class="cls-8" x="251.35" y="47.85" width="30.09" height=".66" transform="translate(16.85 153.12) rotate(-33.06)"/></g></g></g><g class="cls-32"><path class="cls-13" d="M253.87,76.41s3.55,5.44,10.05,3.07"/></g></g></g></g></g></g><g id="Artwork_18"><g class="cls-29"><g class="cls-36"><g><path class="cls-2" d="M209.83,62.03c-.09-3.29-.92-18.65-11.23-31.29-3.01-3.69-5.43-5.4-7.22-6.42-4.2-2.4-7.95-2.75-13.64-3.2-5.38-.44-11.12-.91-18.45,.8-3.6,.84-9.23,2.21-15.25,6.42-6.52,4.57-10.16,10.16-12.04,13.64-2.29,4.16-3.42,7.87-4.01,10.43-.75,3.25-1.56,6.75-.8,11.23,.24,1.4,.89,5.08,3.39,8.71,.41,.6,2.11,3.04,5.23,5.33,4.11,3.02,8.13,3.9,10.64,4.42,0,0,5.04,1.05,14.45,0,1.47-.17,2.7-.47,2.7-.47,.67-.16,1.2-.31,1.64-.47,.85-.29,1.57-.5,2.08-.68,0,0-.77,6.78,2.6,10.25,1.69,1.73,4.45,1.98,6.45,.63,1.77-1.18,3.76-3.59,4.58-8.47,0,0,0,8.83,5.62,8.83s6.76-10.43,6.76-10.43c.05,.64,.36,3.6,2.86,5.62,.55,.45,2.51,2.03,4.81,1.61,2.46-.46,3.8-2.92,4.81-4.81,.82-1.52,1.21-2.92,1.42-3.88,.27-.82,.63-1.96,.99-3.34,.21-.81,1.8-7.12,1.61-14.45"/><path class="cls-16" d="M209.83,62.03c-.09-3.29-.92-18.65-11.23-31.29-3.01-3.69-5.43-5.4-7.22-6.42-4.2-2.4-7.95-2.75-13.64-3.2-5.38-.44-11.12-.91-18.45,.8-3.6,.84-9.23,2.21-15.25,6.42-6.52,4.57-10.16,10.16-12.04,13.64-2.29,4.16-3.42,7.87-4.01,10.43-.75,3.25-1.56,6.75-.8,11.23,.24,1.4,.89,5.08,3.39,8.71,.41,.6,2.11,3.04,5.23,5.33,4.11,3.02,8.13,3.9,10.64,4.42,0,0,5.04,1.05,14.45,0,1.47-.17,2.7-.47,2.7-.47,.67-.16,1.2-.31,1.64-.47,.85-.29,1.57-.5,2.08-.68,0,0-.77,6.78,2.6,10.25,1.69,1.73,4.45,1.98,6.45,.63,1.77-1.18,3.76-3.59,4.58-8.47,0,0,0,8.83,5.62,8.83s6.76-10.43,6.76-10.43c.05,.64,.36,3.6,2.86,5.62,.55,.45,2.51,2.03,4.81,1.61,2.46-.46,3.8-2.92,4.81-4.81,.82-1.52,1.21-2.92,1.42-3.88,.27-.82,.63-1.96,.99-3.34,.21-.81,1.8-7.12,1.61-14.45h-.01Z"/><path class="cls-16" d="M131.19,49.2c-1.61,.8-8.83,22.46,11.23,29.69"/><path d="M174.52,62.03c-.68,6.89-2.2,10.63-6.42,11.23-5.62,.8-9.74-5.97-8.83-12.84,.91-6.87,5.85-12.54,10.07-11.98,4.22,.56,5.97,5.56,5.18,13.59"/><path class="cls-16" d="M174.52,62.03c-.68,6.89-2.2,10.63-6.42,11.23-5.62,.8-9.74-5.97-8.83-12.84,.91-6.87,5.85-12.54,10.07-11.98,4.22,.56,5.97,5.56,5.18,13.59h0Z"/><path d="M191.37,60.44c.77,5.77,4.43,9.25,7.91,8.78,3.48-.47,5.69-6.23,4.93-12-.77-5.77-4.22-9.35-7.71-8.89-3.48,.47-5.9,6.34-5.13,12.1"/><path class="cls-16" d="M191.37,60.44c.77,5.77,4.43,9.25,7.91,8.78,3.48-.47,5.69-6.23,4.93-12-.77-5.77-4.22-9.35-7.71-8.89-3.48,.47-5.9,6.34-5.13,12.1h0Z"/><path class="cls-16" d="M169.35,48.46s1.29,.27,2.67,.65c2.03,.57,3.31,1.69,4.57,3.96,1.02,1.83,1.51,5.62,1.14,9.77-.8,8.83-4.81,10.43-4.81,10.43"/><path class="cls-16" d="M196.5,48.33s4.85-1,7.71,3.28c3.2,4.81,2.41,16.04-.8,17.65"/><path class="cls-16" d="M182.26,72.16s-.05-.02-.07-.02c-1.38-.46-2.11-1.95-1.64-3.33,.52-1.52,1.67-3.63,4.28-5.39,.63-.43,1.41-.57,2.15-.37,1.66,.45,4.41,1.81,4.45,6.07,.02,1.52-1.29,2.74-2.8,2.61-.39-.03-.79-.11-1.16-.27-.68-.28-1.45-.32-2.12,.01l-1.09,.54c-.61,.31-1.34,.35-1.99,.15h-.01Z"/><path d="M187.35,63.64c.49,.17,4.01,4.81,1.61,5.62-3.28,1.09-3.05-1.08-3.05-1.08,.1,1.29-1.75,2-3.23,2.36-1.01,.25-1.97-.55-1.91-1.59,.13-2.12,4.17-6.12,6.58-5.32"/><path class="cls-16" d="M187.35,63.64c.49,.17,4.01,4.81,1.61,5.62-3.28,1.09-3.05-1.08-3.05-1.08,.1,1.29-1.75,2-3.23,2.36-1.01,.25-1.97-.55-1.91-1.59,.13-2.12,4.17-6.12,6.58-5.32Z"/><path class="cls-22" d="M135.21,50.8c.34-.08,2.34-.43,3.2-1.61,.73-1,.8-2.83,.8-3.2,0,.39,.06,2.24,.8,3.2,1.14,1.51,2.96,1.6,3.2,1.61-.25-.01-1.4-.05-2.41,.8-1.11,.94-1.6,3-1.61,3.2,0-.22-.49-2.26-1.61-3.2-1.01-.85-2.16-.82-2.41-.8"/><path class="cls-16" d="M135.21,50.8c.34-.08,2.34-.43,3.2-1.61,.73-1,.8-2.83,.8-3.2,0,.39,.06,2.24,.8,3.2,1.14,1.51,2.96,1.6,3.2,1.61-.25-.01-1.4-.05-2.41,.8-1.11,.94-1.6,3-1.61,3.2,0-.22-.49-2.26-1.61-3.2-1.01-.85-2.16-.82-2.41-.8h.02Z"/><path class="cls-26" d="M145.78,58.34c-.01,.45-.13,3.3-2.55,5.3-2,1.66-4.25,2.43-4.81,2.41,.73,.1,2.95,.51,4.81,2.41,2.21,2.24,2.39,4.97,2.41,5.62,.06-.94,.31-2.87,1.61-4.81,1.92-2.88,5.6-2.99,6.42-3.2-.45,.16-2-.47-2.89-.62-1.43-.26-2.26-1.29-2.73-1.78-1.98-2.12-2.22-4.58-2.27-5.3"/><path class="cls-16" d="M145.78,58.34c-.01,.45-.13,3.3-2.55,5.3-2,1.66-4.25,2.43-4.81,2.41,.73,.1,2.95,.51,4.81,2.41,2.21,2.24,2.39,4.97,2.41,5.62,.06-.94,.31-2.87,1.61-4.81,1.92-2.88,5.6-2.99,6.42-3.2-.45,.16-2-.47-2.89-.62-1.43-.26-2.26-1.29-2.73-1.78-1.98-2.12-2.22-4.58-2.27-5.3h.01Z"/><path class="cls-16" d="M144.03,79.69c1.49,.6,3.44,1.01,5.62,.8"/></g></g></g></g><g id="Artwork_27"><g class="cls-1"><g><g class="cls-28"><g><path class="cls-2" d="M354.62,84.6c3.73-2.53,7.63-7.1,10.79-11.78-1.11,5.54-1.62,11.52-.78,15.94,1.73,9.28,6.63,12.73,12.75,12.06,6.1-.91,9.95-5.48,9.25-14.9-.33-4.52-2.39-10.17-4.88-15.26,4.27,3.74,9.22,7.19,13.5,8.69,8.93,3.15,14.37,.64,16.84-4.99,2.26-5.72,.22-11.33-8.3-15.45-4.09-1.97-10.03-3.06-15.69-3.44,5.38-1.81,10.85-4.34,14.3-7.28,7.19-6.15,7.73-12.08,4.09-17.05-3.83-4.81-9.72-5.85-17.55-.55-3.73,2.53-7.63,7.1-10.79,11.78,1.11-5.54,1.62-11.52,.78-15.94-1.73-9.28-6.63-12.73-12.75-12.06-6.11,.9-9.95,5.48-9.25,14.9,.33,4.52,2.38,10.17,4.88,15.26-4.27-3.74-9.22-7.18-13.5-8.69-8.93-3.15-14.36-.65-16.85,4.99-2.26,5.71-.22,11.33,8.3,15.44,4.09,1.97,10.03,3.06,15.69,3.44-5.39,1.81-10.86,4.34-14.3,7.28-7.19,6.15-7.74,12.08-4.1,17.04,3.83,4.81,9.72,5.85,17.56,.55"/><path class="cls-14" d="M354.62,84.6c3.73-2.53,7.63-7.1,10.79-11.78-1.11,5.54-1.62,11.52-.78,15.94,1.73,9.28,6.63,12.73,12.75,12.06,6.1-.91,9.95-5.48,9.25-14.9-.33-4.52-2.39-10.17-4.88-15.26,4.27,3.74,9.22,7.19,13.5,8.69,8.93,3.15,14.37,.64,16.84-4.99,2.26-5.72,.22-11.33-8.3-15.45-4.09-1.97-10.03-3.06-15.69-3.44,5.38-1.81,10.85-4.34,14.3-7.28,7.19-6.15,7.73-12.08,4.09-17.05-3.83-4.81-9.72-5.85-17.55-.55-3.73,2.53-7.63,7.1-10.79,11.78,1.11-5.54,1.62-11.52,.78-15.94-1.73-9.28-6.63-12.73-12.75-12.06-6.11,.9-9.95,5.48-9.25,14.9,.33,4.52,2.38,10.17,4.88,15.26-4.27-3.74-9.22-7.18-13.5-8.69-8.93-3.15-14.36-.65-16.85,4.99-2.26,5.71-.22,11.33,8.3,15.44,4.09,1.97,10.03,3.06,15.69,3.44-5.39,1.81-10.86,4.34-14.3,7.28-7.19,6.15-7.74,12.08-4.1,17.04,3.83,4.81,9.72,5.85,17.56,.55"/></g></g><g class="cls-18"><g><path class="cls-3" d="M368.45,65.55c-4.4-1.83-6.48-6.87-4.65-11.26,1.83-4.39,6.89-6.46,11.29-4.64s6.48,6.87,4.65,11.26c-1.83,4.39-6.89,6.47-11.29,4.64"/><path class="cls-14" d="M368.45,65.55c-4.4-1.83-6.48-6.87-4.65-11.26,1.83-4.39,6.89-6.46,11.29-4.64s6.48,6.87,4.65,11.26c-1.83,4.39-6.89,6.47-11.29,4.64"/></g></g></g></g></g><g id="Artwork_54"><g class="cls-33"><g class="cls-20"><path class="cls-35" d="M467.09,136.49c-3.22,0-9.53-1.57-13.72-5.9-3.02-3.12-4.47-7.14-4.31-11.94,.34-10.2,5.14-15.4,12.77-20.49,2.95-1.97,6.41-3.08,8.27-3.68,.24-.08,.46-.15,.65-.21,.95-.32,2.04-.51,3.1-.7,2.99-.53,6.37-1.13,6.37-4.96,0-2.07-1.81-3.76-4.03-3.76-.6,0-1.22,.12-1.83,.36-.52,.11-5.61,1.19-14.63,2.25l-.22,.03c-1.12,.13-3,.36-5.26,.36-5.95,0-10.92-1.52-14.77-4.51-6.62-5.15-7.85-18.03-2.43-25.53,3.44-4.77,10.71-8.65,16.54-8.82,.7-.02,1.35-.03,1.98-.03,3.78,0,6.79,.44,14.91,1.73,1.1,.17,2.11,.26,3,.26h0c4.52,0,5.19-2.21,5.27-3.17,.16-1.97-1.54-4.13-3.51-4.49l-6.51-1.91c-4.88-1.44-8.59-5.56-9.45-10.51l-.02-.13c-.5-2.99-1.8-3.45-3.18-3.95-.36-.13-.73-.26-1.1-.45-1.17-.58-1.46-2.1-1.49-3.27-.15-4.73,3.51-12.68,8.29-15.5,.09-.03,.43-.14,.97-.17,.1,0,.19-.03,.27-.08,.08,.05,.17,.08,.27,.09,.81,.05,1.65,.3,2.5,.72,.82,.49,7.16,8.01,7.53,13.43,.11,1.65-.34,2.86-1.4,3.71-.02,.01-.03,.03-.05,.04-.19,.19-.45,.33-.69,.47-.44,.24-.98,.54-1.05,1.18-.08,.7,.38,1.53,2.91,3.75,1.22,1.07,4.49,2.2,7.02,2.95,5.52,1.66,7.16,3.3,8.25,4.38,2.61,2.61,3.98,6.19,3.96,10.34-.02,3.51-.78,5.79-2.89,8.72-2.34,3.25-7.05,4.95-10.37,5.43-2.32,.33-4.09,.48-5.73,.48s-3.16-.15-5.21-.35c-2.25-.22-5.05-.5-9.35-.7-.09,0-.23,0-.41,0-1.12,0-6.85,.15-9.55,3.09-1.08,1.18-1.56,2.64-1.42,4.35,.28,3.3,4.26,7.34,8.52,7.34,3.95,0,7.77-.9,11.46-1.77,3.45-.81,6.71-1.58,9.85-1.58,2.54,0,4.75,.52,6.74,1.58,4.51,2.41,7.63,5.27,8.19,11.43,.41,4.51-.98,13.62-9.2,15.81l-.47,.12c-8.25,2.2-22.06,5.87-22.63,17.41-.27,5.32,3.85,10.45,6.57,13.84,.86,1.08,1.83,2.28,2.02,2.79-.19,.06-.59,.14-1.28,.14"/><path d="M462.99,7.93c.08,.02,.16,.04,.24,.04,.71,.05,1.46,.26,2.23,.64,.99,.75,7.12,8.27,7.26,13.23,.04,1.31-.35,2.27-1.19,2.95-.03,.03-.07,.06-.1,.09-.13,.13-.34,.25-.56,.37-.47,.26-1.25,.69-1.35,1.63-.12,1.07,.64,2.1,3.1,4.26,1.04,.91,3.48,1.95,7.24,3.08,5.38,1.61,6.96,3.19,8,4.24,2.5,2.5,3.81,5.93,3.79,9.92-.02,3.37-.75,5.56-2.78,8.38-2.23,3.09-6.77,4.73-9.97,5.19-2.29,.33-4.03,.47-5.65,.47s-3.12-.15-5.15-.35c-2.26-.22-5.06-.5-9.38-.7-.09,0-.24,0-.44,0-1.64,0-7.19,.24-9.99,3.28-1.2,1.3-1.73,2.92-1.57,4.8,.3,3.57,4.43,7.88,9.11,7.88,4.02,0,7.87-.91,11.6-1.79,3.41-.8,6.64-1.57,9.71-1.57,2.44,0,4.56,.49,6.46,1.51,4.47,2.38,7.34,5.05,7.88,10.96,.39,4.34-.93,13.09-8.76,15.18l-.47,.12c-8.41,2.24-22.47,5.98-23.07,17.95-.28,5.55,3.92,10.78,6.7,14.24,.52,.65,1.12,1.4,1.52,1.96-.1,0-.2,0-.32,0-3.12,0-9.24-1.52-13.29-5.72-2.91-3-4.3-6.88-4.15-11.51,.33-9.95,5.03-15.04,12.51-20.02,2.89-1.92,6.29-3.02,8.13-3.61,.25-.08,.47-.15,.66-.21,.91-.3,1.98-.49,3.01-.68,3.06-.54,6.86-1.22,6.86-5.54,0-2.4-2.07-4.35-4.62-4.35-.66,0-1.34,.13-2,.38-.71,.15-5.76,1.2-14.53,2.23l-.22,.03c-1.11,.13-2.97,.35-5.19,.35-5.82,0-10.67-1.48-14.41-4.39-6.4-4.98-7.57-17.45-2.32-24.72,3.35-4.64,10.41-8.41,16.08-8.58,.73-.02,1.37-.03,1.96-.03,3.74,0,6.73,.44,14.81,1.72,1.13,.18,2.17,.27,3.09,.27,5.01,0,5.76-2.59,5.86-3.71,.18-2.23-1.73-4.69-3.96-5.11l-6.48-1.91c-4.67-1.37-8.22-5.32-9.04-10.04l-.02-.12c-.51-3.08-1.86-3.8-3.56-4.41-.36-.13-.7-.25-1.04-.42-.91-.45-1.14-1.75-1.17-2.76-.15-4.55,3.36-12.19,7.94-14.94,.11-.03,.37-.1,.75-.12,.08,0,.16-.02,.23-.03m.82-2.97l-.8,.79-.8-.79-.53,.17,.91,.9,.11-.04v.79c-.77,.03-1.2,.23-1.2,.23-6.8,3.97-11.33,17.56-6.8,19.83,1.83,.91,3.4,.57,3.97,3.97,0,.04,.01,.09,.02,.13,.91,5.24,4.77,9.47,9.87,10.97l6.54,1.92c3.05,.51,5.64,6.49-1.62,6.49-.84,0-1.8-.08-2.91-.25-8.34-1.32-11.24-1.73-15-1.73-.63,0-1.29,.01-2,.03-5.8,.17-13.27,3.91-17,9.06-5.61,7.77-4.42,20.92,2.55,26.35,4.91,3.82,10.75,4.64,15.13,4.64,2.45,0,4.43-.26,5.55-.39,9.63-1.13,14.73-2.27,14.73-2.27,.58-.23,1.14-.34,1.66-.34,2.01,0,3.44,1.55,3.44,3.17,0,4.53-5.3,3.85-9.06,5.1-1.7,.57-5.67,1.7-9.07,3.97-7.78,5.19-12.69,10.64-13.03,20.96-.48,14.49,13.45,18.45,18.62,18.45,.9,0,1.53-.12,1.78-.32,1.34-1.09-8.9-8.99-8.5-17,.57-11.33,14.68-14.87,22.66-17,8.5-2.27,10.07-11.63,9.63-16.43-.57-6.23-3.61-9.29-8.5-11.9-2.27-1.21-4.61-1.65-7.02-1.65-6.63,0-13.78,3.35-21.31,3.35-3.97,0-7.68-3.76-7.93-6.8-.52-6.3,8.22-6.81,10.38-6.81,.17,0,.3,0,.38,0,8.21,.39,11.02,1.05,14.58,1.05,1.6,0,3.35-.13,5.81-.48,3.65-.52,8.38-2.36,10.77-5.67,2.15-2.99,2.98-5.38,3-9.06,.03-4.59-1.6-8.24-4.13-10.77-1.13-1.13-2.83-2.83-8.5-4.53-2.32-.7-5.65-1.82-6.8-2.83-4.53-3.97-2.27-3.4-1.13-4.53,5.67-4.53-5.1-17.56-6.23-18.13-1.07-.53-1.99-.73-2.72-.78v-.79l.11,.04,.91-.9-.53-.17Z"/><path class="cls-2" d="M463.81,4.96l.53,.17-.91,.9-.11-.04v.79c.73,.05,1.65,.25,2.72,.78,1.13,.57,11.9,13.6,6.23,18.13-1.13,1.13-3.4,.57,1.13,4.53,1.15,1.01,4.48,2.14,6.8,2.83,5.67,1.7,7.37,3.4,8.5,4.53,2.53,2.53,4.16,6.17,4.13,10.77-.02,3.69-.84,6.07-3,9.06-2.38,3.31-7.12,5.15-10.77,5.67-2.46,.35-4.21,.48-5.81,.48-3.56,0-6.38-.66-14.58-1.05-.08,0-.21,0-.38,0-2.16,0-10.91,.51-10.38,6.81,.25,3.04,3.97,6.8,7.93,6.8,7.52,0,14.68-3.35,21.31-3.35,2.41,0,4.75,.44,7.02,1.65,4.89,2.61,7.93,5.67,8.5,11.9,.44,4.8-1.13,14.16-9.63,16.43-7.98,2.13-22.1,5.67-22.66,17-.4,8,9.83,15.9,8.5,17-.25,.2-.88,.32-1.78,.32-5.17,0-19.1-3.97-18.62-18.45,.34-10.32,5.25-15.78,13.03-20.96,3.4-2.27,7.37-3.4,9.06-3.97,3.76-1.25,9.07-.57,9.07-5.1,0-1.62-1.43-3.17-3.44-3.17-.52,0-1.08,.1-1.66,.34,0,0-5.1,1.13-14.73,2.27-1.11,.13-3.1,.39-5.55,.39-4.38,0-10.23-.82-15.13-4.64-6.97-5.42-8.16-18.58-2.55-26.35,3.72-5.16,11.2-8.89,17-9.06,.71-.02,1.37-.03,2-.03,3.75,0,6.66,.42,15,1.73,1.11,.18,2.07,.25,2.91,.25,7.26,0,4.67-5.98,1.62-6.49l-6.54-1.92c-5.1-1.5-8.96-5.74-9.86-10.97,0-.04-.02-.09-.02-.13-.57-3.4-2.14-3.05-3.97-3.97-4.53-2.27,0-15.86,6.8-19.83,0,0,.44-.19,1.2-.23v-.79l-.11,.04-.91-.9,.53-.17,.8,.79,.8-.79Zm0-1.77c-.28,0-.55,.07-.8,.19-.25-.13-.52-.19-.8-.19-.19,0-.37,.03-.55,.09l-.53,.17c-.59,.19-1.03,.68-1.17,1.28-.09,.37-.05,.76,.09,1.1-5.36,3.53-9.11,11.87-8.94,17.29,.11,3.28,1.58,4.7,2.8,5.31,.5,.25,.96,.41,1.36,.56,1.11,.4,1.38,.49,1.65,2.11l.02,.14c1.01,5.83,5.37,10.68,11.11,12.37l6.54,1.92c.07,.02,.14,.04,.21,.05,.77,.13,1.64,1.21,1.58,1.97-.05,.6-1.22,1-2.91,1-.77,0-1.66-.08-2.63-.23-8.26-1.3-11.31-1.75-15.27-1.75-.62,0-1.29,.01-2.05,.03-6.59,.2-14.49,4.41-18.38,9.8-6.19,8.57-4.75,22.83,2.9,28.78,4.27,3.32,9.73,5.01,16.22,5.01,2.4,0,4.36-.23,5.54-.37l.21-.03c9.58-1.13,14.69-2.25,14.91-2.3,.09-.02,.19-.05,.27-.08,.35-.14,.69-.21,1-.21,1,0,1.67,.72,1.67,1.4,0,1.54-.74,1.98-4.42,2.64-1.14,.2-2.31,.41-3.43,.78-.18,.06-.39,.13-.63,.21-1.97,.63-5.63,1.82-8.86,3.97-8.03,5.35-13.45,11.2-13.82,22.38-.18,5.47,1.49,10.06,4.97,13.66,5.06,5.24,12.3,6.62,15.42,6.62,1.37,0,2.3-.23,2.9-.72,.58-.47,1.36-1.56,.09-3.55-.44-.69-1.11-1.52-1.88-2.49-2.5-3.11-6.28-7.81-6.06-12.24,.49-9.82,13.26-13.22,20.88-15.25l.47-.12c9.73-2.6,11.41-13.11,10.94-18.3-.69-7.64-4.94-10.91-9.43-13.3-2.35-1.25-4.92-1.86-7.85-1.86-3.42,0-6.8,.8-10.39,1.64-3.56,.84-7.24,1.71-10.92,1.71-3.17,0-6-3.13-6.17-5.17-.09-1.06,.17-1.87,.8-2.56,1.69-1.84,5.71-2.33,7.82-2.33,.14,0,.24,0,.3,0,4.24,.2,7,.47,9.23,.69,2.04,.2,3.65,.36,5.44,.36s3.63-.15,6.06-.5c3.96-.57,9.18-2.54,11.95-6.38,2.41-3.34,3.31-6.08,3.33-10.09,.03-4.8-1.58-8.96-4.65-12.03-1.25-1.25-3.15-3.15-9.24-4.98-3.72-1.12-5.61-2.01-6.14-2.47-.77-.67-1.27-1.15-1.59-1.49,.15-.11,.31-.23,.47-.38,1.2-.99,2.52-2.82,2.18-6.03-.65-6.17-7.3-14.27-8.79-15.01-.26-.13-.53-.25-.79-.36,.09-.29,.1-.6,.03-.91-.14-.6-.58-1.09-1.17-1.28l-.53-.17c-.18-.06-.37-.09-.55-.09"/><path d="M461.42,16.6c0,1.54-1.25,2.79-2.79,2.79s-2.79-1.25-2.79-2.79,1.25-2.79,2.79-2.79,2.79,1.25,2.79,2.79"/><path d="M470.64,16.6c0,1.54-1.25,2.79-2.79,2.79s-2.79-1.25-2.79-2.79,1.25-2.79,2.79-2.79,2.79,1.25,2.79,2.79"/><polyline class="cls-7" points="481.77 45.01 482.09 43.1 484.23 43.24"/><polyline class="cls-7" points="475.79 38.11 476.1 36.19 478.24 36.32"/><polyline class="cls-7" points="466.25 37 466.5 35.07 468.65 35.14"/><polyline class="cls-7" points="485.69 48.96 487.21 47.87 488.7 49.33"/><polyline class="cls-7" points="477.94 55.17 480.11 55.21 479.82 57.55"/><polyline class="cls-7" points="443.43 59.87 442.97 58.09 440.91 58.2"/><polyline class="cls-7" points="451.27 59.41 451.69 57.52 449.67 56.84"/><polyline class="cls-7" points="469.63 60.42 470.92 58.69 468.93 57.47"/><polyline class="cls-7" points="445.83 75.06 444.23 73.92 442.84 75.57"/><polyline class="cls-7" points="440.06 69.14 438.59 67.94 437.03 69.35"/><polyline class="cls-7" points="461.85 55.14 463.45 53.65 461.66 52.11"/><polyline class="cls-7" points="470.02 82.87 468.74 81.48 470.04 79.84"/><polyline class="cls-7" points="458.85 83.09 457.96 81.44 459.6 80.15"/><polyline class="cls-7" points="447.01 84.02 447.39 82.27 449.4 82.16"/><polyline class="cls-7" points="471.17 97.64 473.11 98.23 472.48 100.37"/><polyline class="cls-7" points="456.12 107.01 458.3 107.05 458 109.39"/><polyline class="cls-7" points="483.1 96.69 482.88 94.88 480.85 94.66"/><polyline class="cls-7" points="466.27 104.25 466.29 102.41 464.29 101.96"/><polyline class="cls-7" points="485.02 81.51 482.91 81.49 483 83.78"/><polyline class="cls-7" points="458.78 117.13 457.74 115.22 455.8 116.57"/><polyline class="cls-7" points="476.33 75.86 474.63 76.72 475.33 78.72"/><polyline class="cls-7" points="489.74 89.25 488.31 88.13 486.71 89.36"/></g></g></g></svg>