<?xml version="1.0" encoding="UTF-8"?><svg xmlns="http://www.w3.org/2000/svg" xmlns:xlink="http://www.w3.org/1999/xlink" viewBox="0 0 452.04 171.28"><defs><style>.cls-1{stroke-width:1.32px;}.cls-1,.cls-2,.cls-3,.cls-4,.cls-5,.cls-6,.cls-7,.cls-8,.cls-9{fill:none;}.cls-1,.cls-2,.cls-3,.cls-5,.cls-6,.cls-7,.cls-8,.cls-9{stroke:#000;}.cls-1,.cls-3,.cls-5,.cls-6,.cls-8,.cls-9{stroke-miterlimit:10;}.cls-10{clip-path:url(#clippath-11);}.cls-11{fill:#fff;}.cls-12{fill:#ffce24;}.cls-13{clip-path:url(#clippath-2);}.cls-14{clip-path:url(#clippath-13);}.cls-15{fill:#a70e19;}.cls-16{isolation:isolate;}.cls-2{stroke-width:.99px;}.cls-2,.cls-3,.cls-7{stroke-linecap:round;}.cls-2,.cls-7{stroke-linejoin:round;}.cls-17{clip-path:url(#clippath-15);}.cls-18{clip-path:url(#clippath-6);}.cls-3,.cls-6,.cls-7{stroke-width:1.21px;}.cls-19{fill:#84ccb0;}.cls-20{clip-path:url(#clippath-7);}.cls-21{clip-path:url(#clippath-1);}.cls-22{clip-path:url(#clippath-4);}.cls-23{mix-blend-mode:hard-light;}.cls-24{fill:#f686b0;}.cls-25{clip-path:url(#clippath-12);}.cls-26{mix-blend-mode:screen;}.cls-27{clip-path:url(#clippath-9);}.cls-28{clip-path:url(#clippath);}.cls-5{stroke-width:.61px;}.cls-29{clip-path:url(#clippath-3);}.cls-30{mix-blend-mode:soft-light;opacity:.58;}.cls-31{clip-path:url(#clippath-8);}.cls-8{stroke-width:.77px;}.cls-32{clip-path:url(#clippath-14);}.cls-33{clip-path:url(#clippath-5);}.cls-34{fill:#84c2a9;}.cls-9{stroke-width:.68px;}.cls-35{clip-path:url(#clippath-10);}.cls-36{fill:#f2f2f2;}.cls-37{fill:#840b19;}</style><clipPath id="clippath"><rect class="cls-4" y="21" width="101" height="59.83"/></clipPath><clipPath id="clippath-1"><rect class="cls-4" y="21" width="101" height="59.83"/></clipPath><clipPath id="clippath-2"><rect class="cls-4" x="202" y="5" width="86" height="166.28"/></clipPath><clipPath id="clippath-3"><rect class="cls-4" x="202" y="5" width="86" height="166.28"/></clipPath><clipPath id="clippath-4"><rect class="cls-4" x="202" y="5" width="86" height="166.28"/></clipPath><clipPath id="clippath-5"><rect class="cls-4" x="226.65" y="45.96" width="15.2" height="33.94"/></clipPath><clipPath id="clippath-6"><rect class="cls-4" x="226.65" y="45.96" width="15.2" height="33.94"/></clipPath><clipPath id="clippath-7"><rect class="cls-4" x="223.49" y="33.45" width="36.03" height="25.85"/></clipPath><clipPath id="clippath-8"><rect class="cls-4" x="224.79" y="73.92" width="11.52" height="4.98"/></clipPath><clipPath id="clippath-9"><rect class="cls-4" x="100" y="3" width="96.71" height="96.71"/></clipPath><clipPath id="clippath-10"><rect class="cls-4" x="100" y="3" width="96.71" height="96.71"/></clipPath><clipPath id="clippath-11"><rect class="cls-4" x="299" y="9" width="84" height="88.36"/></clipPath><clipPath id="clippath-12"><rect class="cls-4" x="299" y="9" width="84" height="88.36"/></clipPath><clipPath id="clippath-13"><rect class="cls-4" x="299" y="9" width="84" height="88.36"/></clipPath><clipPath id="clippath-14"><rect class="cls-4" x="398" width="54.04" height="117"/></clipPath><clipPath id="clippath-15"><rect class="cls-4" x="398" width="54.04" height="117"/></clipPath></defs><g class="cls-16"><g id="Layer_1"><g id="Artwork_20"><g class="cls-28"><g class="cls-21"><path class="cls-19" d="M97.4,35.35c-1.52-5.8-23.75-3.15-49.65,5.91-8.49,2.97-16.32,6.26-22.95,9.54-13.62,6.74-22.22,13.46-21.2,17.36,1.52,5.8,23.75,3.15,49.65-5.91,25.9-9.06,45.67-21.1,44.15-26.9m-45.28,21.42c-20.76,7.26-38.2,10.84-38.95,7.99-.75-2.85,15.48-11.05,36.24-18.32,20.76-7.26,38.2-10.84,38.95-7.99,.75,2.85-15.48,11.05-36.24,18.32"/><path class="cls-1" d="M97.4,35.35c-1.52-5.8-23.75-3.15-49.65,5.91-8.49,2.97-16.32,6.26-22.95,9.54-13.62,6.74-22.22,13.46-21.2,17.36,1.52,5.8,23.75,3.15,49.65-5.91,25.9-9.06,45.67-21.1,44.15-26.9Zm-45.28,21.42c-20.76,7.26-38.2,10.84-38.95,7.99-.75-2.85,15.48-11.05,36.24-18.32,20.76-7.26,38.2-10.84,38.95-7.99,.75,2.85-15.48,11.05-36.24,18.32Z"/><path class="cls-11" d="M88.55,32.27c5.09,0,8.3,.99,8.84,3.07,1.52,5.8-18.25,17.84-44.15,26.9-16.61,5.81-31.71,8.98-40.8,8.98-5.09,0-8.3-.99-8.84-3.07-1.02-3.9,7.58-10.62,21.2-17.36,6.64-3.29,14.47-6.58,22.95-9.54,16.61-5.81,31.71-8.98,40.8-8.98M16.25,65.74c5.99,0,19.95-3.4,35.87-8.97,20.76-7.26,36.99-15.46,36.24-18.32-.17-.66-1.26-.98-3.08-.98-5.99,0-19.95,3.4-35.87,8.97-20.76,7.26-36.99,15.46-36.24,18.32,.17,.66,1.26,.98,3.08,.98M88.55,28.75c-9.85,0-25.53,3.43-41.97,9.18-8.32,2.91-16.4,6.27-23.35,9.71C6.4,55.97-1.35,63.17,.19,69.05c1.49,5.7,9.6,5.7,12.26,5.7,9.85,0,25.53-3.43,41.97-9.18,5.11-1.79,49.87-17.86,46.4-31.13-1.49-5.7-9.59-5.7-12.26-5.7M22.89,61.41c5.63-3,14.86-7.15,27.69-11.64,11.94-4.18,21.63-6.76,28.07-7.97-5.63,3-14.86,7.15-27.69,11.64-11.94,4.18-21.63,6.76-28.07,7.97"/><path class="cls-24" d="M76.25,50.91c0,14.57-11.82,26.39-26.39,26.39s-26.39-11.81-26.39-26.39,11.82-26.39,26.39-26.39,26.39,11.81,26.39,26.39"/><path class="cls-1" d="M76.25,50.91c0,14.57-11.82,26.39-26.39,26.39s-26.39-11.81-26.39-26.39,11.82-26.39,26.39-26.39,26.39,11.81,26.39,26.39Z"/><path class="cls-1" d="M76.25,50.91c0,14.57-11.82,26.39-26.39,26.39s-26.39-11.81-26.39-26.39,11.82-26.39,26.39-26.39,26.39,11.81,26.39,26.39Z"/><path class="cls-11" d="M49.86,24.53c14.57,0,26.39,11.82,26.39,26.39s-11.81,26.39-26.39,26.39-26.39-11.82-26.39-26.39,11.81-26.39,26.39-26.39m0-3.53c-16.49,0-29.91,13.42-29.91,29.91s13.42,29.92,29.91,29.92,29.91-13.42,29.91-29.92-13.42-29.91-29.91-29.91"/><path class="cls-24" d="M76.25,50.9c0,14.57-11.82,26.39-26.39,26.39s-26.39-11.81-26.39-26.39,11.82-26.39,26.39-26.39,26.39,11.81,26.39,26.39"/><path class="cls-1" d="M76.25,50.9c0,14.57-11.82,26.39-26.39,26.39s-26.39-11.81-26.39-26.39,11.82-26.39,26.39-26.39,26.39,11.81,26.39,26.39Z"/><path class="cls-1" d="M76.25,50.9c0,14.57-11.82,26.39-26.39,26.39s-26.39-11.81-26.39-26.39,11.82-26.39,26.39-26.39,26.39,11.81,26.39,26.39Z"/><path class="cls-19" d="M96.7,35.32c-1.52-5.8-23.75-3.15-49.65,5.91-8.49,2.97-16.32,6.26-22.95,9.54-13.62,6.74-22.22,13.46-21.2,17.36,1.52,5.8,23.75,3.15,49.65-5.91,25.9-9.06,45.67-21.1,44.15-26.9m-45.28,21.42c-20.76,7.26-38.2,10.84-38.95,7.99-.75-2.85,15.48-11.05,36.24-18.32,20.76-7.26,38.2-10.84,38.95-7.99,.75,2.85-15.48,11.05-36.24,18.32"/><path class="cls-1" d="M96.7,35.32c-1.52-5.8-23.75-3.15-49.65,5.91-8.49,2.97-16.32,6.26-22.95,9.54-13.62,6.74-22.22,13.46-21.2,17.36,1.52,5.8,23.75,3.15,49.65-5.91,25.9-9.06,45.67-21.1,44.15-26.9Zm-45.28,21.42c-20.76,7.26-38.2,10.84-38.95,7.99-.75-2.85,15.48-11.05,36.24-18.32,20.76-7.26,38.2-10.84,38.95-7.99,.75,2.85-15.48,11.05-36.24,18.32Z"/><path class="cls-24" d="M25.36,60.67c-5.36-13.55,1.28-28.88,14.83-34.25,13.55-5.36,28.88,1.28,34.24,14.83"/><path class="cls-1" d="M25.36,60.67c-5.36-13.55,1.28-28.88,14.83-34.25,13.55-5.36,28.88,1.28,34.24,14.83"/></g></g></g><g id="Artwork_24"><g class="cls-13"><g class="cls-29"><g class="cls-22"><path class="cls-15" d="M209.83,169.46c-.36,0-.72-.04-1.07-.13l-1.61-.4c-2.35-.59-3.79-2.98-3.21-5.33l21.51-86.37c-8.65-8.34-19.11-32.39-20.2-38.14-1.56-8.25-2.41-18.63,4.92-25.68,1.63-1.57,3.66-2.92,5.88-3.93,2.98-1.76,6.26-2.65,9.77-2.65,1.65,0,3.38,.2,5.13,.59,7.75,1.74,13.22,7.26,16.26,16.4,.15,.45,.3,1.01,.47,1.69,3.55-2.6,8.8-5.82,14.35-7,1.23-.43,2.66-.64,4.25-.64,8.02,0,19.89,5.84,19.89,18.37,0,7.27-1.29,11.48-5.32,17.33-1.49,2.16-6.97,8.67-11.71,11.93-17.55,12.1-29.21,16.03-34.29,17.27l-20.76,83.36c-.49,1.96-2.24,3.34-4.27,3.34h0Z"/><path class="cls-11" d="M225.83,8.64c1.44,0,3.02,.16,4.73,.55,7.12,1.6,12.13,6.75,14.93,15.19,.35,1.04,.69,2.68,1.01,4.33,3.32-2.71,9.49-7.1,16.03-8.46,1.07-.38,2.35-.58,3.75-.58,7.37,0,18.07,5.34,18.07,16.55,0,6.8-1.12,10.67-5,16.3-1.25,1.81-6.59,8.26-11.24,11.47-18.88,13.02-30.79,16.41-34.75,17.25l-21.03,84.45c-.29,1.17-1.34,1.96-2.5,1.96-.21,0-.42-.02-.63-.08l-1.61-.4c-1.38-.34-2.22-1.74-1.88-3.13l21.77-87.42c-8.21-7.01-19.35-32.08-20.44-37.86-1.69-8.95-1.89-17.99,4.4-24.03,1.45-1.4,3.33-2.67,5.46-3.63,2.14-1.28,5.07-2.45,8.92-2.45m0-3.64h0c-3.8,0-7.37,.96-10.61,2.86-2.37,1.09-4.55,2.55-6.3,4.24-8.06,7.74-6.97,19.31-5.45,27.33,1.08,5.72,11.24,29.12,19.98,38.35l-21.27,85.38c-.83,3.33,1.2,6.71,4.53,7.54l1.61,.4c.49,.12,1,.18,1.5,.18,2.86,0,5.34-1.94,6.03-4.72l20.5-82.31c5.68-1.54,17.18-5.79,33.82-17.27,5.22-3.6,10.83-10.45,12.17-12.4,4.22-6.13,5.64-10.76,5.64-18.36,0-13.77-12.96-20.19-21.71-20.19-1.74,0-3.33,.24-4.73,.71-4.73,1.03-9.18,3.36-12.84,5.81-3.27-9.25-9.25-15.09-17.36-16.91-1.88-.42-3.74-.64-5.53-.64"/><path class="cls-37" d="M231.89,81.49s12.71-1.29,36.23-17.5c4.65-3.21,10-9.66,11.24-11.47,3.88-5.63,5-9.5,5-16.3,0-13.8-16.24-18.71-22.49-15.69"/><path class="cls-3" d="M231.89,81.49s12.71-1.29,36.23-17.5c4.65-3.21,10-9.66,11.24-11.47,3.88-5.63,5-9.5,5-16.3,0-13.8-16.24-18.71-22.49-15.69"/><path class="cls-11" d="M207.6,167.16l1.61,.4c1.38,.34,2.78-.5,3.13-1.88l28.82-115.69c.34-1.38-.5-2.78-1.88-3.13l-1.61-.4c-1.38-.34-2.78,.5-3.13,1.88l-28.82,115.69c-.34,1.38,.5,2.78,1.88,3.13"/><path class="cls-6" d="M207.6,167.16l1.61,.4c1.38,.34,2.78-.5,3.13-1.88l28.82-115.69c.34-1.38-.5-2.78-1.88-3.13l-1.61-.4c-1.38-.34-2.78,.5-3.13,1.88l-28.82,115.69c-.34,1.38,.5,2.78,1.88,3.13Z"/><path class="cls-6" d="M211.88,166.65c-.2,.79-1.48,.93-3.45,.44-1.97-.49-2.84-1.39-2.64-2.18,.2-.79,1.53-1.13,3.5-.64,1.97,.49,2.79,1.59,2.59,2.38Z"/><path class="cls-37" d="M214,13.18c2.49-2.06,7.68-5.99,16.57-4,7.12,1.6,12.13,6.75,14.93,15.19,.57,1.71,1.14,5.01,1.56,7.37"/><path class="cls-3" d="M214,13.18c2.49-2.06,7.68-5.99,16.57-4,7.12,1.6,12.13,6.75,14.93,15.19,.57,1.71,1.14,5.01,1.56,7.37"/><path class="cls-15" d="M243.96,30.94s12.32-12.03,23.75-11.05c3.81,.33,8.16,1.69,10.64,6.24,5.82,10.65,1.36,20.4-3.45,26.75-2.94,3.89-6.62,7.17-10.73,9.79-7.93,5.06-26.99,16.68-33.37,15.73-8.13-1.2-22.51-33.04-23.76-39.65-1.69-8.95-1.89-17.99,4.4-24.03,5.63-5.41,17.51-9.01,26.89,.6,0,0,4.38,4.21,5.63,15.62"/><path class="cls-6" d="M243.96,30.94s12.32-12.03,23.75-11.05c3.81,.33,8.16,1.69,10.64,6.24,5.82,10.65,1.36,20.4-3.45,26.75-2.94,3.89-6.62,7.17-10.73,9.79-7.93,5.06-26.99,16.68-33.37,15.73-8.13-1.2-22.51-33.04-23.76-39.65-1.69-8.95-1.89-17.99,4.4-24.03,5.63-5.41,17.51-9.01,26.89,.6,0,0,4.38,4.21,5.63,15.62Z"/><g class="cls-26"><g class="cls-33"><path class="cls-15" d="M241.21,49.06c-.22-.42-.74-1.24-1.73-1.84-.37-.23-1.13-.67-2.21-.66-1.08,.01-1.86,.48-2.16,.69l-7.81,29.18s2.68,5.14,7.02,1.61l6.89-28.99Z"/><g class="cls-23"><g class="cls-18"><path class="cls-3" d="M241.21,49.06c-.22-.42-.74-1.24-1.73-1.84-.37-.23-1.13-.67-2.21-.66-1.08,.01-1.86,.48-2.16,.69l-7.81,29.18s2.68,5.14,7.02,1.61l6.89-28.99Z"/></g></g></g></g><g class="cls-30"><g class="cls-20"><rect x="223.45" y="36.51" width="9.1" height=".33" transform="translate(16.84 130.17) rotate(-33.02)"/><rect class="cls-5" x="223.45" y="36.51" width="9.1" height=".33" transform="translate(16.84 130.17) rotate(-33.02)"/><rect x="241.03" y="53.14" width="19.35" height=".31" transform="translate(11.42 145.13) rotate(-33)"/><rect class="cls-5" x="241.03" y="53.14" width="19.35" height=".31" transform="translate(11.42 145.13) rotate(-33)"/><rect x="222.82" y="45.26" width="30.86" height=".68" transform="translate(13.69 137.34) rotate(-33.06)"/><rect class="cls-5" x="222.82" y="45.26" width="30.86" height=".68" transform="translate(13.69 137.34) rotate(-33.06)"/><rect x="223.45" y="36.51" width="9.1" height=".33" transform="translate(16.84 130.17) rotate(-33.02)"/><rect x="241.03" y="53.14" width="19.35" height=".31" transform="translate(11.42 145.13) rotate(-33)"/><rect x="222.82" y="45.26" width="30.86" height=".68" transform="translate(13.69 137.34) rotate(-33.06)"/><rect class="cls-7" x="223.45" y="36.51" width="9.1" height=".33" transform="translate(16.84 130.17) rotate(-33.02)"/><rect class="cls-7" x="241.03" y="53.14" width="19.35" height=".31" transform="translate(11.42 145.13) rotate(-33)"/><rect class="cls-7" x="222.82" y="45.26" width="30.86" height=".68" transform="translate(13.69 137.34) rotate(-33.06)"/></g></g><g class="cls-23"><g class="cls-31"><path class="cls-3" d="M225.4,74.53s3.64,5.58,10.31,3.15"/></g></g></g></g></g></g><g id="Artwork_18"><g class="cls-27"><g class="cls-35"><path class="cls-11" d="M188.34,56.72c-.09-3.17-.89-17.98-10.83-30.17-2.9-3.56-5.24-5.21-6.96-6.19-4.05-2.31-7.67-2.65-13.15-3.09-5.19-.42-10.72-.88-17.79,.77-3.47,.81-8.9,2.13-14.7,6.19-6.29,4.41-9.8,9.8-11.61,13.15-2.21,4.01-3.3,7.59-3.87,10.06-.72,3.13-1.5,6.51-.77,10.83,.23,1.35,.86,4.9,3.27,8.4,.4,.58,2.03,2.93,5.04,5.14,3.96,2.91,7.84,3.76,10.26,4.26,0,0,4.86,1.01,13.93,0,1.42-.16,2.6-.45,2.6-.45,.65-.15,1.16-.3,1.58-.45,.82-.28,1.51-.48,2.01-.66,0,0-.74,6.54,2.51,9.88,1.63,1.67,4.29,1.91,6.22,.61,1.71-1.14,3.63-3.46,4.42-8.17,0,0,0,8.51,5.42,8.51s6.52-10.06,6.52-10.06c.05,.62,.35,3.47,2.76,5.42,.53,.43,2.42,1.96,4.64,1.55,2.37-.44,3.66-2.82,4.64-4.64,.79-1.47,1.17-2.82,1.37-3.74,.26-.79,.61-1.89,.95-3.22,.2-.78,1.74-6.87,1.55-13.93"/><path class="cls-8" d="M188.34,56.72c-.09-3.17-.89-17.98-10.83-30.17-2.9-3.56-5.24-5.21-6.96-6.19-4.05-2.31-7.67-2.65-13.15-3.09-5.19-.42-10.72-.88-17.79,.77-3.47,.81-8.9,2.13-14.7,6.19-6.29,4.41-9.8,9.8-11.61,13.15-2.21,4.01-3.3,7.59-3.87,10.06-.72,3.13-1.5,6.51-.77,10.83,.23,1.35,.86,4.9,3.27,8.4,.4,.58,2.03,2.93,5.04,5.14,3.96,2.91,7.84,3.76,10.26,4.26,0,0,4.86,1.01,13.93,0,1.42-.16,2.6-.45,2.6-.45,.65-.15,1.16-.3,1.58-.45,.82-.28,1.51-.48,2.01-.66,0,0-.74,6.54,2.51,9.88,1.63,1.67,4.29,1.91,6.22,.61,1.71-1.14,3.63-3.46,4.42-8.17,0,0,0,8.51,5.42,8.51s6.52-10.06,6.52-10.06c.05,.62,.35,3.47,2.76,5.42,.53,.43,2.42,1.96,4.64,1.55,2.37-.44,3.66-2.82,4.64-4.64,.79-1.47,1.17-2.82,1.37-3.74,.26-.79,.61-1.89,.95-3.22,.2-.78,1.74-6.87,1.55-13.93Z"/><path class="cls-8" d="M112.52,44.34c-1.55,.77-8.51,21.66,10.83,28.63"/><path d="M154.3,56.72c-.66,6.64-2.12,10.25-6.19,10.83-5.42,.77-9.39-5.76-8.51-12.38,.88-6.62,5.64-12.09,9.71-11.55,4.07,.54,5.76,5.36,4.99,13.1"/><path class="cls-8" d="M154.3,56.72c-.66,6.64-2.12,10.25-6.19,10.83-5.42,.77-9.39-5.76-8.51-12.38,.88-6.62,5.64-12.09,9.71-11.55,4.07,.54,5.76,5.36,4.99,13.1Z"/><path d="M170.54,55.18c.74,5.56,4.27,8.92,7.63,8.47,3.36-.45,5.49-6.01,4.75-11.57-.74-5.56-4.07-9.02-7.43-8.57-3.36,.45-5.69,6.11-4.95,11.67"/><path class="cls-8" d="M170.54,55.18c.74,5.56,4.27,8.92,7.63,8.47,3.36-.45,5.49-6.01,4.75-11.57-.74-5.56-4.07-9.02-7.43-8.57-3.36,.45-5.69,6.11-4.95,11.67Z"/><path class="cls-8" d="M149.31,43.63s1.24,.26,2.57,.63c1.96,.55,3.19,1.63,4.41,3.82,.98,1.76,1.46,5.42,1.1,9.42-.77,8.51-4.64,10.06-4.64,10.06"/><path class="cls-8" d="M175.49,43.51s4.68-.96,7.43,3.16c3.09,4.64,2.32,15.47-.77,17.02"/><path class="cls-8" d="M161.76,66.48s-.05-.02-.07-.02c-1.33-.44-2.03-1.88-1.58-3.21,.5-1.47,1.61-3.5,4.13-5.2,.61-.41,1.36-.55,2.07-.36,1.6,.43,4.25,1.75,4.29,5.85,.02,1.47-1.24,2.64-2.7,2.52-.38-.03-.76-.11-1.12-.26-.66-.27-1.4-.31-2.04,.01l-1.05,.52c-.59,.3-1.29,.34-1.92,.14Z"/><path d="M166.67,58.27c.47,.16,3.87,4.64,1.55,5.42-3.16,1.05-2.94-1.04-2.94-1.04,.1,1.24-1.69,1.93-3.11,2.28-.97,.24-1.9-.53-1.84-1.53,.13-2.04,4.02-5.9,6.34-5.13"/><path class="cls-8" d="M166.67,58.27c.47,.16,3.87,4.64,1.55,5.42-3.16,1.05-2.94-1.04-2.94-1.04,.1,1.24-1.69,1.93-3.11,2.28-.97,.24-1.9-.53-1.84-1.53,.13-2.04,4.02-5.9,6.34-5.13Z"/><path class="cls-19" d="M116.39,45.89c.33-.08,2.26-.41,3.09-1.55,.7-.96,.77-2.73,.77-3.09,0,.38,.06,2.16,.77,3.09,1.1,1.46,2.85,1.54,3.09,1.55-.24-.01-1.35-.05-2.32,.77-1.07,.91-1.54,2.89-1.55,3.09,0-.21-.47-2.18-1.55-3.09-.97-.82-2.08-.79-2.32-.77"/><path class="cls-8" d="M116.39,45.89c.33-.08,2.26-.41,3.09-1.55,.7-.96,.77-2.73,.77-3.09,0,.38,.06,2.16,.77,3.09,1.1,1.46,2.85,1.54,3.09,1.55-.24-.01-1.35-.05-2.32,.77-1.07,.91-1.54,2.89-1.55,3.09,0-.21-.47-2.18-1.55-3.09-.97-.82-2.08-.79-2.32-.77Z"/><path class="cls-24" d="M126.58,53.16c-.01,.43-.13,3.18-2.46,5.11-1.93,1.6-4.1,2.34-4.64,2.32,.7,.1,2.84,.49,4.64,2.32,2.13,2.16,2.3,4.79,2.32,5.42,.06-.91,.3-2.77,1.55-4.64,1.85-2.78,5.4-2.88,6.19-3.09-.43,.15-1.93-.45-2.79-.6-1.38-.25-2.18-1.24-2.63-1.72-1.91-2.04-2.14-4.42-2.19-5.11"/><path class="cls-8" d="M126.58,53.16c-.01,.43-.13,3.18-2.46,5.11-1.93,1.6-4.1,2.34-4.64,2.32,.7,.1,2.84,.49,4.64,2.32,2.13,2.16,2.3,4.79,2.32,5.42,.06-.91,.3-2.77,1.55-4.64,1.85-2.78,5.4-2.88,6.19-3.09-.43,.15-1.93-.45-2.79-.6-1.38-.25-2.18-1.24-2.63-1.72-1.91-2.04-2.14-4.42-2.19-5.11Z"/><path class="cls-8" d="M124.9,73.74c1.44,.58,3.32,.97,5.42,.77"/></g></g></g><g id="Artwork_27"><g class="cls-10"><g class="cls-25"><path class="cls-11" d="M323.51,80.73c3.81-2.58,7.78-7.24,11.01-12.02-1.13,5.65-1.65,11.75-.8,16.26,1.77,9.47,6.76,12.99,13.01,12.3,6.22-.93,10.15-5.59,9.44-15.2-.34-4.61-2.44-10.38-4.98-15.57,4.36,3.82,9.41,7.34,13.77,8.87,9.11,3.21,14.66,.65,17.18-5.09,2.31-5.84,.22-11.56-8.47-15.76-4.17-2.01-10.23-3.12-16.01-3.51,5.49-1.85,11.07-4.43,14.59-7.43,7.34-6.27,7.89-12.33,4.17-17.4-3.91-4.91-9.92-5.97-17.91-.56-3.81,2.58-7.78,7.24-11.01,12.02,1.13-5.65,1.65-11.75,.8-16.26-1.77-9.47-6.76-12.99-13.01-12.3-6.23,.92-10.15,5.59-9.44,15.2,.34,4.61,2.43,10.38,4.98,15.57-4.36-3.82-9.41-7.33-13.77-8.87-9.11-3.21-14.65-.66-17.19,5.09-2.31,5.83-.22,11.56,8.47,15.75,4.17,2.01,10.23,3.12,16.01,3.51-5.5,1.85-11.08,4.43-14.59,7.43-7.34,6.27-7.9,12.33-4.18,17.39,3.91,4.91,9.92,5.97,17.92,.56"/><path class="cls-9" d="M323.51,80.73c3.81-2.58,7.78-7.24,11.01-12.02-1.13,5.65-1.65,11.75-.8,16.26,1.77,9.47,6.76,12.99,13.01,12.3,6.22-.93,10.15-5.59,9.44-15.2-.34-4.61-2.44-10.38-4.98-15.57,4.36,3.82,9.41,7.34,13.77,8.87,9.11,3.21,14.66,.65,17.18-5.09,2.31-5.84,.22-11.56-8.47-15.76-4.17-2.01-10.23-3.12-16.01-3.51,5.49-1.85,11.07-4.43,14.59-7.43,7.34-6.27,7.89-12.33,4.17-17.4-3.91-4.91-9.92-5.97-17.91-.56-3.81,2.58-7.78,7.24-11.01,12.02,1.13-5.65,1.65-11.75,.8-16.26-1.77-9.47-6.76-12.99-13.01-12.3-6.23,.92-10.15,5.59-9.44,15.2,.34,4.61,2.43,10.38,4.98,15.57-4.36-3.82-9.41-7.33-13.77-8.87-9.11-3.21-14.65-.66-17.19,5.09-2.31,5.83-.22,11.56,8.47,15.75,4.17,2.01,10.23,3.12,16.01,3.51-5.5,1.85-11.08,4.43-14.59,7.43-7.34,6.27-7.9,12.33-4.18,17.39,3.91,4.91,9.92,5.97,17.92,.56"/></g><g class="cls-14"><path class="cls-12" d="M337.62,61.29c-4.49-1.87-6.61-7.01-4.74-11.49,1.87-4.48,7.03-6.59,11.52-4.73,4.49,1.86,6.61,7.01,4.74,11.49-1.87,4.48-7.03,6.6-11.52,4.73"/><path class="cls-9" d="M337.62,61.29c-4.49-1.87-6.61-7.01-4.74-11.49,1.87-4.48,7.03-6.59,11.52-4.73,4.49,1.86,6.61,7.01,4.74,11.49-1.87,4.48-7.03,6.6-11.52,4.73"/></g></g></g><g id="Artwork_54"><g class="cls-32"><g class="cls-17"><path class="cls-34" d="M428.65,115.52c-2.81,0-8.31-1.37-11.96-5.14-2.63-2.72-3.9-6.23-3.76-10.41,.3-8.89,4.48-13.42,11.13-17.86,2.57-1.72,5.59-2.69,7.21-3.21,.21-.07,.4-.13,.57-.18,.83-.28,1.78-.45,2.7-.61,2.59-.46,5.53-.98,5.53-4.3,0-1.79-1.56-3.25-3.49-3.25-.52,0-1.06,.11-1.59,.31-.45,.1-4.88,1.03-12.74,1.96l-.19,.02c-.98,.12-2.61,.31-4.58,.31-5.19,0-9.52-1.32-12.87-3.93-5.77-4.49-6.84-15.72-2.12-22.26,3-4.16,9.33-7.54,14.41-7.69,.61-.02,1.18-.03,1.73-.03,3.3,0,5.91,.39,12.98,1.5,.96,.15,1.83,.23,2.61,.23,3.92,0,4.5-1.91,4.57-2.74,.14-1.7-1.33-3.58-3.04-3.88l-5.67-1.67c-4.26-1.25-7.5-4.85-8.24-9.17l-.02-.11c-.43-2.59-1.56-2.99-2.76-3.42-.31-.11-.64-.23-.96-.39-1.02-.51-1.28-1.84-1.31-2.87-.13-4.12,3.06-11.06,7.23-13.51,.08-.03,.38-.13,.85-.15,.09,0,.17-.03,.24-.07,.07,.05,.15,.07,.24,.08,.71,.05,1.44,.26,2.18,.63,.69,.41,6.23,7.05,6.56,11.7,.1,1.45-.3,2.52-1.23,3.26-.01,.01-.03,.02-.04,.04-.17,.17-.39,.29-.61,.41-.38,.21-.85,.47-.91,1.01-.07,.6,.33,1.32,2.52,3.25,1.06,.93,3.9,1.91,6.1,2.57,4.81,1.44,6.25,2.88,7.19,3.82,2.28,2.28,3.47,5.4,3.45,9.02-.02,3.06-.68,5.05-2.52,7.61-2.04,2.83-6.14,4.32-9.04,4.73-2.02,.29-3.56,.42-4.99,.42s-2.75-.13-4.54-.3c-1.96-.19-4.4-.43-8.14-.61-.07,0-.2,0-.36,0-.97,0-5.95,.13-8.3,2.68-.94,1.02-1.35,2.29-1.23,3.78,.24,2.87,3.7,6.37,7.4,6.37,3.44,0,6.76-.78,9.97-1.54,3-.71,5.84-1.38,8.58-1.38,2.22,0,4.14,.45,5.88,1.38,3.93,2.1,6.65,4.59,7.14,9.97,.36,3.93-.86,11.87-8.02,13.78l-.41,.11c-7.18,1.91-19.19,5.11-19.69,15.14-.23,4.63,3.35,9.08,5.72,12.03,.77,.95,1.62,2.02,1.77,2.45-.16,.05-.51,.13-1.14,.13h0Z"/><path d="M425.08,3.53c.07,.02,.14,.03,.21,.04,.63,.04,1.29,.23,1.96,.56,.86,.64,6.21,7.18,6.34,11.54,.04,1.16-.31,2.01-1.05,2.61-.03,.02-.06,.05-.08,.07-.12,.12-.3,.22-.5,.33-.43,.23-1.07,.59-1.16,1.39-.1,.91,.55,1.8,2.69,3.67,.9,.79,3.02,1.69,6.29,2.67,4.69,1.41,6.07,2.79,6.99,3.7,2.18,2.18,3.33,5.18,3.31,8.67-.02,2.94-.65,4.86-2.42,7.32-1.95,2.71-5.91,4.13-8.71,4.53-2,.29-3.51,.41-4.92,.41s-2.72-.13-4.49-.3c-1.96-.19-4.41-.43-8.16-.61-.08,0-.21,0-.38,0-1.42,0-6.24,.21-8.67,2.84-1.03,1.12-1.49,2.52-1.36,4.15,.26,3.09,3.83,6.82,7.89,6.82,3.49,0,6.85-.79,10.09-1.55,2.97-.7,5.78-1.36,8.46-1.36,2.13,0,3.98,.43,5.65,1.32,3.9,2.08,6.41,4.41,6.88,9.58,.34,3.79-.81,11.44-7.66,13.26l-.41,.11c-7.31,1.94-19.54,5.2-20.06,15.59-.24,4.81,3.41,9.36,5.83,12.37,.47,.59,1.02,1.27,1.36,1.77-.1,0-.22,0-.35,0-2.72,0-8.06-1.33-11.61-4.99-2.54-2.62-3.76-6.01-3.62-10.05,.29-8.68,4.39-13.12,10.91-17.46,2.52-1.68,5.49-2.64,7.09-3.15,.21-.07,.4-.13,.57-.19,.8-.27,1.73-.43,2.63-.59,2.65-.47,5.94-1.05,5.94-4.78,0-2.07-1.79-3.75-3.98-3.75-.57,0-1.15,.11-1.73,.33-.61,.13-5,1.04-12.66,1.94l-.19,.02c-.97,.11-2.58,.31-4.52,.31-5.08,0-9.3-1.29-12.57-3.83-5.59-4.34-6.61-15.24-2.03-21.58,2.92-4.05,9.08-7.34,14.03-7.48,.64-.02,1.2-.03,1.71-.03,3.26,0,5.86,.38,12.9,1.5,.98,.15,1.88,.23,2.69,.23,4.33,0,4.98-2.23,5.06-3.19,.16-1.92-1.49-4.05-3.42-4.41l-5.64-1.66c-4.08-1.2-7.18-4.65-7.9-8.78l-.02-.11c-.48-2.88-1.86-3.37-3.08-3.81-.31-.11-.61-.22-.91-.37-.81-.4-1.01-1.55-1.04-2.44-.13-3.98,2.93-10.65,6.94-13.05,.09-.03,.32-.09,.67-.11,.07,0,.14-.01,.21-.03m.71-2.54l-.7,.69-.7-.69-.46,.15,.79,.78,.1-.03v.68c-.67,.03-1.05,.2-1.05,.2-5.92,3.45-9.87,15.29-5.92,17.27,1.59,.8,2.96,.49,3.45,3.45,0,.04,.01,.08,.02,.12,.79,4.56,4.15,8.25,8.59,9.55l5.7,1.68c2.65,.44,4.91,5.65-1.41,5.65-.73,0-1.57-.07-2.53-.22-7.26-1.15-9.79-1.51-13.06-1.51-.55,0-1.12,.01-1.74,.03-5.05,.15-11.56,3.4-14.8,7.89-4.88,6.76-3.85,18.22,2.22,22.94,4.27,3.32,9.36,4.04,13.18,4.04,2.13,0,3.86-.22,4.83-.34,8.39-.99,12.83-1.97,12.83-1.97,.51-.2,.99-.29,1.45-.29,1.75,0,2.99,1.35,2.99,2.76,0,3.95-4.62,3.35-7.89,4.44-1.48,.49-4.93,1.48-7.89,3.45-6.78,4.52-11.05,9.26-11.35,18.25-.42,12.61,11.71,16.07,16.21,16.07,.78,0,1.33-.1,1.55-.28,1.16-.95-7.75-7.83-7.4-14.8,.49-9.87,12.78-12.95,19.73-14.8,7.4-1.97,8.77-10.12,8.39-14.31-.49-5.43-3.14-8.09-7.4-10.36-1.97-1.05-4.01-1.44-6.11-1.44-5.77,0-12,2.92-18.55,2.92-3.45,0-6.69-3.27-6.91-5.92-.46-5.48,7.16-5.93,9.04-5.93,.15,0,.26,0,.33,0,7.15,.34,9.6,.92,12.7,.92,1.39,0,2.92-.12,5.06-.42,3.17-.45,7.3-2.05,9.37-4.93,1.88-2.61,2.59-4.68,2.61-7.89,.02-4-1.39-7.17-3.6-9.37-.99-.99-2.47-2.47-7.4-3.95-2.02-.61-4.92-1.59-5.92-2.47-3.95-3.45-1.97-2.96-.99-3.95,4.93-3.95-4.44-15.29-5.43-15.79-.93-.47-1.73-.64-2.37-.68v-.69l.1,.03,.79-.78-.46-.15Z"/><path class="cls-36" d="M425.79,.99l.46,.15-.79,.78-.1-.03v.69c.64,.04,1.44,.22,2.37,.68,.99,.49,10.36,11.84,5.43,15.79-.99,.99-2.96,.49,.99,3.95,1,.88,3.9,1.86,5.92,2.47,4.93,1.48,6.41,2.96,7.4,3.95,2.2,2.2,3.62,5.37,3.6,9.37-.02,3.21-.74,5.29-2.61,7.89-2.08,2.88-6.2,4.48-9.37,4.93-2.14,.31-3.67,.42-5.06,.42-3.1,0-5.55-.58-12.7-.92-.07,0-.18,0-.33,0-1.88,0-9.5,.44-9.04,5.93,.22,2.65,3.45,5.92,6.91,5.92,6.55,0,12.78-2.92,18.55-2.92,2.1,0,4.14,.39,6.11,1.44,4.26,2.27,6.91,4.93,7.4,10.36,.38,4.18-.99,12.33-8.39,14.31-6.95,1.85-19.24,4.93-19.73,14.8-.35,6.97,8.56,13.85,7.4,14.8-.22,.18-.77,.28-1.55,.28-4.5,0-16.63-3.45-16.21-16.07,.3-8.99,4.57-13.74,11.35-18.25,2.96-1.97,6.41-2.96,7.89-3.45,3.28-1.09,7.89-.49,7.89-4.44,0-1.41-1.25-2.76-2.99-2.76-.45,0-.94,.09-1.45,.29,0,0-4.44,.99-12.83,1.97-.97,.11-2.7,.34-4.83,.34-3.81,0-8.9-.71-13.18-4.04-6.07-4.72-7.1-16.17-2.22-22.94,3.24-4.49,9.75-7.74,14.8-7.89,.62-.02,1.19-.03,1.74-.03,3.27,0,5.8,.36,13.06,1.51,.97,.15,1.81,.22,2.53,.22,6.32,0,4.07-5.21,1.41-5.65l-5.7-1.68c-4.44-1.31-7.8-5-8.59-9.55l-.02-.12c-.49-2.96-1.86-2.66-3.45-3.45-3.95-1.97,0-13.81,5.92-17.27,0,0,.38-.17,1.05-.2v-.68l-.1,.03-.79-.78,.46-.15,.7,.69,.7-.69Zm0-.99c-.26,0-.51,.1-.69,.28h0s0,0,0,0c-.19-.19-.44-.28-.69-.28-.1,0-.21,.02-.31,.05l-.46,.15c-.33,.11-.57,.38-.65,.71-.08,.33,.02,.69,.27,.93l.06,.06s-.02,0-.02,.01c-4.68,2.73-8.14,10.23-7.99,14.86,.08,2.59,1.2,3.68,2.13,4.14,.41,.2,.79,.34,1.13,.46,1.03,.37,1.51,.54,1.79,2.27l.02,.12c.84,4.87,4.49,8.92,9.28,10.33l5.7,1.68s.08,.02,.12,.03c.95,.16,1.92,1.37,1.84,2.31-.1,1.24-2.2,1.38-3.09,1.38-.7,0-1.5-.07-2.38-.21-7.16-1.13-9.81-1.52-13.21-1.52-.53,0-1.11,0-1.77,.03-5.58,.17-12.27,3.74-15.57,8.3-5.23,7.24-4.03,19.28,2.41,24.29,3.62,2.82,8.26,4.24,13.78,4.24,2.06,0,3.75-.2,4.76-.32l.19-.02c8.32-.98,12.74-1.95,12.92-1.99,.05-.01,.1-.03,.15-.05,.37-.15,.73-.22,1.08-.22,1.2,0,2.01,.92,2.01,1.77,0,1.89-1.25,2.3-4.31,2.84-.97,.17-1.97,.35-2.91,.66-.16,.05-.35,.11-.55,.18-1.69,.54-4.83,1.56-7.57,3.39-6.84,4.56-11.47,9.55-11.78,19.04-.15,4.6,1.25,8.47,4.17,11.49,4.28,4.42,10.39,5.59,13.02,5.59,1.39,0,1.91-.29,2.17-.5,.64-.52,.63-1.32-.04-2.36-.37-.57-.94-1.29-1.61-2.12-2.23-2.77-5.6-6.97-5.39-11.03,.45-8.96,11.81-11.98,18.59-13.79l.41-.11c8.12-2.16,9.51-10.99,9.11-15.35-.58-6.39-4.15-9.13-7.92-11.14-1.96-1.05-4.11-1.55-6.58-1.55-2.91,0-5.83,.69-8.92,1.42-3.13,.74-6.37,1.5-9.63,1.5-2.91,0-5.74-2.8-5.92-5.02-.09-1.07,.19-1.94,.84-2.65,1.5-1.63,4.82-2.21,7.21-2.21,.13,0,.23,0,.29,0,3.7,.18,6.12,.41,8.06,.61,1.76,.17,3.15,.31,4.68,.31s3.11-.13,5.2-.43c3.34-.48,7.73-2.13,10.03-5.33,2.02-2.8,2.78-5.1,2.8-8.46,.02-4.03-1.32-7.51-3.89-10.08-1.05-1.05-2.64-2.64-7.81-4.19-2.83-.85-4.9-1.69-5.55-2.26-1.15-1.01-1.65-1.56-1.87-1.85,.27-.15,.59-.33,.89-.62,.94-.77,1.98-2.22,1.71-4.77-.54-5.09-6.15-12.03-7.35-12.63-.42-.21-.84-.38-1.26-.51l.03-.03c.24-.24,.35-.59,.27-.93-.08-.33-.33-.6-.65-.71l-.46-.15c-.1-.03-.21-.05-.31-.05"/><path d="M423.71,11.12c0,1.34-1.09,2.43-2.43,2.43s-2.43-1.09-2.43-2.43,1.09-2.43,2.43-2.43,2.43,1.09,2.43,2.43"/><path d="M431.73,11.12c0,1.34-1.09,2.43-2.43,2.43s-2.43-1.09-2.43-2.43,1.09-2.43,2.43-2.43,2.43,1.09,2.43,2.43"/><polyline class="cls-2" points="441.42 35.85 441.71 34.19 443.57 34.32"/><polyline class="cls-2" points="436.22 29.84 436.49 28.18 438.35 28.29"/><polyline class="cls-2" points="427.91 28.88 428.13 27.2 430 27.26"/><polyline class="cls-2" points="444.84 39.3 446.16 38.35 447.46 39.61"/><polyline class="cls-2" points="438.09 44.7 439.98 44.73 439.72 46.77"/><polyline class="cls-2" points="408.05 48.8 407.64 47.24 405.85 47.33"/><polyline class="cls-2" points="414.87 48.39 415.24 46.74 413.47 46.15"/><polyline class="cls-2" points="430.85 49.27 431.98 47.76 430.24 46.7"/><polyline class="cls-2" points="410.13 62.02 408.74 61.02 407.53 62.47"/><polyline class="cls-2" points="405.11 56.86 403.83 55.82 402.47 57.05"/><polyline class="cls-2" points="424.08 44.67 425.47 43.38 423.91 42.04"/><polyline class="cls-2" points="431.19 68.82 430.08 67.61 431.21 66.18"/><polyline class="cls-2" points="421.47 69.01 420.69 67.57 422.12 66.45"/><polyline class="cls-2" points="411.16 69.82 411.49 68.29 413.24 68.2"/><polyline class="cls-2" points="432.19 81.68 433.89 82.19 433.34 84.05"/><polyline class="cls-2" points="419.09 89.83 420.99 89.87 420.73 91.9"/><polyline class="cls-2" points="442.58 80.85 442.39 79.27 440.62 79.08"/><polyline class="cls-2" points="427.93 87.43 427.95 85.83 426.21 85.43"/><polyline class="cls-2" points="444.25 67.64 442.42 67.61 442.5 69.61"/><polyline class="cls-2" points="421.41 98.65 420.5 96.98 418.82 98.16"/><polyline class="cls-2" points="436.69 62.71 435.21 63.47 435.82 65.2"/><polyline class="cls-2" points="448.36 74.37 447.12 73.4 445.72 74.47"/></g></g></g></g></g></svg>