<?xml version="1.0" encoding="UTF-8"?><svg id="Layer_1" xmlns="http://www.w3.org/2000/svg" xmlns:xlink="http://www.w3.org/1999/xlink" viewBox="0 0 1000.49 198.61"><defs><style>.cls-1,.cls-2,.cls-3,.cls-4,.cls-5,.cls-6,.cls-7,.cls-8,.cls-9,.cls-10,.cls-11,.cls-12,.cls-13,.cls-14,.cls-15,.cls-16,.cls-17,.cls-18,.cls-19,.cls-20,.cls-21,.cls-22,.cls-23,.cls-24,.cls-25,.cls-26{fill:none;}.cls-1,.cls-2,.cls-3,.cls-4,.cls-9,.cls-19,.cls-20,.cls-21,.cls-22,.cls-24,.cls-25{stroke-miterlimit:10;}.cls-1,.cls-8,.cls-18{stroke:#fff;}.cls-1,.cls-18{stroke-width:5.33px;}.cls-27{clip-path:url(#clippath-20);}.cls-28{clip-path:url(#clippath-11);}.cls-29{clip-path:url(#clippath-16);}.cls-30{fill:#fff;}.cls-31{fill:#ffce24;}.cls-2{stroke-width:2.86px;}.cls-2,.cls-3,.cls-5,.cls-6,.cls-7,.cls-9,.cls-10,.cls-11,.cls-12,.cls-13,.cls-14,.cls-15,.cls-16,.cls-17,.cls-19,.cls-20,.cls-21,.cls-22,.cls-24,.cls-25,.cls-26{stroke:#000;}.cls-3{stroke-width:1.32px;}.cls-4{stroke:#231f20;stroke-width:1.31px;}.cls-5{stroke-width:.89px;}.cls-5,.cls-6,.cls-7,.cls-8,.cls-11,.cls-12,.cls-15,.cls-16,.cls-17,.cls-18{stroke-linejoin:round;}.cls-5,.cls-6,.cls-7,.cls-8,.cls-11,.cls-12,.cls-15,.cls-16,.cls-17,.cls-18,.cls-20,.cls-26{stroke-linecap:round;}.cls-6,.cls-26{stroke-width:.51px;}.cls-7,.cls-24{stroke-width:.77px;}.cls-8{stroke-width:4.72px;}.cls-32{clip-path:url(#clippath-2);}.cls-9,.cls-20{stroke-width:1.21px;}.cls-10{stroke-miterlimit:10;stroke-width:.61px;}.cls-33{clip-path:url(#clippath-13);}.cls-34{fill:#a70e19;}.cls-35{clip-path:url(#clippath-25);}.cls-36{clip-path:url(#clippath-15);}.cls-37{fill:#b778be;}.cls-38{clip-path:url(#clippath-6);}.cls-11{stroke-width:1.18px;}.cls-39{clip-path:url(#clippath-26);}.cls-12{stroke-width:1.21px;}.cls-13{stroke-miterlimit:10;stroke-width:.61px;}.cls-14{stroke-miterlimit:10;stroke-width:.61px;}.cls-40{fill:#84ccb0;}.cls-15{stroke-width:1.21px;}.cls-41{clip-path:url(#clippath-7);}.cls-42{clip-path:url(#clippath-21);}.cls-16,.cls-21{stroke-width:2.05px;}.cls-17{stroke-width:1.21px;}.cls-43{clip-path:url(#clippath-1);}.cls-44{clip-path:url(#clippath-4);}.cls-45{clip-path:url(#clippath-27);}.cls-46{fill:#f686b0;}.cls-19{stroke-width:2.04px;}.cls-47{opacity:.58;}.cls-48{clip-path:url(#clippath-12);}.cls-49{clip-path:url(#clippath-24);}.cls-50{clip-path:url(#clippath-22);}.cls-22{stroke-width:.68px;}.cls-51{clip-path:url(#clippath-9);}.cls-52{clip-path:url(#clippath);}.cls-53{clip-path:url(#clippath-19);}.cls-54{clip-path:url(#clippath-3);}.cls-55{fill:#f4c01e;fill-rule:evenodd;}.cls-56{clip-path:url(#clippath-8);}.cls-57{clip-path:url(#clippath-18);}.cls-58{clip-path:url(#clippath-14);}.cls-59{clip-path:url(#clippath-17);}.cls-60{fill:#a19ca2;}.cls-61{clip-path:url(#clippath-5);}.cls-62{fill:#b33077;}.cls-63{fill:#84c2a9;}.cls-64{clip-path:url(#clippath-10);}.cls-65{clip-path:url(#clippath-23);}.cls-25{stroke-width:1.02px;}.cls-26{stroke-linejoin:bevel;}.cls-66{clip-path:url(#clippath-28);}.cls-67{fill:#840b19;}.cls-68{fill:#e81f7b;}</style><clipPath id="clippath"><rect class="cls-23" x="773.85" y="56.53" width="171.29" height="60" transform="translate(746.61 942.95) rotate(-88.24)"/></clipPath><clipPath id="clippath-1"><rect class="cls-23" x="773.85" y="56.53" width="171.29" height="60" transform="translate(746.61 942.95) rotate(-88.24)"/></clipPath><clipPath id="clippath-2"><rect class="cls-23" x="773.85" y="56.53" width="171.29" height="60" transform="translate(746.61 942.95) rotate(-88.24)"/></clipPath><clipPath id="clippath-3"><rect class="cls-23" x="773.85" y="56.53" width="171.29" height="60" transform="translate(746.61 942.95) rotate(-88.24)"/></clipPath><clipPath id="clippath-4"><rect class="cls-23" x="773.85" y="56.53" width="171.29" height="60" transform="translate(746.61 942.95) rotate(-88.24)"/></clipPath><clipPath id="clippath-5"><rect class="cls-23" x="512.48" y="49.89" width="91" height="102.74"/></clipPath><clipPath id="clippath-6"><rect class="cls-23" x="512.48" y="49.89" width="91" height="102.74"/></clipPath><clipPath id="clippath-7"><rect class="cls-23" x="909.48" y="34.89" width="91" height="105.59"/></clipPath><clipPath id="clippath-8"><rect class="cls-23" x="909.48" y="34.89" width="91" height="105.59"/></clipPath><clipPath id="clippath-9"><rect class="cls-23" x="609.48" y="60.89" width="122.91" height="52"/></clipPath><clipPath id="clippath-10"><rect class="cls-23" x="609.48" y="60.89" width="122.91" height="52"/></clipPath><clipPath id="clippath-11"><rect class="cls-23" x="741.13" y="50.58" width="73.81" height="75.21" transform="translate(383.97 764.81) rotate(-66.25)"/></clipPath><clipPath id="clippath-12"><rect class="cls-23" x="741.13" y="50.58" width="73.8" height="75.21" transform="translate(383.97 764.81) rotate(-66.25)"/></clipPath><clipPath id="clippath-13"><rect class="cls-23" x="0" y="52.41" width="117.07" height="69.35"/></clipPath><clipPath id="clippath-14"><rect class="cls-23" x="0" y="52.41" width="117.07" height="69.35"/></clipPath><clipPath id="clippath-15"><rect class="cls-23" x="215.21" y="36.47" width="100.3" height="100.3"/></clipPath><clipPath id="clippath-16"><rect class="cls-23" x="215.21" y="36.47" width="100.3" height="100.3"/></clipPath><clipPath id="clippath-17"><rect class="cls-23" x="330.59" y="44.44" width="82.33" height="86.6"/></clipPath><clipPath id="clippath-18"><rect class="cls-23" x="330.59" y="44.44" width="82.33" height="86.6"/></clipPath><clipPath id="clippath-19"><rect class="cls-23" x="330.59" y="44.44" width="82.33" height="86.6"/></clipPath><clipPath id="clippath-20"><rect class="cls-23" x="430.51" y="30.14" width="64.68" height="140.03"/></clipPath><clipPath id="clippath-21"><rect class="cls-23" x="430.51" y="30.14" width="64.68" height="140.03"/></clipPath><clipPath id="clippath-22"><rect class="cls-23" x="124.44" y="36.44" width="83.87" height="162.15"/></clipPath><clipPath id="clippath-23"><rect class="cls-23" x="124.44" y="36.44" width="83.87" height="162.15"/></clipPath><clipPath id="clippath-24"><rect class="cls-23" x="124.44" y="36.44" width="83.87" height="162.15"/></clipPath><clipPath id="clippath-25"><rect class="cls-23" x="148.48" y="76.39" width="14.82" height="33.1"/></clipPath><clipPath id="clippath-26"><rect class="cls-23" x="148.48" y="76.39" width="14.82" height="33.1"/></clipPath><clipPath id="clippath-27"><rect class="cls-23" x="145.4" y="64.19" width="35.14" height="25.21"/></clipPath><clipPath id="clippath-28"><rect class="cls-23" x="146.67" y="103.65" width="11.23" height="4.86"/></clipPath></defs><g id="Artwork_41"><g class="cls-52"><g><polygon class="cls-68" points="831.34 102.43 876.91 3.75 859.94 75.93 882.96 67.18 848.67 169.52 857.78 92.42 831.34 102.43"/><g class="cls-43"><polygon class="cls-8" points="831.34 102.43 876.91 3.75 859.94 75.93 882.96 67.18 848.67 169.52 857.78 92.42 831.34 102.43"/></g><polygon class="cls-40" points="882.96 67.18 887.56 72.35 848.67 169.52 882.96 67.18"/><g class="cls-32"><polygon class="cls-8" points="882.96 67.18 887.56 72.35 848.67 169.52 882.96 67.18"/></g><polygon class="cls-40" points="831.35 102.39 857.97 92.38 856.94 99.43 836.06 107.37 831.35 102.39"/><g class="cls-54"><polygon class="cls-8" points="831.35 102.39 857.97 92.38 856.94 99.43 836.06 107.37 831.35 102.39"/></g><polygon class="cls-40" points="876.91 3.75 865.81 73.7 859.94 75.93 876.91 3.75"/><g class="cls-44"><polygon class="cls-8" points="876.91 3.75 865.81 73.7 859.94 75.93 876.91 3.75"/></g><polygon class="cls-68" points="831.33 102.97 876.89 4.29 859.92 76.48 882.95 67.73 848.66 170.07 857.76 92.96 831.33 102.97"/><polygon class="cls-5" points="831.33 102.97 876.89 4.29 859.92 76.48 882.95 67.73 848.66 170.07 857.76 92.96 831.33 102.97"/><polygon class="cls-40" points="882.95 67.73 887.55 72.9 848.66 170.07 882.95 67.73"/><polygon class="cls-5" points="882.95 67.73 887.55 72.9 848.66 170.07 882.95 67.73"/><polygon class="cls-40" points="831.33 102.93 857.95 92.93 856.92 99.98 836.04 107.92 831.33 102.93"/><polygon class="cls-5" points="831.33 102.93 857.95 92.93 856.92 99.98 836.04 107.92 831.33 102.93"/><polygon class="cls-40" points="876.89 4.29 865.79 74.25 859.92 76.48 876.89 4.29"/><polygon class="cls-5" points="876.89 4.29 865.79 74.25 859.92 76.48 876.89 4.29"/></g></g></g><g id="Artwork_26"><g class="cls-61"><g class="cls-38"><g><path class="cls-62" d="M556.06,151.32c-2.05,0-3.88-1.22-4.67-3.12l-.02-.04v-.04c-.76-2.22-.22-4.4,.27-6.32,.21-.84,.41-1.64,.51-2.42v-.08c.44-2.18,.44-4.5,.44-6.74v-.19c-.02-.5-.03-1.01-.04-1.56-.04-2.08-.08-4.37-.83-5.86-.02,.4-.03,.83-.03,1.25,0,2.11-.02,5.65-4.35,5.65h-.55l-.07-.02c-4.96-.83-4.42-5.31-4.06-8.28,.13-1.06,.25-2.05,.18-2.84v-.06c-.15-4.01-3.6-7.11-6.85-9.7-.81-.45-1.27-.52-1.48-.52-.19,0-.27,.05-.35,.15-.57,.7-.95,2.93,.45,9.6l.06,.27c.82,2.97,.54,5.58-.8,7.34-.93,1.22-2.29,1.93-3.73,1.93-1.3,0-2.49-.56-3.36-1.57-.81-.95-1.69-2.7-1.23-5.67v-.06c2.52-12.48-.66-20.85-7.01-31.11l-.02-.03c-5.5-9.54-6.23-20.04-1.95-28.1,3.67-7.39,11.26-11.98,19.8-11.98,4.1,0,8.1,1.1,11.58,3.2,1.16,.62,2.32,1.45,3.63,2.61,1.76,1.55,3.36,3.31,4.75,5.22,.49,.68,.94,1.53,1.37,2.36,.08,.16,.18,.35,.28,.53,.1-.19,.2-.37,.28-.53,.43-.83,.88-1.68,1.37-2.36,1.39-1.91,2.99-3.67,4.75-5.22,1.32-1.16,2.47-1.99,3.63-2.61,3.47-2.09,7.48-3.2,11.58-3.2,8.54,0,16.12,4.59,19.8,11.98,2.01,3.78,2.94,8.01,2.76,12.58,.13,2.96-.26,5.85-1.13,8.59v.03c-3.14,9.07-9.82,15.81-16.28,22.34-1.74,1.76-3.54,3.58-5.22,5.39-.52,.61-1.06,1.21-1.58,1.79-1.42,1.58-2.77,3.07-3.68,4.83-2.1,4.61-2.19,10.11-2.03,14.4,.06,.83,.19,1.69,.32,2.6,.4,2.76,.85,5.89-.49,8.71l-.03,.06-.04,.06c-.79,1.29-2.14,2.03-3.69,2.03h0c-1.47,0-2.86-.68-3.75-1.82-1.89-1.83-1.64-6.06-1.01-12.74,.26-2.78,.7-7.31,.17-8.53-2.25,1.77-3.47,9.48-3.59,14.43-.02,1.21,.17,2.43,.37,3.73,.28,1.82,.57,3.71,.28,5.68v.05c-.45,2.35-2.35,3.93-4.73,3.93"/><path class="cls-30" d="M579.6,52.51c7.6,0,15.03,4.01,18.63,11.27,2.01,3.78,2.78,7.88,2.61,11.98,.12,2.75-.22,5.52-1.07,8.19-3.88,11.23-13.43,18.84-21.24,27.3-1.88,2.24-4.11,4.29-5.45,6.92-2.11,4.62-2.34,10.04-2.16,15.05,.27,3.48,1.53,7.37-.04,10.67-.59,.96-1.57,1.41-2.57,1.41s-2.11-.49-2.77-1.39c-3.38-2.99,2.22-21.82-1.74-21.82-.09,0-.19,.01-.3,.03-3.58,1.75-4.57,12.1-4.66,15.79-.05,3.1,1.13,6.14,.66,9.24-.36,1.91-1.88,2.87-3.43,2.87-1.39,0-2.82-.77-3.46-2.31-.92-2.71,.51-5.45,.85-8.16,.47-2.37,.45-4.8,.45-7.21-.14-3.12,.22-7.54-2.18-9.45-.05-.06-.13-.08-.24-.08-.3,0-.73,.21-.77,.41-1,2.7,1.08,7.32-3.37,7.32h-.41c-5.09-.85-2.51-6.5-2.79-9.93-.17-4.65-4.02-8.05-7.42-10.75-.9-.51-1.63-.74-2.21-.74-3.69,0-1.66,9.02-1.11,11.64,1.42,5.07-.96,7.65-3.26,7.65-1.97,0-3.88-1.89-3.3-5.73,2.54-12.64-.59-21.38-7.19-32.06-4.68-8.1-6.46-18.31-1.92-26.84,3.6-7.26,11.03-11.27,18.63-11.27,3.75,0,7.54,.98,10.93,3.03,1.25,.66,2.36,1.52,3.41,2.45,1.7,1.5,3.23,3.18,4.56,5.01,.99,1.36,1.93,3.84,2.71,4.46,.78-.62,1.72-3.1,2.71-4.46,1.33-1.83,2.86-3.51,4.56-5.01,1.05-.93,2.16-1.79,3.41-2.45,3.39-2.05,7.18-3.03,10.93-3.03m0-2.62c-4.33,0-8.55,1.16-12.22,3.37-1.24,.67-2.47,1.55-3.85,2.77-1.83,1.61-3.49,3.44-4.95,5.43-.21,.29-.41,.59-.59,.91-.19-.32-.39-.63-.59-.91-1.45-1.99-3.11-3.82-4.95-5.43-1.38-1.22-2.61-2.1-3.85-2.77-3.67-2.2-7.89-3.37-12.22-3.37h0c-4.29,0-8.49,1.13-12.14,3.27-3.82,2.24-6.86,5.49-8.82,9.42-2.39,4.5-3.32,9.56-2.77,15.04,.48,4.8,2.12,9.75,4.76,14.31l.02,.03,.02,.03c6.17,9.98,9.27,18.11,6.85,30.16v.06l-.02,.06c-.41,2.7,.13,5.09,1.54,6.72,1.1,1.28,2.69,2.02,4.35,2.02,1.86,0,3.6-.89,4.78-2.44,.92-1.21,2.27-3.92,1.03-8.44l-.05-.23c-.24-1.15-.64-3.07-.83-4.95-.16-1.57-.1-2.51-.01-3.03,.06,.03,.13,.07,.21,.11,3,2.39,6.14,5.23,6.26,8.66v.12c.05,.66-.06,1.63-.18,2.58-.2,1.66-.43,3.55,.02,5.28,.63,2.42,2.45,4,5.13,4.44l.14,.02h.14c.19,.02,.38,.02,.56,.02,1.89,0,3.13-.62,3.92-1.35,0,.2,0,.39,.02,.59v.16c0,2.28,0,4.44-.4,6.49l-.02,.09v.09c-.1,.7-.29,1.46-.49,2.26-.53,2.1-1.12,4.48-.25,7.06l.03,.08,.03,.08c.99,2.38,3.3,3.93,5.88,3.93,3.02,0,5.44-2.01,6-5v-.05l.02-.05c.33-2.17,0-4.24-.28-6.07-.19-1.24-.37-2.4-.35-3.5,.05-1.91,.33-5.18,.97-8.13,0-.06,.03-.12,.04-.18-.07,.81-.14,1.6-.21,2.27-.58,6.04-1.07,11.28,1.33,13.73,1.14,1.42,2.89,2.26,4.73,2.26,1.99,0,3.78-.99,4.8-2.66l.07-.12,.06-.13c1.51-3.18,1.03-6.52,.6-9.46-.13-.88-.25-1.71-.31-2.49-.15-4.13-.07-9.4,1.9-13.75,.83-1.6,2.11-3.02,3.47-4.53,.52-.58,1.07-1.18,1.59-1.8,1.66-1.79,3.44-3.6,5.17-5.34,6.56-6.63,13.35-13.49,16.58-22.84v-.03l.02-.03c.92-2.87,1.32-5.89,1.2-8.99,.18-4.78-.8-9.21-2.9-13.18-1.96-3.92-5-7.18-8.82-9.42-3.65-2.14-7.85-3.27-12.14-3.27"/><path class="cls-4" d="M600.84,75.76c.17-4.1-.6-8.21-2.61-11.98-5.38-10.84-19.31-14.44-29.56-8.24-1.25,.66-2.36,1.52-3.41,2.45-1.7,1.5-3.23,3.18-4.56,5.01-.99,1.36-1.93,3.84-2.71,4.46-.78-.62-1.72-3.1-2.71-4.46-1.33-1.83-2.86-3.51-4.56-5.01-1.05-.93-2.16-1.79-3.41-2.45-10.26-6.2-24.18-2.6-29.56,8.24-4.54,8.54-2.76,18.74,1.92,26.84,6.6,10.67,9.73,19.41,7.19,32.06-1.27,8.32,9.2,7.49,6.56-1.92-.63-3.05-3.26-14.66,3.33-10.9,3.39,2.7,7.25,6.09,7.42,10.75,.28,3.44-2.3,9.08,2.79,9.93,4.98,.29,2.75-4.53,3.78-7.31,.05-.27,.82-.56,1.01-.33,2.4,1.91,2.04,6.33,2.18,9.45,0,2.41,0,4.83-.45,7.21-.34,2.71-1.76,5.45-.85,8.16,1.35,3.25,6.2,3.07,6.89-.55,.47-3.1-.71-6.14-.66-9.24,.09-3.69,1.09-14.04,4.66-15.79,4.53-.94-1.42,18.72,2.04,21.78,1.3,1.77,4.14,1.95,5.34-.02,1.57-3.3,.31-7.19,.04-10.67-.19-5.01,.05-10.43,2.16-15.05,1.35-2.63,3.57-4.68,5.45-6.92,7.81-8.46,17.36-16.07,21.24-27.3,.85-2.67,1.19-5.43,1.07-8.19h-.02Z"/></g></g></g></g><g id="Artwork_23"><g class="cls-41"><g class="cls-56"><g><path class="cls-1" d="M942.23,104.79c4.21-3.95,10.46-10.94,14.36-21.33,8.05-21.46-.02-40.88-2.26-45.74-.04-.09-.07-.18,.02-.16,2.52,.59,25.58,7.5,21.31,63.74"/><path class="cls-21" d="M942.23,104.79c4.21-3.95,10.46-10.94,14.36-21.33,8.05-21.46-.02-40.88-2.26-45.74-.04-.09-.07-.18,.02-.16,2.52,.59,25.58,7.5,21.31,63.74"/><path class="cls-34" d="M934.33,137.86c-2.28,0-4.28-.23-5.97-.67-3.19-.84-7.83-3.18-11.79-9.52-4.16-6.67-6.22-16.95-1.43-24.88,.83-1.37,1.17-1.97,1.34-2.26,.16-.27,.3-.53,.61-.73,.02-.02,.03-.04,.05-.06,2-2.19,4.84-4.09,7.42-4.98,2.29-.79,4.2-1.18,5.82-1.18,.99,0,1.71,.14,2.29,.25,.26,.05,.48,.09,.67,.11,3.73,.38,7.01,3.27,10.03,8.82,.7-.09,1.39-.13,2.06-.13,2.42,0,4.61,.55,6.51,1.64,7.37,4.24,8.72,15.53,5,22.8-4.05,7.91-12.82,9.67-14.67,9.95-1.05,.23-2.12,.41-3.19,.54-.61,.07-2.46,.3-4.74,.3"/><path class="cls-30" d="M930.38,95.02c1.29,0,2.07,.27,2.82,.35,2.63,.27,5.93,2.22,9.38,8.96,.72-.13,1.72-.27,2.86-.27,1.74,0,3.82,.32,5.79,1.45,6.37,3.67,8.05,13.84,4.43,20.9-3.88,7.58-12.58,9.03-13.66,9.19-.74,.16-1.81,.37-3.1,.53-.57,.07-2.38,.29-4.57,.29-1.77,0-3.78-.14-5.6-.62-6.45-1.7-10.1-7.55-10.94-8.89-3.97-6.36-5.82-16.09-1.42-23.37,2.18-3.61,1.1-2.01,1.83-2.81,1.86-2.04,4.48-3.79,6.83-4.6,2.49-.86,4.14-1.1,5.35-1.1m0-2.87c-1.78,0-3.84,.41-6.29,1.26-2.81,.97-5.78,2.95-7.96,5.32-.47,.36-.72,.79-.89,1.09-.16,.28-.5,.87-1.32,2.23-5.11,8.45-2.96,19.34,1.44,26.38,4.21,6.74,9.2,9.24,12.64,10.15,1.81,.48,3.94,.72,6.34,.72s4.28-.23,4.91-.31c1.1-.13,2.2-.32,3.28-.55,2.08-.33,11.35-2.24,15.69-10.71,2.05-4,2.7-8.95,1.79-13.58-.98-5.01-3.59-8.95-7.35-11.11-2.11-1.22-4.54-1.83-7.22-1.83-.42,0-.84,.02-1.27,.05-3.14-5.46-6.65-8.31-10.67-8.73-.13-.01-.33-.05-.55-.09-.61-.11-1.44-.27-2.56-.27"/><path class="cls-21" d="M942.57,104.33c-3.45-6.74-6.75-8.69-9.38-8.96-1.45-.15-3.01-1.03-8.17,.75-2.35,.81-4.96,2.56-6.83,4.6-.73,.8,.36-.8-1.83,2.81-4.41,7.28-2.55,17.01,1.42,23.37,.84,1.34,4.49,7.19,10.94,8.89,4.07,1.07,9.13,.46,10.17,.33,1.29-.16,2.36-.36,3.1-.53,1.08-.16,9.78-1.61,13.66-9.19,3.61-7.06,1.94-17.23-4.43-20.9-3.25-1.87-6.81-1.52-8.64-1.18h-.01Z"/><path class="cls-16" d="M935.26,132.27s16.41,0,18.46-13.95"/><path class="cls-34" d="M974.71,139.04c-3.69,0-7.5-1.16-11.34-3.45-6.8-4.06-13.39-12.34-12.8-21.72,.1-1.62,.13-2.33,.15-2.66,.01-.33,.03-.61,.2-.93,0-.02,.01-.05,.02-.08,.77-2.9,2.41-5.95,4.29-7.96,3.37-3.6,5.43-4.23,6.79-4.64,.25-.08,.47-.14,.65-.22,.97-.39,2.03-.59,3.15-.59,2.86,0,6.1,1.25,9.87,3.83,2.51-1.75,5.2-2.67,7.84-2.67,.16,0,.33,0,.49,.01,8.53,.36,14.96,9.9,15.02,18.18,.06,9.02-6.93,14.71-8.44,15.83-.83,.7-1.7,1.36-2.59,1.98-3.43,2.38-6.88,4.04-9.71,4.69-1.15,.26-2.36,.4-3.58,.4h-.01Z"/><path class="cls-30" d="M965.82,98.22c2.37,0,5.55,1.04,9.9,4.16,1.42-1.12,4.25-3,7.82-3h.43c7.37,.31,13.59,8.7,13.64,16.75,.06,8.65-7.01,14.04-7.9,14.69-.59,.5-1.44,1.18-2.52,1.93-.86,.6-5.09,3.53-9.21,4.47-1.11,.25-2.2,.36-3.26,.36-5.16,0-9.47-2.57-10.6-3.24-6.49-3.87-12.65-11.77-12.1-20.4,.27-4.28,.04-2.33,.32-3.39,.72-2.71,2.24-5.52,3.95-7.35,3.77-4.02,5.57-3.96,6.93-4.51,.74-.3,1.6-.49,2.61-.49m0-2.87h0c-1.3,0-2.54,.23-3.68,.69-.12,.05-.31,.11-.53,.18-1.92,.59-4.07,1.46-7.42,5.04-2.05,2.19-3.77,5.36-4.61,8.51-.25,.54-.27,1.03-.29,1.38-.01,.33-.04,1.03-.14,2.63-.63,9.98,6.32,18.77,13.5,23.05,4.06,2.42,8.12,3.65,12.07,3.65,1.33,0,2.64-.15,3.9-.43,3.86-.88,7.68-3.16,10.21-4.91,.92-.64,1.81-1.32,2.66-2.04,1.69-1.27,9.05-7.33,8.99-16.97-.03-4.55-1.74-9.3-4.69-13.04-3.2-4.05-7.35-6.38-11.7-6.56-.19,0-.37-.01-.55-.01-2.65,0-5.32,.82-7.84,2.38-3.69-2.38-6.93-3.54-9.88-3.54"/><path class="cls-21" d="M975.72,102.39c-6.2-4.46-10.04-4.67-12.51-3.68-1.36,.55-3.16,.49-6.93,4.51-1.71,1.83-3.23,4.64-3.95,7.35-.28,1.07-.05-.88-.32,3.39-.55,8.63,5.62,16.53,12.1,20.4,1.37,.82,7.34,4.37,13.87,2.88,4.12-.94,8.35-3.87,9.21-4.47,1.08-.75,1.93-1.44,2.52-1.93,.89-.65,7.96-6.04,7.9-14.69-.05-8.06-6.27-16.44-13.64-16.75-3.76-.16-6.77,1.83-8.25,2.99h0Z"/><path class="cls-16" d="M982.16,131s14.61-7.7,9.97-21.23"/><path class="cls-40" d="M954.33,37.72c-.71,3.71-3.44,4.94-3.44,4.94-31.87-5.71-38.74,23.67-38.74,23.67,0,0,33.68,15.6,38.73-23.26"/><path class="cls-16" d="M954.33,37.72c-.71,3.71-3.44,4.94-3.44,4.94-31.87-5.71-38.74,23.67-38.74,23.67,0,0,33.68,15.6,38.73-23.26"/><path class="cls-18" d="M954.33,37.72c-.71,3.71-3.44,4.94-3.44,4.94-31.87-5.71-38.74,23.67-38.74,23.67,0,0,33.68,15.6,38.73-23.26"/><path class="cls-40" d="M954.33,37.72c-.71,3.71-3.44,4.94-3.44,4.94-31.87-5.71-38.74,23.67-38.74,23.67,0,0,33.68,15.6,38.73-23.26"/><path class="cls-16" d="M954.33,37.72c-.71,3.71-3.44,4.94-3.44,4.94-31.87-5.71-38.74,23.67-38.74,23.67,0,0,33.68,15.6,38.73-23.26"/><path class="cls-16" d="M921.29,61.63s16.01-.43,29.6-18.97"/><path class="cls-21" d="M942.64,104.38c4.21-3.95,10.05-10.53,13.95-20.92,8.05-21.46-.02-40.88-2.26-45.74-.04-.09-.07-.18,.02-.16,2.52,.59,25.58,7.5,21.31,63.74"/></g></g></g></g><g id="Artwork_56"><g class="cls-51"><g class="cls-64"><g><path class="cls-60" d="M715.25,68.59c-3.93-.92-8.12-1.89-13.83-2.13-4.46-.19-8.27,.12-11.15,.51-.46,.06-.74,.52-.61,.96,.21,.7,.39,1.6,.35,2.65-.1,2.72-1.55,4.58-2.1,5.21-.02,.03-.04,.05-.07,.07-1.73,1.62-3.95,1.7-5.16,1.6-.27-.02-.5-.21-.61-.46-.16-.36-.35-.71-.55-1.04h0l.32-12.76c.02-.66-.77-1.01-1.25-.56l-7.7,7.15c-.14,.13-.33,.2-.52,.2l-1.29-.02c-4.32-.39-8.62,.95-11.94,3.73-.14,.12-.32,.18-.5,.17l-11.28-.51c-.64-.03-1.02,.72-.61,1.22l6.86,8.45c.1,.12,.15,.26,.16,.42,.03,.34,.07,.69,.15,1.03,.02,.11,.05,.22,.09,.32,.08,.28,0,.58-.24,.77-.89,.72-2.9,2.02-5.39,1.55-.03,0-.06-.01-.09-.02-.81-.24-3.03-1.03-4.56-3.28-.6-.87-.94-1.74-1.13-2.44-.12-.44-.61-.66-1.02-.47-2.64,1.21-6.03,2.99-9.69,5.55-4.68,3.26-7.71,6.33-10.53,9.21-2.87,2.93-6.46,6.95-10.21,12.15-.44,.61,.2,1.42,.89,1.12,4.36-1.85,13.31-4.67,19.85-.12,.81,.56,1.67,1.3,2.51,2.29,.35,.4,1,.36,1.23-.12,1.39-2.8,4.43-4.86,7.44-5.46,3.31-.65,5.97,1.01,7.41,2.21,.46,.38,1.16,.08,1.21-.52,.17-2.03,.88-5.47,3.89-7.61,3.04-2.16,6.26-2.05,7.24-1.97l.75,.04c.34,.02,.62,.27,.69,.6,.11,.54,.28,1.33,.54,1.99,1.23,3.19,5.53,6.98,9.87,5.92,4.12-1,6.31-5.74,6.58-6.58,.15-.46,.94-3.85,.16-6.73-.09-.32,.06-.66,.34-.84,1.15-.72,3.58-1.92,6.73-1.75,3.68,.2,6.12,2.72,7.36,4.34,.37,.48,1.11,.36,1.3-.22,.57-1.78,1.93-4.6,5.07-5.82,2.87-1.11,6.54-1.01,9.21,.61,.45,.28,1.03-.03,1.11-.56,.18-1.28,.51-2.36,.89-3.27,3.08-7.35,12.15-9.77,16.82-10.54,.75-.12,.85-1.15,.15-1.43-5.95-2.38-11.14-3.85-15.13-4.78"/><path class="cls-19" d="M715.25,68.59c-3.93-.92-8.12-1.89-13.83-2.13-4.46-.19-8.27,.12-11.15,.51-.46,.06-.74,.52-.61,.96,.21,.7,.39,1.6,.35,2.65-.1,2.72-1.55,4.58-2.1,5.21-.02,.03-.04,.05-.07,.07-1.73,1.62-3.95,1.7-5.16,1.6-.27-.02-.5-.21-.61-.46-.16-.36-.35-.71-.55-1.04h0l.32-12.76c.02-.66-.77-1.01-1.25-.56l-7.7,7.15c-.14,.13-.33,.2-.52,.2l-1.29-.02c-4.32-.39-8.62,.95-11.94,3.73-.14,.12-.32,.18-.5,.17l-11.28-.51c-.64-.03-1.02,.72-.61,1.22l6.86,8.45c.1,.12,.15,.26,.16,.42,.03,.34,.07,.69,.15,1.03,.02,.11,.05,.22,.09,.32,.08,.28,0,.58-.24,.77-.89,.72-2.9,2.02-5.39,1.55-.03,0-.06-.01-.09-.02-.81-.24-3.03-1.03-4.56-3.28-.6-.87-.94-1.74-1.13-2.44-.12-.44-.61-.66-1.02-.47-2.64,1.21-6.03,2.99-9.69,5.55-4.68,3.26-7.71,6.33-10.53,9.21-2.87,2.93-6.46,6.95-10.21,12.15-.44,.61,.2,1.42,.89,1.12,4.36-1.85,13.31-4.67,19.85-.12,.81,.56,1.67,1.3,2.51,2.29,.35,.4,1,.36,1.23-.12,1.39-2.8,4.43-4.86,7.44-5.46,3.31-.65,5.97,1.01,7.41,2.21,.46,.38,1.16,.08,1.21-.52,.17-2.03,.88-5.47,3.89-7.61,3.04-2.16,6.26-2.05,7.24-1.97l.75,.04c.34,.02,.62,.27,.69,.6,.11,.54,.28,1.33,.54,1.99,1.23,3.19,5.53,6.98,9.87,5.92,4.12-1,6.31-5.74,6.58-6.58,.15-.46,.94-3.85,.16-6.73-.09-.32,.06-.66,.34-.84,1.15-.72,3.58-1.92,6.73-1.75,3.68,.2,6.12,2.72,7.36,4.34,.37,.48,1.11,.36,1.3-.22,.57-1.78,1.93-4.6,5.07-5.82,2.87-1.11,6.54-1.01,9.21,.61,.45,.28,1.03-.03,1.11-.56,.18-1.28,.51-2.36,.89-3.27,3.08-7.35,12.15-9.77,16.82-10.54,.75-.12,.85-1.15,.15-1.43-5.95-2.38-11.14-3.85-15.13-4.78l-.02-.03h0Z"/><path class="cls-30" d="M681.12,62.42c.39,0,.76,.31,.75,.77l-.32,12.76h0c.21,.34,.4,.69,.55,1.05,.11,.25,.34,.44,.61,.46,.21,.02,.44,.03,.7,.03,1.25,0,3.02-.29,4.46-1.63,.02-.02,.04-.04,.07-.07,.55-.64,2-2.49,2.1-5.21,.04-1.05-.14-1.95-.35-2.65-.13-.44,.15-.9,.61-.96,2.28-.31,5.14-.57,8.45-.57,.87,0,1.78,.02,2.71,.06,5.7,.25,9.9,1.21,13.83,2.13,3.99,.94,9.18,2.41,15.13,4.78,.7,.28,.6,1.31-.15,1.43-4.67,.77-13.74,3.19-16.82,10.54-.38,.91-.71,2-.89,3.27-.05,.39-.39,.66-.74,.66-.12,0-.25-.03-.36-.1-1.51-.92-3.35-1.35-5.17-1.35-1.4,0-2.79,.25-4.04,.74-3.14,1.22-4.5,4.04-5.07,5.82-.11,.33-.4,.52-.71,.52-.22,0-.44-.1-.59-.3-1.24-1.63-3.68-4.15-7.36-4.34-.2-.01-.4-.02-.6-.02-2.86,0-5.06,1.09-6.13,1.77-.28,.18-.43,.52-.34,.84,.79,2.89,0,6.28-.16,6.73-.27,.84-2.46,5.58-6.58,6.58-.51,.12-1.01,.18-1.51,.18-3.79,0-7.27-3.29-8.36-6.1-.25-.66-.43-1.45-.54-1.99-.07-.33-.35-.58-.69-.6l-.75-.04c-.19-.01-.47-.03-.82-.03-1.42,0-3.98,.27-6.42,2-3.01,2.14-3.71,5.57-3.89,7.61-.03,.42-.38,.69-.74,.69-.16,0-.32-.05-.46-.17-1.21-1.01-3.3-2.35-5.91-2.35-.48,0-.98,.05-1.5,.15-3.02,.6-6.06,2.65-7.44,5.46-.13,.26-.38,.39-.64,.39-.22,0-.43-.09-.59-.27-.84-.98-1.7-1.72-2.51-2.28-2.61-1.82-5.6-2.46-8.53-2.46-4.42,0-8.7,1.46-11.32,2.58-.1,.04-.2,.06-.3,.06-.56,0-.97-.67-.6-1.19,3.75-5.2,7.35-9.22,10.21-12.15,2.82-2.88,5.85-5.95,10.53-9.21,3.66-2.55,7.05-4.33,9.69-5.55,.1-.05,.21-.07,.31-.07,.32,0,.62,.21,.71,.54,.19,.71,.53,1.57,1.13,2.45,1.54,2.24,3.76,3.03,4.56,3.28,.03,0,.06,.02,.09,.02,.36,.07,.72,.1,1.06,.1,1.99,0,3.57-1.04,4.33-1.65,.23-.18,.33-.49,.24-.77-.03-.11-.06-.21-.09-.32-.08-.34-.12-.69-.15-1.03,0-.15-.07-.3-.16-.42l-6.87-8.45c-.4-.49-.04-1.22,.58-1.22h.04l11.28,.51h.03c.17,0,.34-.06,.47-.17,2.95-2.46,6.65-3.8,10.47-3.8,.49,0,.98,.02,1.48,.07l1.29,.02h0c.19,0,.37-.07,.51-.2l7.7-7.15c.15-.14,.33-.2,.5-.2m0-1.53h0c-.57,0-1.12,.22-1.55,.61l-7.46,6.93h-.92c-.52-.06-1.04-.08-1.56-.08-4.07,0-8.04,1.4-11.21,3.96l-10.97-.5h-.11c-.89,0-1.67,.5-2.06,1.3-.38,.8-.27,1.73,.29,2.42l6.71,8.26c.03,.3,.07,.59,.13,.87-.68,.47-1.73,1.01-2.96,1.01-.25,0-.5-.02-.74-.07-.9-.28-2.55-.99-3.7-2.67-.41-.6-.72-1.27-.92-1.98-.27-.98-1.17-1.66-2.19-1.66-.33,0-.65,.07-.95,.21-3.46,1.59-6.8,3.5-9.93,5.68-4.9,3.41-8,6.59-10.75,9.4-3.71,3.8-7.2,7.94-10.36,12.33-.5,.7-.57,1.6-.18,2.37,.39,.77,1.17,1.25,2.02,1.25,.31,0,.61-.06,.9-.18,2.63-1.12,6.63-2.45,10.72-2.45,3,0,5.57,.74,7.65,2.18,.81,.56,1.55,1.24,2.22,2.02,.44,.52,1.08,.81,1.76,.81,.86,0,1.64-.48,2.02-1.25,1.11-2.24,3.66-4.1,6.37-4.63,.4-.08,.8-.12,1.2-.12,2.1,0,3.84,1.09,4.93,2,.41,.34,.92,.53,1.45,.53,1.19,0,2.17-.9,2.27-2.09,.17-2.03,.87-4.8,3.25-6.49,2-1.42,4.11-1.72,5.53-1.72,.24,0,.47,0,.7,.03h.17c.14,.64,.31,1.19,.49,1.66,1.34,3.48,5.37,7.08,9.79,7.08,.63,0,1.27-.08,1.88-.22,4.71-1.15,7.25-6.29,7.68-7.6,.24-.75,.95-4,.32-7.02,1.01-.56,2.71-1.26,4.85-1.26,.17,0,.34,0,.52,.01,2.91,.15,4.99,2.12,6.22,3.74,.44,.57,1.1,.9,1.81,.9,.99,0,1.86-.64,2.17-1.58,.54-1.69,1.71-3.91,4.17-4.86,1.06-.41,2.27-.63,3.48-.63,1.62,0,3.18,.4,4.38,1.13,.35,.21,.75,.33,1.16,.33,1.13,0,2.1-.85,2.26-1.98,.14-1.01,.41-1.99,.79-2.89,2.76-6.58,10.99-8.85,15.66-9.62,1.02-.17,1.78-.97,1.89-2s-.46-1.98-1.43-2.37c-5.02-2.01-10.18-3.64-15.35-4.85-3.82-.9-8.15-1.92-14.11-2.17-.92-.04-1.85-.06-2.77-.06-2.88,0-5.8,.2-8.65,.59-.66,.09-1.25,.46-1.61,1.02s-.46,1.26-.26,1.9c.21,.71,.31,1.43,.29,2.15-.07,2.03-1.08,3.52-1.7,4.24-1.07,.99-2.43,1.19-3.39,1.19h-.11c-.06-.12-.13-.25-.2-.38l.31-12.35c.02-.62-.21-1.2-.64-1.65-.43-.44-1.03-.69-1.64-.69"/><path class="cls-26" d="M653.61,89.05c-8.23,2.96-12.5-5.92-12.5-5.92,0,0-20.07,12.83-24.68,21.39"/><path class="cls-26" d="M635.03,111.36s-.16-17.37,6.09-28.23c0,0,3.9,17.55,10.01,24.73"/><path class="cls-26" d="M684.09,80.23c8.5-2.05,7.18-11.82,7.18-11.82,0,0,23.82-.32,32.37,4.29"/><path class="cls-26" d="M711.88,88.63s-9.42-14.6-20.61-20.22c0,0,6.4,16.8,5.24,26.16"/><path class="cls-60" d="M681.37,93.93c1.28,5.51-1.55,10.88-6.31,11.98s-9.66-2.47-10.94-7.99c-1.28-5.51,1.55-10.88,6.31-11.98,4.76-1.1,9.66,2.47,10.94,7.99"/><path class="cls-25" d="M681.37,93.93c1.28,5.51-1.55,10.88-6.31,11.98s-9.66-2.47-10.94-7.99c-1.28-5.51,1.55-10.88,6.31-11.98,4.76-1.1,9.66,2.47,10.94,7.99Z"/><path class="cls-37" d="M678.82,95.03c.89,3.84-1.08,7.59-4.4,8.35-3.32,.77-6.74-1.72-7.63-5.57s1.08-7.59,4.4-8.35c3.32-.77,6.74,1.72,7.63,5.57"/><path class="cls-24" d="M678.82,95.03c.89,3.84-1.08,7.59-4.4,8.35-3.32,.77-6.74-1.72-7.63-5.57s1.08-7.59,4.4-8.35c3.32-.77,6.74,1.72,7.63,5.57Z"/><path class="cls-60" d="M681.66,76.49c-.05-.15-.11-.3-.17-.45l.07-13.14c0-.37-.41-.57-.67-.33l-7.44,7.61c-2.8-.54-5.99-.33-9.17,.77-2.07,.71-3.91,1.73-5.47,2.94l-11.88-.25c-.37-.01-.59,.38-.37,.65l7,8.42c-.08,1.12,.06,2.23,.43,3.31,1.96,5.69,9.74,8.18,17.38,5.55s12.24-9.38,10.28-15.08"/><path class="cls-25" d="M681.66,76.49c-.05-.15-.11-.3-.17-.45l.07-13.14c0-.37-.41-.57-.67-.33l-7.44,7.61c-2.8-.54-5.99-.33-9.17,.77-2.07,.71-3.91,1.73-5.47,2.94l-11.88-.25c-.37-.01-.59,.38-.37,.65l7,8.42c-.08,1.12,.06,2.23,.43,3.31,1.96,5.69,9.74,8.18,17.38,5.55s12.24-9.38,10.28-15.08h0Z"/><polygon class="cls-30" points="652.86 78.49 650.11 75.56 654.91 75.93 652.86 78.49"/><polygon class="cls-6" points="652.86 78.49 650.11 75.56 654.91 75.93 652.86 78.49"/><polygon class="cls-30" points="677.4 68.78 679.95 66.22 679.95 70.31 677.4 68.78"/><polygon class="cls-6" points="677.4 68.78 679.95 66.22 679.95 70.31 677.4 68.78"/><path d="M660.03,88.83c-2.33,0-4.22-1.89-4.22-4.22s1.89-4.22,4.22-4.22,4.22,1.89,4.22,4.22-1.89,4.22-4.22,4.22"/><path class="cls-30" d="M660.03,81.16c1.91,0,3.45,1.55,3.45,3.45s-1.55,3.45-3.45,3.45-3.45-1.55-3.45-3.45,1.55-3.45,3.45-3.45m0-1.53c-2.75,0-4.99,2.24-4.99,4.99s2.24,4.99,4.99,4.99,4.99-2.24,4.99-4.99-2.24-4.99-4.99-4.99"/><path d="M675.63,83.95c-2.33,0-4.22-1.89-4.22-4.22s1.89-4.22,4.22-4.22,4.22,1.89,4.22,4.22-1.89,4.22-4.22,4.22"/><path class="cls-30" d="M675.63,76.27c1.91,0,3.45,1.55,3.45,3.45s-1.55,3.45-3.45,3.45-3.45-1.55-3.45-3.45,1.55-3.45,3.45-3.45m0-1.53c-2.75,0-4.99,2.24-4.99,4.99s2.24,4.99,4.99,4.99,4.99-2.24,4.99-4.99-2.24-4.99-4.99-4.99"/><path class="cls-7" d="M670.14,85.56c.36,.87-.03,1.86-.87,2.21s-1.82-.07-2.19-.94"/></g></g></g></g><g id="Artwork_57"><g class="cls-28"><g class="cls-48"><path class="cls-55" d="M784.13,69.55l24.19-6.42c.84-.22,1.51,.72,1.01,1.44l-14.52,21.16c-.22,.32-.22,.74,0,1.06l13.77,20.35c.5,.74-.21,1.69-1.06,1.42l-23.36-7.47c-.37-.12-.77,0-1.01,.3l-16.17,19.8c-.56,.69-1.67,.29-1.66-.6l.18-23.48c0-.38-.22-.72-.57-.87l-24.25-10.29c-.81-.34-.74-1.51,.1-1.76l24.88-7.3c.4-.12,.67-.48,.67-.9l.02-25.86c0-.9,1.14-1.28,1.68-.57l15.11,19.67c.23,.3,.62,.43,.98,.34"/><path class="cls-2" d="M784.13,69.55l24.19-6.42c.84-.22,1.51,.72,1.01,1.44l-14.52,21.16c-.22,.32-.22,.74,0,1.06l13.77,20.35c.5,.74-.21,1.69-1.06,1.42l-23.36-7.47c-.37-.12-.77,0-1.01,.3l-16.17,19.8c-.56,.69-1.67,.29-1.66-.6l.18-23.48c0-.38-.22-.72-.57-.87l-24.25-10.29c-.81-.34-.74-1.51,.1-1.76l24.88-7.3c.4-.12,.67-.48,.67-.9l.02-25.86c0-.9,1.14-1.28,1.68-.57l15.11,19.67c.23,.3,.62,.43,.98,.34Z"/><path class="cls-30" d="M808.94,63.17c.5,.22,.76,.87,.4,1.39l-14.51,21.16c-.22,.32-.22,.74,0,1.06l13.77,20.35c.5,.74-.21,1.69-1.06,1.42l-23.36-7.47c-.37-.12-.77,0-1.01,.3l-16.17,19.8c-.3,.36-.75,.42-1.11,.26-.32-.14-.56-.45-.56-.87l.18-23.48c0-.37-.22-.72-.56-.87h-.01s-24.25-10.3-24.25-10.3h-.01c-.8-.36-.73-1.52,.11-1.76l24.88-7.3c.4-.12,.67-.48,.67-.9l.02-25.86c0-.72,.74-1.11,1.31-.86,.14,.06,.26,.16,.37,.29l15.1,19.67c.1,.13,.23,.23,.37,.29,.19,.08,.41,.1,.62,.05l24.19-6.42c.22-.06,.44-.04,.62,.04m.69-1.57c-.55-.24-1.16-.29-1.75-.13l-23.69,6.29-14.79-19.26c-.27-.36-.63-.64-1.04-.82-.82-.36-1.77-.28-2.53,.21-.75,.49-1.2,1.32-1.2,2.22l-.03,25.28-24.32,7.14c-1.08,.32-1.83,1.25-1.9,2.38-.07,1.13,.55,2.15,1.58,2.6l23.81,10.1-.18,22.96c0,1.06,.61,2.02,1.58,2.45,1.11,.49,2.37,.19,3.13-.75l15.84-19.39,22.85,7.31c1.1,.35,2.25-.02,2.94-.94,.69-.92,.72-2.13,.07-3.08l-13.47-19.91,14.21-20.72c.45-.66,.58-1.47,.37-2.22-.22-.77-.76-1.4-1.49-1.72"/></g></g></g><g id="Artwork_20"><g class="cls-33"><g class="cls-58"><g><path class="cls-40" d="M112.9,69.04c-1.76-6.72-27.53-3.65-57.55,6.85-9.84,3.44-18.92,7.26-26.6,11.06-15.79,7.81-25.75,15.6-24.57,20.12,1.76,6.72,27.53,3.65,57.55-6.85,30.02-10.5,52.94-24.46,51.17-31.18m-52.48,24.83c-24.06,8.41-44.28,12.56-45.15,9.26-.87-3.3,17.94-12.81,42.01-21.23,24.06-8.41,44.28-12.56,45.15-9.26,.87,3.3-17.94,12.81-42.01,21.23"/><path class="cls-3" d="M112.9,69.04c-1.76-6.72-27.53-3.65-57.55,6.85-9.84,3.44-18.92,7.26-26.6,11.06-15.79,7.81-25.75,15.6-24.57,20.12,1.76,6.72,27.53,3.65,57.55-6.85,30.02-10.5,52.94-24.46,51.17-31.18Zm-52.48,24.83c-24.06,8.41-44.28,12.56-45.15,9.26-.87-3.3,17.94-12.81,42.01-21.23,24.06-8.41,44.28-12.56,45.15-9.26,.87,3.3-17.94,12.81-42.01,21.23Z"/><path class="cls-30" d="M102.64,65.47c5.9,0,9.62,1.15,10.25,3.56,1.76,6.72-21.15,20.68-51.17,31.18-19.25,6.73-36.75,10.41-47.29,10.41-5.9,0-9.62-1.15-10.25-3.56-1.18-4.52,8.79-12.31,24.57-20.12,7.7-3.81,16.77-7.63,26.6-11.06,19.25-6.73,36.75-10.41,47.29-10.41M18.84,104.27c6.94,0,23.12-3.94,41.58-10.4,24.06-8.41,42.87-17.92,42.01-21.23-.2-.76-1.46-1.14-3.57-1.14-6.94,0-23.12,3.94-41.58,10.4-24.06,8.41-42.87,17.92-42.01,21.23,.2,.77,1.46,1.14,3.57,1.14M102.64,61.39c-11.42,0-29.59,3.98-48.65,10.64-9.64,3.37-19.01,7.27-27.06,11.25C7.42,92.94-1.56,101.29,.22,108.11c1.73,6.61,11.13,6.61,14.21,6.61,11.42,0,29.59-3.98,48.65-10.64,5.92-2.07,57.8-20.7,53.78-36.08-1.73-6.61-11.12-6.61-14.21-6.61M26.53,99.25c6.53-3.48,17.22-8.29,32.1-13.49,13.84-4.84,25.07-7.84,32.54-9.24-6.53,3.48-17.22,8.29-32.1,13.49-13.84,4.84-25.07,7.84-32.54,9.24"/><path class="cls-46" d="M88.38,87.08c0,16.89-13.7,30.59-30.59,30.59s-30.59-13.69-30.59-30.59,13.7-30.59,30.59-30.59,30.59,13.69,30.59,30.59"/><path class="cls-3" d="M88.38,87.08c0,16.89-13.7,30.59-30.59,30.59s-30.59-13.69-30.59-30.59,13.7-30.59,30.59-30.59,30.59,13.69,30.59,30.59Z"/><path class="cls-3" d="M88.38,87.08c0,16.89-13.7,30.59-30.59,30.59s-30.59-13.69-30.59-30.59,13.7-30.59,30.59-30.59,30.59,13.69,30.59,30.59Z"/><path class="cls-30" d="M57.79,56.5c16.89,0,30.59,13.7,30.59,30.59s-13.69,30.59-30.59,30.59-30.59-13.7-30.59-30.59,13.69-30.59,30.59-30.59m0-4.09c-19.11,0-34.67,15.55-34.67,34.67s15.55,34.68,34.67,34.68,34.67-15.55,34.67-34.68-15.55-34.67-34.67-34.67"/><path class="cls-46" d="M88.38,87.07c0,16.89-13.7,30.59-30.59,30.59s-30.59-13.69-30.59-30.59,13.7-30.59,30.59-30.59,30.59,13.69,30.59,30.59"/><path class="cls-3" d="M88.38,87.07c0,16.89-13.7,30.59-30.59,30.59s-30.59-13.69-30.59-30.59,13.7-30.59,30.59-30.59,30.59,13.69,30.59,30.59Z"/><path class="cls-3" d="M88.38,87.07c0,16.89-13.7,30.59-30.59,30.59s-30.59-13.69-30.59-30.59,13.7-30.59,30.59-30.59,30.59,13.69,30.59,30.59Z"/><path class="cls-40" d="M112.09,69.01c-1.76-6.72-27.53-3.65-57.55,6.85-9.84,3.44-18.92,7.26-26.6,11.06-15.79,7.81-25.75,15.6-24.57,20.12,1.76,6.72,27.53,3.65,57.55-6.85,30.02-10.5,52.94-24.46,51.17-31.18m-52.48,24.83c-24.06,8.41-44.28,12.56-45.15,9.26s17.94-12.81,42.01-21.23c24.06-8.41,44.28-12.56,45.15-9.26,.87,3.3-17.94,12.81-42.01,21.23"/><path class="cls-3" d="M112.09,69.01c-1.76-6.72-27.53-3.65-57.55,6.85-9.84,3.44-18.92,7.26-26.6,11.06-15.79,7.81-25.75,15.6-24.57,20.12,1.76,6.72,27.53,3.65,57.55-6.85,30.02-10.5,52.94-24.46,51.17-31.18Zm-52.48,24.83c-24.06,8.41-44.28,12.56-45.15,9.26-.87-3.3,17.94-12.81,42.01-21.23,24.06-8.41,44.28-12.56,45.15-9.26,.87,3.3-17.94,12.81-42.01,21.23Z"/><path class="cls-46" d="M29.4,98.39c-6.21-15.71,1.48-33.47,17.19-39.7,15.71-6.21,33.47,1.48,39.69,17.19"/><path class="cls-3" d="M29.4,98.39c-6.21-15.71,1.48-33.47,17.19-39.7,15.71-6.21,33.47,1.48,39.69,17.19"/></g></g></g></g><g id="Artwork_18"><g class="cls-36"><g class="cls-29"><g><path class="cls-30" d="M306.83,92.18c-.09-3.29-.92-18.65-11.23-31.29-3.01-3.69-5.43-5.4-7.22-6.42-4.2-2.4-7.95-2.75-13.64-3.2-5.38-.44-11.12-.91-18.45,.8-3.6,.84-9.23,2.21-15.25,6.42-6.52,4.57-10.16,10.16-12.04,13.64-2.29,4.16-3.42,7.87-4.01,10.43-.75,3.25-1.56,6.75-.8,11.23,.24,1.4,.89,5.08,3.39,8.71,.41,.6,2.11,3.04,5.23,5.33,4.11,3.02,8.13,3.9,10.64,4.42,0,0,5.04,1.05,14.45,0,1.47-.17,2.7-.47,2.7-.47,.67-.16,1.2-.31,1.64-.47,.85-.29,1.57-.5,2.08-.68,0,0-.77,6.78,2.6,10.25,1.69,1.73,4.45,1.98,6.45,.63,1.77-1.18,3.76-3.59,4.58-8.47,0,0,0,8.83,5.62,8.83s6.76-10.43,6.76-10.43c.05,.64,.36,3.6,2.86,5.62,.55,.45,2.51,2.03,4.81,1.61,2.46-.46,3.8-2.92,4.81-4.81,.82-1.52,1.21-2.92,1.42-3.88,.27-.82,.63-1.96,.99-3.34,.21-.81,1.8-7.12,1.61-14.45"/><path class="cls-24" d="M306.83,92.18c-.09-3.29-.92-18.65-11.23-31.29-3.01-3.69-5.43-5.4-7.22-6.42-4.2-2.4-7.95-2.75-13.64-3.2-5.38-.44-11.12-.91-18.45,.8-3.6,.84-9.23,2.21-15.25,6.42-6.52,4.57-10.16,10.16-12.04,13.64-2.29,4.16-3.42,7.87-4.01,10.43-.75,3.25-1.56,6.75-.8,11.23,.24,1.4,.89,5.08,3.39,8.71,.41,.6,2.11,3.04,5.23,5.33,4.11,3.02,8.13,3.9,10.64,4.42,0,0,5.04,1.05,14.45,0,1.47-.17,2.7-.47,2.7-.47,.67-.16,1.2-.31,1.64-.47,.85-.29,1.57-.5,2.08-.68,0,0-.77,6.78,2.6,10.25,1.69,1.73,4.45,1.98,6.45,.63,1.77-1.18,3.76-3.59,4.58-8.47,0,0,0,8.83,5.62,8.83s6.76-10.43,6.76-10.43c.05,.64,.36,3.6,2.86,5.62,.55,.45,2.51,2.03,4.81,1.61,2.46-.46,3.8-2.92,4.81-4.81,.82-1.52,1.21-2.92,1.42-3.88,.27-.82,.63-1.96,.99-3.34,.21-.81,1.8-7.12,1.61-14.45h-.01Z"/><path class="cls-24" d="M228.19,79.34c-1.61,.8-8.83,22.46,11.23,29.69"/><path d="M271.52,92.18c-.68,6.89-2.2,10.63-6.42,11.23-5.62,.8-9.74-5.97-8.83-12.84s5.85-12.54,10.07-11.98c4.22,.56,5.97,5.56,5.18,13.59"/><path class="cls-24" d="M271.52,92.18c-.68,6.89-2.2,10.63-6.42,11.23-5.62,.8-9.74-5.97-8.83-12.84s5.85-12.54,10.07-11.98c4.22,.56,5.97,5.56,5.18,13.59h0Z"/><path d="M288.37,90.58c.77,5.77,4.43,9.25,7.91,8.78,3.48-.47,5.69-6.23,4.93-12-.77-5.77-4.22-9.35-7.71-8.89-3.48,.47-5.9,6.34-5.13,12.1"/><path class="cls-24" d="M288.37,90.58c.77,5.77,4.43,9.25,7.91,8.78,3.48-.47,5.69-6.23,4.93-12-.77-5.77-4.22-9.35-7.71-8.89-3.48,.47-5.9,6.34-5.13,12.1h0Z"/><path class="cls-24" d="M266.35,78.6s1.29,.27,2.67,.65c2.03,.57,3.31,1.69,4.57,3.96,1.02,1.83,1.51,5.62,1.14,9.77-.8,8.83-4.81,10.43-4.81,10.43"/><path class="cls-24" d="M293.5,78.48s4.85-1,7.71,3.28c3.2,4.81,2.41,16.04-.8,17.65"/><path class="cls-24" d="M279.26,102.3s-.05-.02-.07-.02c-1.38-.46-2.11-1.95-1.64-3.33,.52-1.52,1.67-3.63,4.28-5.39,.63-.43,1.41-.57,2.15-.37,1.66,.45,4.41,1.81,4.45,6.07,.02,1.52-1.29,2.74-2.8,2.61-.39-.03-.79-.11-1.16-.27-.68-.28-1.45-.32-2.12,.01l-1.09,.54c-.61,.31-1.34,.35-1.99,.15h-.01Z"/><path d="M284.35,93.79c.49,.17,4.01,4.81,1.61,5.62-3.28,1.09-3.05-1.08-3.05-1.08,.1,1.29-1.75,2-3.23,2.36-1.01,.25-1.97-.55-1.91-1.59,.13-2.12,4.17-6.12,6.58-5.32"/><path class="cls-24" d="M284.35,93.79c.49,.17,4.01,4.81,1.61,5.62-3.28,1.09-3.05-1.08-3.05-1.08,.1,1.29-1.75,2-3.23,2.36-1.01,.25-1.97-.55-1.91-1.59,.13-2.12,4.17-6.12,6.58-5.32Z"/><path class="cls-40" d="M232.21,80.95c.34-.08,2.34-.43,3.2-1.61,.73-1,.8-2.83,.8-3.2,0,.39,.06,2.24,.8,3.2,1.14,1.51,2.96,1.6,3.2,1.61-.25-.01-1.4-.05-2.41,.8-1.11,.94-1.6,3-1.61,3.2,0-.22-.49-2.26-1.61-3.2-1.01-.85-2.16-.82-2.41-.8"/><path class="cls-24" d="M232.21,80.95c.34-.08,2.34-.43,3.2-1.61,.73-1,.8-2.83,.8-3.2,0,.39,.06,2.24,.8,3.2,1.14,1.51,2.96,1.6,3.2,1.61-.25-.01-1.4-.05-2.41,.8-1.11,.94-1.6,3-1.61,3.2,0-.22-.49-2.26-1.61-3.2-1.01-.85-2.16-.82-2.41-.8h.02Z"/><path class="cls-46" d="M242.78,88.49c-.01,.45-.13,3.3-2.55,5.3-2,1.66-4.25,2.43-4.81,2.41,.73,.1,2.95,.51,4.81,2.41,2.21,2.24,2.39,4.97,2.41,5.62,.06-.94,.31-2.87,1.61-4.81,1.92-2.88,5.6-2.99,6.42-3.2-.45,.16-2-.47-2.89-.62-1.43-.26-2.26-1.29-2.73-1.78-1.98-2.12-2.22-4.58-2.27-5.3"/><path class="cls-24" d="M242.78,88.49c-.01,.45-.13,3.3-2.55,5.3-2,1.66-4.25,2.43-4.81,2.41,.73,.1,2.95,.51,4.81,2.41,2.21,2.24,2.39,4.97,2.41,5.62,.06-.94,.31-2.87,1.61-4.81,1.92-2.88,5.6-2.99,6.42-3.2-.45,.16-2-.47-2.89-.62-1.43-.26-2.26-1.29-2.73-1.78-1.98-2.12-2.22-4.58-2.27-5.3h.01Z"/><path class="cls-24" d="M241.03,109.83c1.49,.6,3.44,1.01,5.62,.8"/></g></g></g></g><g id="Artwork_27"><g class="cls-59"><g><g class="cls-57"><g><path class="cls-30" d="M354.62,114.75c3.73-2.53,7.63-7.1,10.79-11.78-1.11,5.54-1.62,11.52-.78,15.94,1.73,9.28,6.63,12.73,12.75,12.06,6.1-.91,9.95-5.48,9.25-14.9-.33-4.52-2.39-10.17-4.88-15.26,4.27,3.74,9.22,7.19,13.5,8.69,8.93,3.15,14.37,.64,16.84-4.99,2.26-5.72,.22-11.33-8.3-15.45-4.09-1.97-10.03-3.06-15.69-3.44,5.38-1.81,10.85-4.34,14.3-7.28,7.19-6.15,7.73-12.08,4.09-17.05-3.83-4.81-9.72-5.85-17.55-.55-3.73,2.53-7.63,7.1-10.79,11.78,1.11-5.54,1.62-11.52,.78-15.94-1.73-9.28-6.63-12.73-12.75-12.06-6.11,.9-9.95,5.48-9.25,14.9,.33,4.52,2.38,10.17,4.88,15.26-4.27-3.74-9.22-7.18-13.5-8.69-8.93-3.15-14.36-.65-16.85,4.99-2.26,5.71-.22,11.33,8.3,15.44,4.09,1.97,10.03,3.06,15.69,3.44-5.39,1.81-10.86,4.34-14.3,7.28-7.19,6.15-7.74,12.08-4.1,17.04,3.83,4.81,9.72,5.85,17.56,.55"/><path class="cls-22" d="M354.62,114.75c3.73-2.53,7.63-7.1,10.79-11.78-1.11,5.54-1.62,11.52-.78,15.94,1.73,9.28,6.63,12.73,12.75,12.06,6.1-.91,9.95-5.48,9.25-14.9-.33-4.52-2.39-10.17-4.88-15.26,4.27,3.74,9.22,7.19,13.5,8.69,8.93,3.15,14.37,.64,16.84-4.99,2.26-5.72,.22-11.33-8.3-15.45-4.09-1.97-10.03-3.06-15.69-3.44,5.38-1.81,10.85-4.34,14.3-7.28,7.19-6.15,7.73-12.08,4.09-17.05-3.83-4.81-9.72-5.85-17.55-.55-3.73,2.53-7.63,7.1-10.79,11.78,1.11-5.54,1.62-11.52,.78-15.94-1.73-9.28-6.63-12.73-12.75-12.06-6.11,.9-9.95,5.48-9.25,14.9,.33,4.52,2.38,10.17,4.88,15.26-4.27-3.74-9.22-7.18-13.5-8.69-8.93-3.15-14.36-.65-16.85,4.99-2.26,5.71-.22,11.33,8.3,15.44,4.09,1.97,10.03,3.06,15.69,3.44-5.39,1.81-10.86,4.34-14.3,7.28-7.19,6.15-7.74,12.08-4.1,17.04,3.83,4.81,9.72,5.85,17.56,.55"/></g></g><g class="cls-53"><g><path class="cls-31" d="M368.45,95.69c-4.4-1.83-6.48-6.87-4.65-11.26,1.83-4.39,6.89-6.46,11.29-4.64s6.48,6.87,4.65,11.26c-1.83,4.39-6.89,6.47-11.29,4.64"/><path class="cls-22" d="M368.45,95.69c-4.4-1.83-6.48-6.87-4.65-11.26,1.83-4.39,6.89-6.46,11.29-4.64s6.48,6.87,4.65,11.26c-1.83,4.39-6.89,6.47-11.29,4.64"/></g></g></g></g></g><g id="Artwork_54"><g class="cls-27"><g class="cls-42"><path class="cls-63" d="M467.09,166.63c-3.22,0-9.53-1.57-13.72-5.9-3.02-3.12-4.47-7.14-4.31-11.94,.34-10.2,5.14-15.4,12.77-20.49,2.95-1.97,6.41-3.08,8.27-3.68,.24-.08,.46-.15,.65-.21,.95-.32,2.04-.51,3.1-.7,2.99-.53,6.37-1.13,6.37-4.96,0-2.07-1.81-3.76-4.03-3.76-.6,0-1.22,.12-1.83,.36-.52,.11-5.61,1.19-14.63,2.25l-.22,.03c-1.12,.13-3,.36-5.26,.36-5.95,0-10.92-1.52-14.77-4.51-6.62-5.15-7.85-18.03-2.43-25.53,3.44-4.77,10.71-8.65,16.54-8.82,.7-.02,1.35-.03,1.98-.03,3.78,0,6.79,.44,14.91,1.73,1.1,.17,2.11,.26,3,.26h0c4.52,0,5.19-2.21,5.27-3.17,.16-1.97-1.54-4.13-3.51-4.49l-6.51-1.91c-4.88-1.44-8.59-5.56-9.45-10.51l-.02-.13c-.5-2.99-1.8-3.45-3.18-3.95-.36-.13-.73-.26-1.1-.45-1.17-.58-1.46-2.1-1.49-3.27-.15-4.73,3.51-12.68,8.29-15.5,.09-.03,.43-.14,.97-.17,.1,0,.19-.03,.27-.08,.08,.05,.17,.08,.27,.09,.81,.05,1.65,.3,2.5,.72,.82,.49,7.16,8.01,7.53,13.43,.11,1.65-.34,2.86-1.4,3.71-.02,.01-.03,.03-.05,.04-.19,.19-.45,.33-.69,.47-.44,.24-.98,.54-1.05,1.18-.08,.7,.38,1.53,2.91,3.75,1.22,1.07,4.49,2.2,7.02,2.95,5.52,1.66,7.16,3.3,8.25,4.38,2.61,2.61,3.98,6.19,3.96,10.34-.02,3.51-.78,5.79-2.89,8.72-2.34,3.25-7.05,4.95-10.37,5.43-2.32,.33-4.09,.48-5.73,.48s-3.16-.15-5.21-.35c-2.25-.22-5.05-.5-9.35-.7-.09,0-.23,0-.41,0-1.12,0-6.85,.15-9.55,3.09-1.08,1.18-1.56,2.64-1.42,4.35,.28,3.3,4.26,7.34,8.52,7.34,3.95,0,7.77-.9,11.46-1.77,3.45-.81,6.71-1.58,9.85-1.58,2.54,0,4.75,.52,6.74,1.58,4.51,2.41,7.63,5.27,8.19,11.43,.41,4.51-.98,13.62-9.2,15.81l-.47,.12c-8.25,2.2-22.06,5.87-22.63,17.41-.27,5.32,3.85,10.45,6.57,13.84,.86,1.08,1.83,2.28,2.02,2.79-.19,.06-.59,.14-1.28,.14"/><path d="M462.99,38.07c.08,.02,.16,.04,.24,.04,.71,.05,1.46,.26,2.23,.64,.99,.75,7.12,8.27,7.26,13.23,.04,1.31-.35,2.27-1.19,2.95-.03,.03-.07,.06-.1,.09-.13,.13-.34,.25-.56,.37-.47,.26-1.25,.69-1.35,1.63-.12,1.07,.64,2.1,3.1,4.26,1.04,.91,3.48,1.95,7.24,3.08,5.38,1.61,6.96,3.19,8,4.24,2.5,2.5,3.81,5.93,3.79,9.92-.02,3.37-.75,5.56-2.78,8.38-2.23,3.09-6.77,4.73-9.97,5.19-2.29,.33-4.03,.47-5.65,.47s-3.12-.15-5.15-.35c-2.26-.22-5.06-.5-9.38-.7-.09,0-.24,0-.44,0-1.64,0-7.19,.24-9.99,3.28-1.2,1.3-1.73,2.92-1.57,4.8,.3,3.57,4.43,7.88,9.11,7.88,4.02,0,7.87-.91,11.6-1.79,3.41-.8,6.64-1.57,9.71-1.57,2.44,0,4.56,.49,6.46,1.51,4.47,2.38,7.34,5.05,7.88,10.96,.39,4.34-.93,13.09-8.76,15.18l-.47,.12c-8.41,2.24-22.47,5.98-23.07,17.95-.28,5.55,3.92,10.78,6.7,14.24,.52,.65,1.12,1.4,1.52,1.96-.1,0-.2,0-.32,0-3.12,0-9.24-1.52-13.29-5.72-2.91-3-4.3-6.88-4.15-11.51,.33-9.95,5.03-15.04,12.51-20.02,2.89-1.92,6.29-3.02,8.13-3.61,.25-.08,.47-.15,.66-.21,.91-.3,1.98-.49,3.01-.68,3.06-.54,6.86-1.22,6.86-5.54,0-2.4-2.07-4.35-4.62-4.35-.66,0-1.34,.13-2,.38-.71,.15-5.76,1.2-14.53,2.23l-.22,.03c-1.11,.13-2.97,.35-5.19,.35-5.82,0-10.67-1.48-14.41-4.39-6.4-4.98-7.57-17.45-2.32-24.72,3.35-4.64,10.41-8.41,16.08-8.58,.73-.02,1.37-.03,1.96-.03,3.74,0,6.73,.44,14.81,1.72,1.13,.18,2.17,.27,3.09,.27,5.01,0,5.76-2.59,5.86-3.71,.18-2.23-1.73-4.69-3.96-5.11l-6.48-1.91c-4.67-1.37-8.22-5.32-9.04-10.04l-.02-.12c-.51-3.08-1.86-3.8-3.56-4.41-.36-.13-.7-.25-1.04-.42-.91-.45-1.14-1.75-1.17-2.76-.15-4.55,3.36-12.19,7.94-14.94,.11-.03,.37-.1,.75-.12,.08,0,.16-.02,.23-.03m.82-2.97l-.8,.79-.8-.79-.53,.17,.91,.9,.11-.04v.79c-.77,.03-1.2,.23-1.2,.23-6.8,3.97-11.33,17.56-6.8,19.83,1.83,.91,3.4,.57,3.97,3.97,0,.04,.01,.09,.02,.13,.91,5.24,4.77,9.47,9.87,10.97l6.54,1.92c3.05,.51,5.64,6.49-1.62,6.49-.84,0-1.8-.08-2.91-.25-8.34-1.32-11.24-1.73-15-1.73-.63,0-1.29,.01-2,.03-5.8,.17-13.27,3.91-17,9.06-5.61,7.77-4.42,20.92,2.55,26.35,4.91,3.82,10.75,4.64,15.13,4.64,2.45,0,4.43-.26,5.55-.39,9.63-1.13,14.73-2.27,14.73-2.27,.58-.23,1.14-.34,1.66-.34,2.01,0,3.44,1.55,3.44,3.17,0,4.53-5.3,3.85-9.06,5.1-1.7,.57-5.67,1.7-9.07,3.97-7.78,5.19-12.69,10.64-13.03,20.96-.48,14.49,13.45,18.45,18.62,18.45,.9,0,1.53-.12,1.78-.32,1.34-1.09-8.9-8.99-8.5-17,.57-11.33,14.68-14.87,22.66-17,8.5-2.27,10.07-11.63,9.63-16.43-.57-6.23-3.61-9.29-8.5-11.9-2.27-1.21-4.61-1.65-7.02-1.65-6.63,0-13.78,3.35-21.31,3.35-3.97,0-7.68-3.76-7.93-6.8-.52-6.3,8.22-6.81,10.38-6.81,.17,0,.3,0,.38,0,8.21,.39,11.02,1.05,14.58,1.05,1.6,0,3.35-.13,5.81-.48,3.65-.52,8.38-2.36,10.77-5.67,2.15-2.99,2.98-5.38,3-9.06,.03-4.59-1.6-8.24-4.13-10.77-1.13-1.13-2.83-2.83-8.5-4.53-2.32-.7-5.65-1.82-6.8-2.83-4.53-3.97-2.27-3.4-1.13-4.53,5.67-4.53-5.1-17.56-6.23-18.13-1.07-.53-1.99-.73-2.72-.78v-.79l.11,.04,.91-.9-.53-.17Z"/><path class="cls-30" d="M463.81,35.11l.53,.17-.91,.9-.11-.04v.79c.73,.05,1.65,.25,2.72,.78,1.13,.57,11.9,13.6,6.23,18.13-1.13,1.13-3.4,.57,1.13,4.53,1.15,1.01,4.48,2.14,6.8,2.83,5.67,1.7,7.37,3.4,8.5,4.53,2.53,2.53,4.16,6.17,4.13,10.77-.02,3.69-.84,6.07-3,9.06-2.38,3.31-7.12,5.15-10.77,5.67-2.46,.35-4.21,.48-5.81,.48-3.56,0-6.38-.66-14.58-1.05-.08,0-.21,0-.38,0-2.16,0-10.91,.51-10.38,6.81,.25,3.04,3.97,6.8,7.93,6.8,7.52,0,14.68-3.35,21.31-3.35,2.41,0,4.75,.44,7.02,1.65,4.89,2.61,7.93,5.67,8.5,11.9,.44,4.8-1.13,14.16-9.63,16.43-7.98,2.13-22.1,5.67-22.66,17-.4,8,9.83,15.9,8.5,17-.25,.2-.88,.32-1.78,.32-5.17,0-19.1-3.97-18.62-18.45,.34-10.32,5.25-15.78,13.03-20.96,3.4-2.27,7.37-3.4,9.06-3.97,3.76-1.25,9.07-.57,9.07-5.1,0-1.62-1.43-3.17-3.44-3.17-.52,0-1.08,.1-1.66,.34,0,0-5.1,1.13-14.73,2.27-1.11,.13-3.1,.39-5.55,.39-4.38,0-10.23-.82-15.13-4.64-6.97-5.42-8.16-18.58-2.55-26.35,3.72-5.16,11.2-8.89,17-9.06,.71-.02,1.37-.03,2-.03,3.75,0,6.66,.42,15,1.73,1.11,.18,2.07,.25,2.91,.25,7.26,0,4.67-5.98,1.62-6.49l-6.54-1.92c-5.1-1.5-8.96-5.74-9.86-10.97,0-.04-.02-.09-.02-.13-.57-3.4-2.14-3.05-3.97-3.97-4.53-2.27,0-15.86,6.8-19.83,0,0,.44-.19,1.2-.23v-.79l-.11,.04-.91-.9,.53-.17,.8,.79,.8-.79Zm0-1.77c-.28,0-.55,.07-.8,.19-.25-.13-.52-.19-.8-.19-.19,0-.37,.03-.55,.09l-.53,.17c-.59,.19-1.03,.68-1.17,1.28-.09,.37-.05,.76,.09,1.1-5.36,3.53-9.11,11.87-8.94,17.29,.11,3.28,1.58,4.7,2.8,5.31,.5,.25,.96,.41,1.36,.56,1.11,.4,1.38,.49,1.65,2.11l.02,.14c1.01,5.83,5.37,10.68,11.11,12.37l6.54,1.92c.07,.02,.14,.04,.21,.05,.77,.13,1.64,1.21,1.58,1.97-.05,.6-1.22,1-2.91,1-.77,0-1.66-.08-2.63-.23-8.26-1.3-11.31-1.75-15.27-1.75-.62,0-1.29,.01-2.05,.03-6.59,.2-14.49,4.41-18.38,9.8-6.19,8.57-4.75,22.83,2.9,28.78,4.27,3.32,9.73,5.01,16.22,5.01,2.4,0,4.36-.23,5.54-.37l.21-.03c9.58-1.13,14.69-2.25,14.91-2.3,.09-.02,.19-.05,.27-.08,.35-.14,.69-.21,1-.21,1,0,1.67,.72,1.67,1.4,0,1.54-.74,1.98-4.42,2.64-1.14,.2-2.31,.41-3.43,.78-.18,.06-.39,.13-.63,.21-1.97,.63-5.63,1.82-8.86,3.97-8.03,5.35-13.45,11.2-13.82,22.38-.18,5.47,1.49,10.06,4.97,13.66,5.06,5.24,12.3,6.62,15.42,6.62,1.37,0,2.3-.23,2.9-.72,.58-.47,1.36-1.56,.09-3.55-.44-.69-1.11-1.52-1.88-2.49-2.5-3.11-6.28-7.81-6.06-12.24,.49-9.82,13.26-13.22,20.88-15.25l.47-.12c9.73-2.6,11.41-13.11,10.94-18.3-.69-7.64-4.94-10.91-9.43-13.3-2.35-1.25-4.92-1.86-7.85-1.86-3.42,0-6.8,.8-10.39,1.64-3.56,.84-7.24,1.71-10.92,1.71-3.17,0-6-3.13-6.17-5.17-.09-1.06,.17-1.87,.8-2.56,1.69-1.84,5.71-2.33,7.82-2.33,.14,0,.24,0,.3,0,4.24,.2,7,.47,9.23,.69,2.04,.2,3.65,.36,5.44,.36s3.63-.15,6.06-.5c3.96-.57,9.18-2.54,11.95-6.38,2.41-3.34,3.31-6.08,3.33-10.09,.03-4.8-1.58-8.96-4.65-12.03-1.25-1.25-3.15-3.15-9.24-4.98-3.72-1.12-5.61-2.01-6.14-2.47-.77-.67-1.27-1.15-1.59-1.49,.15-.11,.31-.23,.47-.38,1.2-.99,2.52-2.82,2.18-6.03-.65-6.17-7.3-14.27-8.79-15.01-.26-.13-.53-.25-.79-.36,.09-.29,.1-.6,.03-.91-.14-.6-.58-1.09-1.17-1.28l-.53-.17c-.18-.06-.37-.09-.55-.09"/><path d="M461.42,46.74c0,1.54-1.25,2.79-2.79,2.79s-2.79-1.25-2.79-2.79,1.25-2.79,2.79-2.79,2.79,1.25,2.79,2.79"/><path d="M470.64,46.74c0,1.54-1.25,2.79-2.79,2.79s-2.79-1.25-2.79-2.79,1.25-2.79,2.79-2.79,2.79,1.25,2.79,2.79"/><polyline class="cls-11" points="481.77 75.15 482.09 73.24 484.23 73.39"/><polyline class="cls-11" points="475.79 68.25 476.1 66.34 478.24 66.46"/><polyline class="cls-11" points="466.25 67.14 466.5 65.21 468.65 65.28"/><polyline class="cls-11" points="485.69 79.11 487.21 78.02 488.7 79.47"/><polyline class="cls-11" points="477.94 85.31 480.11 85.35 479.82 87.69"/><polyline class="cls-11" points="443.43 90.02 442.97 88.23 440.91 88.34"/><polyline class="cls-11" points="451.27 89.55 451.69 87.66 449.67 86.98"/><polyline class="cls-11" points="469.63 90.56 470.92 88.83 468.93 87.61"/><polyline class="cls-11" points="445.83 105.2 444.23 104.06 442.84 105.72"/><polyline class="cls-11" points="440.06 99.28 438.59 98.09 437.03 99.5"/><polyline class="cls-11" points="461.85 85.28 463.45 83.8 461.66 82.26"/><polyline class="cls-11" points="470.02 113.02 468.74 111.63 470.04 109.99"/><polyline class="cls-11" points="458.85 113.23 457.96 111.58 459.6 110.3"/><polyline class="cls-11" points="447.01 114.16 447.39 112.41 449.4 112.3"/><polyline class="cls-11" points="471.17 127.78 473.11 128.38 472.48 130.51"/><polyline class="cls-11" points="456.12 137.15 458.3 137.19 458 139.53"/><polyline class="cls-11" points="483.1 126.83 482.88 125.02 480.85 124.8"/><polyline class="cls-11" points="466.27 134.4 466.29 132.56 464.29 132.1"/><polyline class="cls-11" points="485.02 111.66 482.91 111.63 483 113.92"/><polyline class="cls-11" points="458.78 147.27 457.74 145.36 455.8 146.72"/><polyline class="cls-11" points="476.33 106 474.63 106.87 475.33 108.86"/><polyline class="cls-11" points="489.74 119.39 488.31 118.27 486.71 119.51"/></g></g></g><g id="Artwork_24"><g class="cls-50"><g class="cls-65"><g class="cls-49"><g><path class="cls-34" d="M132.08,196.82c-.35,0-.7-.04-1.04-.13l-1.57-.39c-2.29-.58-3.7-2.91-3.13-5.2l20.98-84.23c-8.44-8.13-18.64-31.59-19.7-37.19-1.52-8.05-2.35-18.17,4.8-25.04,1.59-1.53,3.57-2.85,5.73-3.83,2.91-1.72,6.1-2.58,9.53-2.58,1.61,0,3.3,.2,5,.58,7.56,1.7,12.89,7.08,15.86,15.99,.15,.44,.29,.98,.46,1.65,3.46-2.54,8.58-5.68,13.99-6.83,1.2-.42,2.59-.62,4.14-.62,7.82,0,19.4,5.7,19.4,17.91,0,7.09-1.26,11.2-5.19,16.9-1.45,2.11-6.8,8.45-11.42,11.63-17.11,11.8-28.48,15.63-33.44,16.84l-20.24,81.29c-.48,1.91-2.18,3.26-4.16,3.26h0Z"/><path class="cls-30" d="M147.68,39.99c1.4,0,2.95,.16,4.61,.54,6.94,1.56,11.83,6.58,14.56,14.81,.34,1.01,.67,2.61,.98,4.22,3.24-2.64,9.25-6.92,15.63-8.25,1.04-.37,2.29-.57,3.66-.57,7.19,0,17.62,5.21,17.62,16.14,0,6.63-1.09,10.41-4.88,15.9-1.22,1.77-6.43,8.05-10.96,11.19-18.41,12.7-30.03,16-33.89,16.82l-20.51,82.35c-.28,1.14-1.31,1.91-2.44,1.91-.2,0-.41-.02-.61-.08l-1.57-.39c-1.35-.33-2.16-1.7-1.83-3.05l21.23-85.25c-8.01-6.84-18.87-31.28-19.93-36.92-1.65-8.73-1.84-17.54,4.29-23.43,1.41-1.37,3.25-2.6,5.32-3.54,2.09-1.25,4.94-2.39,8.7-2.39m0-3.55h0c-3.71,0-7.19,.94-10.35,2.79-2.31,1.06-4.44,2.49-6.14,4.13-7.86,7.55-6.8,18.83-5.31,26.65,1.05,5.58,10.96,28.4,19.48,37.4l-20.74,83.26c-.81,3.25,1.17,6.54,4.42,7.35l1.57,.39c.48,.12,.98,.18,1.46,.18,2.79,0,5.21-1.89,5.88-4.6l19.99-80.27c5.54-1.5,16.75-5.65,32.98-16.84,5.09-3.51,10.56-10.19,11.87-12.09,4.12-5.98,5.5-10.49,5.5-17.9,0-13.43-12.64-19.69-21.17-19.69-1.7,0-3.25,.23-4.61,.69-4.61,1-8.95,3.28-12.52,5.67-3.19-9.02-9.02-14.72-16.93-16.49-1.83-.41-3.65-.62-5.39-.62"/><path class="cls-67" d="M153.59,111.04s12.39-1.26,35.33-17.07c4.53-3.13,9.75-9.42,10.96-11.19,3.78-5.49,4.88-9.26,4.88-15.9,0-13.46-15.84-18.25-21.93-15.3"/><path class="cls-20" d="M153.59,111.04s12.39-1.26,35.33-17.07c4.53-3.13,9.75-9.42,10.96-11.19,3.78-5.49,4.88-9.26,4.88-15.9,0-13.46-15.84-18.25-21.93-15.3"/><path class="cls-30" d="M129.9,194.58l1.57,.39c1.35,.33,2.71-.49,3.05-1.83l28.1-112.82c.33-1.35-.49-2.71-1.83-3.05l-1.57-.39c-1.35-.33-2.71,.49-3.05,1.83l-28.1,112.82c-.33,1.35,.49,2.71,1.83,3.05"/><path class="cls-9" d="M129.9,194.58l1.57,.39c1.35,.33,2.71-.49,3.05-1.83l28.1-112.82c.33-1.35-.49-2.71-1.83-3.05l-1.57-.39c-1.35-.33-2.71,.49-3.05,1.83l-28.1,112.82c-.33,1.35,.49,2.71,1.83,3.05Z"/><path class="cls-9" d="M134.08,194.08c-.2,.77-1.44,.91-3.36,.43-1.92-.48-2.77-1.36-2.57-2.13s1.49-1.1,3.41-.62,2.72,1.55,2.53,2.32h0Z"/><path class="cls-67" d="M136.15,44.42c2.43-2.01,7.49-5.84,16.16-3.9,6.94,1.56,11.83,6.58,14.56,14.81,.56,1.67,1.11,4.89,1.52,7.19"/><path class="cls-20" d="M136.15,44.42c2.43-2.01,7.49-5.84,16.16-3.9,6.94,1.56,11.83,6.58,14.56,14.81,.56,1.67,1.11,4.89,1.52,7.19"/><path class="cls-34" d="M165.36,61.74s12.01-11.73,23.16-10.78c3.72,.32,7.96,1.65,10.38,6.09,5.68,10.39,1.33,19.89-3.36,26.09-2.87,3.79-6.46,6.99-10.46,9.55-7.73,4.93-26.32,16.27-32.54,15.34-7.93-1.17-21.95-32.22-23.17-38.67-1.65-8.73-1.84-17.54,4.29-23.43,5.49-5.28,17.08-8.79,26.22,.59,0,0,4.27,4.11,5.49,15.23"/><path class="cls-9" d="M165.36,61.74s12.01-11.73,23.16-10.78c3.72,.32,7.96,1.65,10.38,6.09,5.68,10.39,1.33,19.89-3.36,26.09-2.87,3.79-6.46,6.99-10.46,9.55-7.73,4.93-26.32,16.27-32.54,15.34-7.93-1.17-21.95-32.22-23.17-38.67-1.65-8.73-1.84-17.54,4.29-23.43,5.49-5.28,17.08-8.79,26.22,.59,0,0,4.27,4.11,5.49,15.23h0Z"/><g class="cls-35"><g><path class="cls-34" d="M162.68,79.41c-.21-.41-.72-1.21-1.69-1.79-.36-.22-1.1-.65-2.16-.64s-1.81,.47-2.11,.67l-7.62,28.46s2.61,5.01,6.85,1.57l6.72-28.27h0Z"/><g class="cls-39"><path class="cls-20" d="M162.68,79.41c-.21-.41-.72-1.21-1.69-1.79-.36-.22-1.1-.65-2.16-.64s-1.81,.47-2.11,.67l-7.62,28.46s2.61,5.01,6.85,1.57l6.72-28.27h0Z"/></g></g></g><g class="cls-47"><g class="cls-45"><g><rect x="145.36" y="67.17" width="8.87" height=".32" transform="translate(-12.5 92.5) rotate(-33.02)"/><rect class="cls-10" x="145.36" y="67.17" width="8.87" height=".32" transform="translate(-12.5 92.5) rotate(-33.02)"/><rect x="162.5" y="83.38" width="18.87" height=".3" transform="translate(-17.75 107.12) rotate(-33)"/><rect class="cls-14" x="162.5" y="83.38" width="18.87" height=".3" transform="translate(-17.75 107.12) rotate(-33)"/><rect x="144.74" y="75.69" width="30.09" height=".66" transform="translate(-15.6 99.47) rotate(-33.06)"/><rect class="cls-13" x="144.74" y="75.69" width="30.09" height=".66" transform="translate(-15.6 99.47) rotate(-33.06)"/><rect x="145.36" y="67.17" width="8.87" height=".32" transform="translate(-12.5 92.5) rotate(-33.02)"/><rect x="162.5" y="83.38" width="18.87" height=".3" transform="translate(-17.75 107.12) rotate(-33)"/><rect x="144.74" y="75.69" width="30.09" height=".66" transform="translate(-15.6 99.47) rotate(-33.06)"/><rect class="cls-17" x="145.36" y="67.17" width="8.87" height=".32" transform="translate(-12.5 92.5) rotate(-33.02)"/><rect class="cls-15" x="162.5" y="83.38" width="18.87" height=".3" transform="translate(-17.75 107.12) rotate(-33)"/><rect class="cls-12" x="144.74" y="75.69" width="30.09" height=".66" transform="translate(-15.6 99.47) rotate(-33.06)"/></g></g></g><g class="cls-66"><path class="cls-20" d="M147.26,104.25s3.55,5.44,10.05,3.07"/></g></g></g></g></g></g></svg>