<?xml version="1.0" encoding="UTF-8"?><svg xmlns="http://www.w3.org/2000/svg" xmlns:xlink="http://www.w3.org/1999/xlink" viewBox="0 0 324.45 106.68"><defs><style>.cls-1{clip-path:url(#clippath-11);}.cls-2{clip-path:url(#clippath-16);}.cls-3{fill:#fff;}.cls-4{stroke:#231f20;stroke-width:.92px;}.cls-4,.cls-5,.cls-6,.cls-7,.cls-8,.cls-9,.cls-10,.cls-11,.cls-12,.cls-13,.cls-14,.cls-15,.cls-16{fill:none;}.cls-4,.cls-5,.cls-6,.cls-10,.cls-13,.cls-14,.cls-15{stroke-miterlimit:10;}.cls-5,.cls-6,.cls-7,.cls-8,.cls-10,.cls-14,.cls-15,.cls-16{stroke:#000;}.cls-5,.cls-7{stroke-width:1.42px;}.cls-6{stroke-width:1.1px;}.cls-7,.cls-8,.cls-11,.cls-12,.cls-15,.cls-16{stroke-linecap:round;}.cls-7,.cls-8,.cls-11,.cls-12,.cls-16{stroke-linejoin:round;}.cls-17{clip-path:url(#clippath-2);}.cls-18{clip-path:url(#clippath-13);}.cls-19{fill:#a70e19;}.cls-20{isolation:isolate;}.cls-8{stroke-width:.55px;}.cls-21{clip-path:url(#clippath-15);}.cls-22{clip-path:url(#clippath-6);}.cls-23{fill:#84ccb0;}.cls-24{clip-path:url(#clippath-7);}.cls-25{clip-path:url(#clippath-1);}.cls-26{clip-path:url(#clippath-4);}.cls-27{mix-blend-mode:hard-light;}.cls-28{fill:#f686b0;}.cls-29{clip-path:url(#clippath-12);}.cls-30{mix-blend-mode:screen;}.cls-31{clip-path:url(#clippath-9);}.cls-32{clip-path:url(#clippath);}.cls-10,.cls-15,.cls-16{stroke-width:.71px;}.cls-33{clip-path:url(#clippath-3);}.cls-34{mix-blend-mode:soft-light;opacity:.58;}.cls-35{clip-path:url(#clippath-8);}.cls-11{stroke-width:2.94px;}.cls-11,.cls-12,.cls-13{stroke:#fff;}.cls-12,.cls-13{stroke-width:3.7px;}.cls-36{clip-path:url(#clippath-14);}.cls-37{clip-path:url(#clippath-17);}.cls-38{clip-path:url(#clippath-5);}.cls-39{fill:#b33077;}.cls-14{stroke-width:.36px;}.cls-40{clip-path:url(#clippath-10);}.cls-41{fill:#840b19;}.cls-42{fill:#e81f7b;}</style><clipPath id="clippath"><rect class="cls-9" x="224" y="0" width="37.37" height="106.68"/></clipPath><clipPath id="clippath-1"><rect class="cls-9" x="224" y="0" width="37.37" height="106.68"/></clipPath><clipPath id="clippath-2"><rect class="cls-9" x="224" y="0" width="37.37" height="106.68"/></clipPath><clipPath id="clippath-3"><rect class="cls-9" x="224" y="0" width="37.37" height="106.68"/></clipPath><clipPath id="clippath-4"><rect class="cls-9" x="224" y="0" width="37.37" height="106.68"/></clipPath><clipPath id="clippath-5"><rect class="cls-9" y="22" width="64" height="72.26"/></clipPath><clipPath id="clippath-6"><rect class="cls-9" y="22" width="64" height="72.26"/></clipPath><clipPath id="clippath-7"><rect class="cls-9" x="60" y="33" width="84" height="49.76"/></clipPath><clipPath id="clippath-8"><rect class="cls-9" x="60" y="33" width="84" height="49.76"/></clipPath><clipPath id="clippath-9"><rect class="cls-9" x="148" y="9" width="63.2" height="73.33"/></clipPath><clipPath id="clippath-10"><rect class="cls-9" x="148" y="9" width="63.2" height="73.33"/></clipPath><clipPath id="clippath-11"><rect class="cls-9" x="274" y="8" width="50.45" height="97.54"/></clipPath><clipPath id="clippath-12"><rect class="cls-9" x="274" y="8" width="50.45" height="97.54"/></clipPath><clipPath id="clippath-13"><rect class="cls-9" x="274" y="8" width="50.45" height="97.54"/></clipPath><clipPath id="clippath-14"><rect class="cls-9" x="288.46" y="32.03" width="8.92" height="19.91"/></clipPath><clipPath id="clippath-15"><rect class="cls-9" x="288.46" y="32.03" width="8.92" height="19.91"/></clipPath><clipPath id="clippath-16"><rect class="cls-9" x="286.61" y="24.69" width="21.13" height="15.16"/></clipPath><clipPath id="clippath-17"><rect class="cls-9" x="287.37" y="48.43" width="6.76" height="2.92"/></clipPath></defs><g class="cls-20"><g id="Layer_1"><g id="Artwork_41"><g class="cls-32"><polygon class="cls-42" points="225.47 63.77 251.96 1.47 242.77 46.73 256.93 40.85 237.54 105.21 241.74 57.04 225.47 63.77"/><g class="cls-25"><polygon class="cls-11" points="225.47 63.77 251.96 1.47 242.77 46.73 256.93 40.85 237.54 105.21 241.74 57.04 225.47 63.77"/></g><polygon class="cls-23" points="256.93 40.85 259.9 43.98 237.54 105.21 256.93 40.85"/><g class="cls-17"><polygon class="cls-11" points="256.93 40.85 259.9 43.98 237.54 105.21 256.93 40.85"/></g><polygon class="cls-23" points="225.47 63.75 241.86 57.01 241.35 61.42 228.5 66.76 225.47 63.75"/><g class="cls-33"><polygon class="cls-11" points="225.47 63.75 241.86 57.01 241.35 61.42 228.5 66.76 225.47 63.75"/></g><polygon class="cls-23" points="251.95 1.47 246.38 45.23 242.77 46.73 251.95 1.47"/><g class="cls-26"><polygon class="cls-11" points="251.95 1.47 246.38 45.23 242.77 46.73 251.95 1.47"/></g><polygon class="cls-42" points="225.47 64.11 251.96 1.81 242.77 47.07 256.93 41.19 237.54 105.55 241.74 57.38 225.47 64.11"/><polygon class="cls-8" points="225.47 64.11 251.96 1.81 242.77 47.07 256.93 41.19 237.54 105.55 241.74 57.38 225.47 64.11"/><polygon class="cls-23" points="256.93 41.19 259.9 44.32 237.54 105.55 256.93 41.19"/><polygon class="cls-8" points="256.93 41.19 259.9 44.32 237.54 105.55 256.93 41.19"/><polygon class="cls-23" points="225.47 64.09 241.86 57.35 241.35 61.76 228.5 67.1 225.47 64.09"/><polygon class="cls-8" points="225.47 64.09 241.86 57.35 241.35 61.76 228.5 67.1 225.47 64.09"/><polygon class="cls-23" points="251.95 1.81 246.38 45.57 242.77 47.07 251.95 1.81"/><polygon class="cls-8" points="251.95 1.81 246.38 45.57 242.77 47.07 251.95 1.81"/></g></g><g id="Artwork_26"><g class="cls-38"><g class="cls-22"><path class="cls-39" d="M30.65,93.34c-1.44,0-2.73-.86-3.28-2.19v-.03s-.02-.03-.02-.03c-.53-1.56-.14-3.1,.2-4.45,.15-.59,.29-1.15,.36-1.7v-.03s.01-.03,.01-.03c.3-1.53,.3-3.16,.3-4.74v-.13c-.02-.35-.02-.71-.03-1.1-.03-1.46-.06-3.07-.58-4.12-.02,.28-.02,.58-.02,.88,0,1.49-.02,3.97-3.06,3.97-.11,0-.22,0-.34,0h-.05s-.05-.01-.05-.01c-3.49-.58-3.11-3.73-2.86-5.82,.09-.74,.17-1.44,.13-2v-.04c-.1-2.82-2.53-5-4.82-6.82-.57-.32-.89-.37-1.04-.37-.14,0-.19,.03-.25,.11-.4,.49-.67,2.06,.32,6.75l.04,.19c.58,2.09,.38,3.92-.56,5.16-.65,.86-1.61,1.35-2.63,1.35-.91,0-1.75-.39-2.36-1.1-.57-.67-1.19-1.9-.87-3.99v-.04c1.77-8.77-.47-14.67-4.93-21.88v-.02C.38,44.4-.13,37.01,2.88,31.34c2.58-5.2,7.92-8.42,13.92-8.42,2.88,0,5.7,.78,8.14,2.25,.82,.44,1.63,1.02,2.55,1.84,1.24,1.09,2.36,2.33,3.34,3.67,.35,.48,.66,1.08,.97,1.66,.06,.11,.13,.24,.2,.37,.07-.13,.14-.26,.2-.38,.3-.58,.62-1.18,.96-1.66,.98-1.35,2.11-2.58,3.34-3.67,.93-.82,1.74-1.4,2.56-1.84,2.44-1.47,5.26-2.25,8.14-2.25,6,0,11.34,3.23,13.92,8.42,1.41,2.66,2.06,5.64,1.94,8.85,.09,2.08-.18,4.11-.8,6.04v.02c-2.21,6.38-6.91,11.12-11.45,15.71-1.22,1.24-2.49,2.52-3.67,3.79-.36,.43-.74,.85-1.11,1.26-1,1.11-1.95,2.16-2.58,3.4-1.48,3.24-1.54,7.11-1.43,10.13,.05,.58,.13,1.19,.23,1.83,.28,1.94,.6,4.14-.34,6.13l-.02,.04-.03,.04c-.56,.91-1.5,1.43-2.59,1.43h0c-1.03,0-2.01-.48-2.64-1.28-1.33-1.29-1.16-4.26-.71-8.96,.19-1.96,.49-5.14,.12-6-1.58,1.24-2.44,6.67-2.52,10.15-.01,.85,.12,1.71,.26,2.62,.2,1.28,.4,2.61,.19,3.99v.03c-.32,1.65-1.65,2.76-3.32,2.76"/><path class="cls-3" d="M47.2,23.84c5.34,0,10.57,2.82,13.1,7.92,1.41,2.66,1.95,5.54,1.84,8.43,.09,1.94-.15,3.88-.75,5.76-2.73,7.9-9.44,13.25-14.94,19.2-1.33,1.58-2.89,3.02-3.83,4.87-1.48,3.25-1.65,7.06-1.52,10.58,.19,2.45,1.07,5.18-.03,7.51-.41,.68-1.1,.99-1.81,.99s-1.48-.34-1.95-.98c-2.38-2.1,1.56-15.34-1.22-15.34-.07,0-.14,0-.21,.02-2.51,1.23-3.22,8.51-3.28,11.11-.04,2.18,.79,4.32,.46,6.5-.26,1.34-1.32,2.02-2.41,2.02-.98,0-1.98-.54-2.43-1.63-.64-1.91,.36-3.83,.6-5.74,.33-1.67,.32-3.37,.32-5.07-.1-2.19,.15-5.3-1.53-6.65-.03-.04-.09-.06-.17-.06-.21,0-.51,.15-.54,.29-.7,1.9,.76,5.15-2.37,5.15-.09,0-.19,0-.29,0-3.58-.6-1.76-4.57-1.96-6.99-.12-3.27-2.83-5.66-5.22-7.56-.63-.36-1.14-.52-1.56-.52-2.59,0-1.17,6.34-.78,8.19,1,3.57-.67,5.38-2.29,5.38-1.39,0-2.73-1.33-2.32-4.03,1.79-8.89-.41-15.04-5.06-22.55-3.29-5.7-4.55-12.87-1.35-18.88,2.53-5.1,7.76-7.92,13.1-7.92,2.64,0,5.3,.69,7.69,2.13,.88,.47,1.66,1.07,2.4,1.73,1.19,1.05,2.27,2.24,3.21,3.52,.7,.96,1.36,2.7,1.91,3.14,.55-.44,1.21-2.18,1.91-3.14,.94-1.29,2.01-2.47,3.21-3.52,.74-.65,1.52-1.26,2.4-1.73,2.38-1.44,5.05-2.13,7.69-2.13m0-1.84c-3.04,0-6.02,.82-8.6,2.37-.87,.47-1.74,1.09-2.71,1.95-1.29,1.13-2.46,2.42-3.48,3.82-.15,.2-.29,.42-.42,.64-.13-.22-.27-.44-.42-.64-1.02-1.4-2.19-2.69-3.48-3.82-.97-.86-1.83-1.48-2.71-1.95-2.58-1.55-5.55-2.37-8.6-2.37h0c-3.02,0-5.97,.8-8.54,2.3-2.68,1.57-4.83,3.86-6.2,6.62C.38,34.09-.28,37.65,.11,41.5c.34,3.38,1.49,6.86,3.34,10.06v.02s.03,.02,.03,.02c4.34,7.02,6.52,12.74,4.82,21.21v.04s-.02,.04-.02,.04c-.29,1.9,.09,3.58,1.08,4.72,.78,.9,1.89,1.42,3.06,1.42,1.31,0,2.53-.63,3.36-1.72,.65-.85,1.6-2.76,.72-5.94l-.03-.16c-.17-.81-.45-2.16-.58-3.48-.11-1.11-.07-1.76,0-2.13,.04,.02,.09,.05,.15,.07,2.11,1.68,4.32,3.68,4.4,6.09v.04s0,.04,0,.04c.04,.46-.04,1.15-.12,1.81-.14,1.17-.3,2.5,.01,3.71,.44,1.7,1.72,2.81,3.6,3.12l.1,.02h.1c.13,.01,.27,.02,.39,.02,1.33,0,2.2-.44,2.76-.95,0,.14,0,.28,.01,.41v.11c0,1.6,0,3.12-.28,4.56v.06s-.02,.06-.02,.06c-.06,.49-.2,1.02-.34,1.59-.37,1.48-.79,3.15-.18,4.97l.02,.06,.02,.06c.7,1.68,2.32,2.76,4.13,2.76,2.13,0,3.82-1.41,4.22-3.51v-.03s.01-.03,.01-.03c.23-1.52,0-2.98-.19-4.27-.13-.87-.26-1.69-.25-2.46,.03-1.34,.23-3.64,.68-5.71,0-.04,.02-.09,.03-.13-.05,.57-.1,1.12-.15,1.59-.4,4.25-.76,7.94,.94,9.66,.8,1,2.03,1.59,3.33,1.59,1.4,0,2.66-.7,3.38-1.87l.05-.08,.04-.09c1.06-2.24,.72-4.58,.42-6.65-.09-.62-.17-1.2-.22-1.75-.11-2.9-.05-6.61,1.33-9.67,.58-1.12,1.49-2.12,2.44-3.18,.37-.41,.75-.83,1.12-1.27,1.17-1.26,2.42-2.53,3.64-3.76,4.62-4.66,9.39-9.49,11.66-16.06v-.02s.01-.02,.01-.02c.65-2.02,.93-4.14,.84-6.32,.13-3.36-.56-6.48-2.04-9.27-1.37-2.76-3.52-5.05-6.2-6.62-2.57-1.51-5.52-2.3-8.54-2.3"/><path class="cls-4" d="M62.14,40.19c.12-2.89-.42-5.77-1.84-8.43-3.78-7.62-13.58-10.15-20.79-5.8-.88,.47-1.66,1.07-2.4,1.73-1.19,1.05-2.27,2.24-3.21,3.52-.7,.96-1.36,2.7-1.91,3.14-.55-.44-1.21-2.18-1.91-3.14-.94-1.29-2.01-2.47-3.21-3.52-.74-.65-1.52-1.26-2.4-1.73-7.21-4.36-17.01-1.83-20.79,5.8-3.2,6-1.94,13.18,1.35,18.88,4.64,7.51,6.84,13.65,5.06,22.55-.89,5.85,6.47,5.27,4.61-1.35-.45-2.14-2.29-10.31,2.34-7.67,2.39,1.9,5.1,4.28,5.22,7.56,.2,2.42-1.62,6.39,1.96,6.99,3.5,.2,1.93-3.18,2.66-5.14,.04-.19,.57-.39,.71-.23,1.69,1.34,1.44,4.45,1.53,6.65,0,1.69,0,3.4-.32,5.07-.24,1.9-1.24,3.83-.6,5.74,.95,2.29,4.36,2.16,4.84-.39,.33-2.18-.5-4.32-.46-6.5,.06-2.6,.77-9.88,3.28-11.11,3.19-.66-1,13.17,1.43,15.32,.91,1.24,2.91,1.37,3.76-.01,1.1-2.32,.22-5.06,.03-7.51-.13-3.52,.03-7.34,1.52-10.58,.95-1.85,2.51-3.29,3.83-4.87,5.49-5.95,12.21-11.3,14.94-19.2,.6-1.87,.84-3.82,.75-5.76Z"/></g></g></g><g id="Artwork_20"><g class="cls-24"><g class="cls-35"><path class="cls-23" d="M141,44.93c-1.26-4.82-19.75-2.62-41.29,4.91-7.06,2.47-13.57,5.21-19.09,7.94-11.32,5.61-18.48,11.2-17.63,14.44,1.26,4.82,19.75,2.62,41.29-4.91,21.54-7.53,37.98-17.55,36.72-22.37m-37.66,17.81c-17.27,6.04-31.77,9.02-32.39,6.64-.62-2.37,12.87-9.19,30.14-15.23,17.27-6.04,31.77-9.01,32.39-6.64,.62,2.37-12.87,9.19-30.14,15.23"/><path class="cls-6" d="M141,44.93c-1.26-4.82-19.75-2.62-41.29,4.91-7.06,2.47-13.57,5.21-19.09,7.94-11.32,5.61-18.48,11.2-17.63,14.44,1.26,4.82,19.75,2.62,41.29-4.91,21.54-7.53,37.98-17.55,36.72-22.37Zm-37.66,17.81c-17.27,6.04-31.77,9.02-32.39,6.64-.62-2.37,12.87-9.19,30.14-15.23,17.27-6.04,31.77-9.01,32.39-6.64,.62,2.37-12.87,9.19-30.14,15.23Z"/><path class="cls-3" d="M133.65,42.38c4.23,0,6.9,.83,7.36,2.56,1.26,4.82-15.18,14.84-36.72,22.37-13.81,4.83-26.37,7.47-33.93,7.47-4.23,0-6.9-.83-7.36-2.56-.85-3.24,6.3-8.83,17.63-14.44,5.52-2.73,12.03-5.47,19.09-7.94,13.81-4.83,26.37-7.47,33.93-7.47m-60.13,27.83c4.98,0,16.59-2.83,29.83-7.46,17.27-6.04,30.77-12.86,30.14-15.23-.15-.55-1.05-.82-2.56-.82-4.98,0-16.59,2.83-29.83,7.46-17.27,6.04-30.77,12.86-30.14,15.23,.14,.55,1.05,.82,2.56,.82m60.13-30.76c-8.19,0-21.24,2.85-34.9,7.63-6.92,2.42-13.64,5.22-19.42,8.08-14,6.93-20.44,12.92-19.16,17.81,1.24,4.74,7.98,4.74,10.19,4.74,8.19,0,21.24-2.85,34.9-7.63,4.25-1.49,41.48-14.86,38.59-25.89-1.24-4.74-7.98-4.74-10.19-4.74m-54.61,27.16c4.68-2.5,12.36-5.95,23.03-9.68,9.93-3.47,17.99-5.62,23.35-6.63-4.68,2.5-12.36,5.95-23.03,9.68-9.93,3.47-17.99,5.62-23.34,6.63"/><path class="cls-28" d="M123.41,57.88c0,12.12-9.83,21.95-21.95,21.95s-21.95-9.83-21.95-21.95,9.83-21.95,21.95-21.95,21.95,9.83,21.95,21.95"/><path class="cls-6" d="M123.41,57.88c0,12.12-9.83,21.95-21.95,21.95s-21.95-9.83-21.95-21.95,9.83-21.95,21.95-21.95,21.95,9.83,21.95,21.95Z"/><path class="cls-6" d="M123.41,57.88c0,12.12-9.83,21.95-21.95,21.95s-21.95-9.83-21.95-21.95,9.83-21.95,21.95-21.95,21.95,9.83,21.95,21.95Z"/><path class="cls-3" d="M101.47,35.93c12.12,0,21.95,9.83,21.95,21.95s-9.83,21.95-21.95,21.95-21.95-9.83-21.95-21.95,9.83-21.95,21.95-21.95m0-2.93c-13.72,0-24.88,11.16-24.88,24.88s11.16,24.88,24.88,24.88,24.88-11.16,24.88-24.88-11.16-24.88-24.88-24.88"/><path class="cls-28" d="M123.41,57.87c0,12.12-9.83,21.95-21.95,21.95s-21.95-9.83-21.95-21.95,9.83-21.95,21.95-21.95,21.95,9.83,21.95,21.95"/><path class="cls-6" d="M123.41,57.87c0,12.12-9.83,21.95-21.95,21.95s-21.95-9.83-21.95-21.95,9.83-21.95,21.95-21.95,21.95,9.83,21.95,21.95Z"/><path class="cls-6" d="M123.41,57.87c0,12.12-9.83,21.95-21.95,21.95s-21.95-9.83-21.95-21.95,9.83-21.95,21.95-21.95,21.95,9.83,21.95,21.95Z"/><path class="cls-23" d="M140.42,44.91c-1.26-4.82-19.75-2.62-41.29,4.91-7.06,2.47-13.57,5.21-19.09,7.94-11.32,5.61-18.48,11.2-17.63,14.44,1.26,4.82,19.75,2.62,41.29-4.91,21.54-7.53,37.98-17.55,36.72-22.37m-37.66,17.81c-17.27,6.04-31.77,9.02-32.39,6.64-.62-2.37,12.87-9.19,30.14-15.23,17.27-6.04,31.77-9.01,32.39-6.64,.62,2.37-12.87,9.19-30.14,15.23"/><path class="cls-6" d="M140.42,44.91c-1.26-4.82-19.75-2.62-41.29,4.91-7.06,2.47-13.57,5.21-19.09,7.94-11.32,5.61-18.48,11.2-17.63,14.44,1.26,4.82,19.75,2.62,41.29-4.91,21.54-7.53,37.98-17.55,36.72-22.37Zm-37.66,17.81c-17.27,6.04-31.77,9.02-32.39,6.64-.62-2.37,12.87-9.19,30.14-15.23,17.27-6.04,31.77-9.01,32.39-6.64,.62,2.37-12.87,9.19-30.14,15.23Z"/><path class="cls-28" d="M81.09,65.99c-4.46-11.27,1.06-24.02,12.34-28.48,11.27-4.46,24.02,1.07,28.48,12.34"/><path class="cls-6" d="M81.09,65.99c-4.46-11.27,1.06-24.02,12.34-28.48,11.27-4.46,24.02,1.07,28.48,12.34"/></g></g></g><g id="Artwork_23"><g class="cls-31"><g class="cls-40"><path class="cls-13" d="M170.75,57.55c2.92-2.74,7.26-7.6,9.97-14.82,5.59-14.91-.01-28.39-1.57-31.77-.03-.06-.05-.13,.01-.11,1.75,.41,17.77,5.21,14.8,44.27"/><path class="cls-5" d="M170.75,57.55c2.92-2.74,7.26-7.6,9.97-14.82,5.59-14.91-.01-28.39-1.57-31.77-.03-.06-.05-.13,.01-.11,1.75,.41,17.77,5.21,14.8,44.27"/><path class="cls-19" d="M165.26,80.51c-1.58,0-2.98-.16-4.15-.47-2.22-.58-5.44-2.21-8.19-6.61-2.89-4.63-4.32-11.77-.99-17.28,.57-.95,.82-1.37,.93-1.57,.11-.19,.21-.37,.42-.5,.01-.01,.02-.03,.04-.04,1.39-1.52,3.36-2.84,5.15-3.46,1.59-.55,2.91-.82,4.04-.82,.68,0,1.19,.1,1.59,.17,.18,.03,.33,.06,.47,.08,2.59,.26,4.87,2.27,6.96,6.12,.48-.06,.96-.09,1.43-.09,1.68,0,3.2,.38,4.52,1.14,5.12,2.95,6.05,10.79,3.47,15.83-2.81,5.5-8.91,6.71-10.19,6.91-.73,.16-1.47,.28-2.22,.37-.42,.05-1.71,.21-3.29,.21"/><path class="cls-3" d="M162.51,50.76c.9,0,1.44,.19,1.96,.24,1.83,.19,4.12,1.54,6.51,6.22,.5-.09,1.19-.19,1.98-.19,1.21,0,2.65,.22,4.02,1.01,4.42,2.55,5.59,9.61,3.08,14.51-2.7,5.27-8.73,6.27-9.49,6.39-.52,.11-1.26,.26-2.15,.37-.4,.05-1.65,.2-3.17,.2-1.23,0-2.63-.1-3.89-.43-4.48-1.18-7.01-5.24-7.6-6.18-2.76-4.42-4.04-11.18-.98-16.23,1.52-2.51,.76-1.4,1.27-1.95,1.29-1.41,3.11-2.63,4.74-3.19,1.73-.6,2.88-.76,3.72-.76m0-1.99c-1.24,0-2.67,.29-4.37,.87-1.95,.67-4.01,2.05-5.53,3.69-.33,.25-.5,.55-.62,.76-.11,.2-.35,.61-.92,1.55-3.55,5.87-2.06,13.43,1,18.32,2.92,4.68,6.39,6.42,8.78,7.05,1.25,.33,2.73,.5,4.4,.5s2.97-.16,3.41-.22c.76-.09,1.53-.22,2.28-.38,1.44-.23,7.88-1.56,10.9-7.44,1.42-2.78,1.87-6.22,1.24-9.43-.68-3.48-2.5-6.22-5.1-7.72-1.47-.84-3.16-1.27-5.02-1.27-.29,0-.58,.01-.88,.03-2.18-3.79-4.62-5.77-7.41-6.06-.09,0-.23-.03-.38-.06-.42-.08-1-.19-1.78-.19"/><path class="cls-5" d="M170.99,57.23c-2.4-4.68-4.69-6.04-6.51-6.22-1-.1-2.09-.72-5.67,.52-1.63,.56-3.45,1.78-4.74,3.19-.51,.56,.25-.55-1.27,1.95-3.06,5.06-1.77,11.82,.98,16.23,.58,.93,3.12,5,7.6,6.18,2.83,.75,6.34,.32,7.06,.23,.9-.11,1.64-.25,2.15-.37,.75-.11,6.79-1.12,9.49-6.39,2.51-4.9,1.34-11.97-3.08-14.51-2.26-1.3-4.73-1.05-6-.82Z"/><path class="cls-7" d="M165.9,76.64s11.4,0,12.82-9.69"/><path class="cls-19" d="M193.31,81.34c-2.56,0-5.21-.81-7.87-2.39-4.72-2.82-9.3-8.57-8.89-15.09,.07-1.13,.09-1.62,.1-1.85,0-.23,.02-.43,.14-.64,0-.02,0-.03,.02-.06,.53-2.02,1.67-4.14,2.98-5.53,2.34-2.5,3.77-2.94,4.72-3.23,.17-.05,.33-.1,.45-.15,.68-.27,1.41-.41,2.19-.41,1.99,0,4.24,.87,6.86,2.66,1.74-1.21,3.61-1.85,5.45-1.85,.11,0,.23,0,.34,0,5.92,.25,10.39,6.87,10.43,12.62,.04,6.27-4.81,10.21-5.86,11-.57,.48-1.18,.95-1.8,1.38-2.38,1.65-4.78,2.81-6.74,3.26-.8,.18-1.64,.28-2.49,.28h0Z"/><path class="cls-3" d="M187.13,52.99c1.64,0,3.86,.72,6.87,2.89,.99-.78,2.95-2.08,5.43-2.08,.1,0,.2,0,.3,0,5.12,.22,9.44,6.04,9.47,11.63,.04,6.01-4.87,9.75-5.49,10.21-.41,.34-1,.82-1.75,1.34-.6,.42-3.53,2.45-6.4,3.11-.77,.18-1.53,.25-2.27,.25-3.59,0-6.58-1.78-7.36-2.25-4.5-2.69-8.79-8.17-8.41-14.17,.19-2.97,.03-1.62,.23-2.36,.5-1.88,1.55-3.83,2.74-5.1,2.62-2.79,3.87-2.75,4.81-3.13,.51-.21,1.11-.34,1.81-.34m0-1.99h0c-.9,0-1.76,.16-2.56,.48-.09,.03-.22,.07-.37,.12-1.33,.41-2.83,1.01-5.15,3.5-1.42,1.52-2.62,3.73-3.2,5.91-.17,.37-.19,.71-.2,.96,0,.23-.03,.71-.1,1.83-.44,6.93,4.39,13.03,9.38,16.01,2.82,1.68,5.64,2.53,8.39,2.53,.92,0,1.84-.1,2.71-.3,2.68-.61,5.33-2.19,7.09-3.41,.64-.44,1.26-.92,1.85-1.42,1.18-.88,6.29-5.09,6.24-11.78-.02-3.16-1.21-6.46-3.26-9.06-2.22-2.81-5.1-4.43-8.12-4.56-.13,0-.26,0-.38,0-1.84,0-3.7,.57-5.44,1.65-2.56-1.65-4.81-2.46-6.86-2.46"/><path class="cls-5" d="M194,55.88c-4.31-3.1-6.97-3.24-8.69-2.55-.94,.38-2.2,.34-4.81,3.13-1.19,1.27-2.25,3.22-2.74,5.1-.2,.74-.04-.61-.22,2.36-.38,5.99,3.9,11.48,8.41,14.17,.95,.57,5.09,3.04,9.63,2,2.86-.65,5.8-2.69,6.4-3.11,.75-.52,1.34-1,1.75-1.34,.62-.45,5.53-4.2,5.49-10.21-.04-5.59-4.35-11.42-9.47-11.63-2.61-.11-4.7,1.27-5.73,2.08Z"/><path class="cls-7" d="M198.48,75.75s10.15-5.35,6.93-14.75"/><path class="cls-23" d="M179.15,10.96c-.49,2.58-2.39,3.43-2.39,3.43-22.13-3.96-26.91,16.44-26.91,16.44,0,0,23.39,10.83,26.9-16.16"/><path class="cls-7" d="M179.15,10.96c-.49,2.58-2.39,3.43-2.39,3.43-22.13-3.96-26.91,16.44-26.91,16.44,0,0,23.39,10.83,26.9-16.16"/><path class="cls-12" d="M179.15,10.96c-.49,2.58-2.39,3.43-2.39,3.43-22.13-3.96-26.91,16.44-26.91,16.44,0,0,23.39,10.83,26.9-16.16"/><path class="cls-23" d="M179.15,10.96c-.49,2.58-2.39,3.43-2.39,3.43-22.13-3.96-26.91,16.44-26.91,16.44,0,0,23.39,10.83,26.9-16.16"/><path class="cls-7" d="M179.15,10.96c-.49,2.58-2.39,3.43-2.39,3.43-22.13-3.96-26.91,16.44-26.91,16.44,0,0,23.39,10.83,26.9-16.16"/><path class="cls-7" d="M156.2,27.57s11.12-.3,20.56-13.18"/><path class="cls-5" d="M171.03,57.26c2.92-2.74,6.98-7.31,9.69-14.53,5.59-14.91-.01-28.39-1.57-31.77-.03-.06-.05-.13,.01-.11,1.75,.41,17.77,5.21,14.8,44.27"/></g></g></g><g id="Artwork_24"><g class="cls-1"><g class="cls-29"><g class="cls-18"><path class="cls-19" d="M278.6,104.47c-.21,0-.42-.03-.63-.08l-.94-.24c-1.38-.34-2.22-1.75-1.88-3.13l12.62-50.67c-5.07-4.89-11.21-19-11.85-22.37-.92-4.84-1.42-10.93,2.89-15.07,.96-.92,2.15-1.72,3.45-2.31,1.75-1.03,3.67-1.56,5.73-1.56,.97,0,1.98,.12,3.01,.35,4.55,1.02,7.76,4.26,9.54,9.62,.09,.26,.18,.59,.27,.99,2.08-1.53,5.16-3.41,8.42-4.11,.72-.25,1.56-.38,2.49-.38,4.7,0,11.67,3.42,11.67,10.77,0,4.26-.76,6.73-3.12,10.17-.87,1.27-4.09,5.08-6.87,7-10.29,7.1-17.13,9.4-20.11,10.13l-12.18,48.9c-.29,1.15-1.32,1.96-2.5,1.96h0Z"/><path class="cls-3" d="M287.98,10.13c.85,0,1.77,.1,2.78,.32,4.18,.94,7.11,3.96,8.76,8.91,.2,.61,.41,1.57,.59,2.54,1.95-1.59,5.57-4.17,9.4-4.96,.63-.23,1.38-.34,2.2-.34,4.32,0,10.6,3.14,10.6,9.71,0,3.99-.66,6.26-2.93,9.56-.73,1.06-3.86,4.84-6.6,6.73-11.08,7.64-18.06,9.63-20.39,10.12l-12.34,49.54c-.17,.69-.79,1.15-1.47,1.15-.12,0-.24-.01-.37-.05l-.95-.24c-.81-.2-1.3-1.02-1.1-1.83l12.77-51.28c-4.82-4.11-11.35-18.82-11.99-22.21-.99-5.25-1.11-10.56,2.58-14.1,.85-.82,1.95-1.57,3.21-2.13,1.25-.75,2.97-1.44,5.23-1.44m0-2.13h0c-2.23,0-4.32,.56-6.22,1.68-1.39,.64-2.67,1.5-3.7,2.49-4.73,4.54-4.09,11.33-3.2,16.03,.63,3.35,6.6,17.08,11.72,22.49l-12.48,50.09c-.49,1.95,.71,3.94,2.66,4.42l.95,.24c.29,.07,.59,.11,.88,.11,1.68,0,3.13-1.14,3.54-2.77l12.03-48.29c3.33-.91,10.08-3.4,19.84-10.13,3.06-2.11,6.35-6.13,7.14-7.27,2.47-3.6,3.31-6.31,3.31-10.77,0-8.08-7.6-11.84-12.74-11.84-1.02,0-1.95,.14-2.78,.41-2.77,.6-5.39,1.97-7.53,3.41-1.92-5.43-5.43-8.85-10.18-9.92-1.1-.25-2.2-.37-3.24-.37"/><path class="cls-41" d="M291.54,52.87s7.46-.75,21.25-10.27c2.73-1.88,5.86-5.66,6.6-6.73,2.27-3.3,2.93-5.57,2.93-9.56,0-8.1-9.53-10.98-13.19-9.21"/><path class="cls-15" d="M291.54,52.87s7.46-.75,21.25-10.27c2.73-1.88,5.86-5.66,6.6-6.73,2.27-3.3,2.93-5.57,2.93-9.56,0-8.1-9.53-10.98-13.19-9.21"/><path class="cls-3" d="M277.28,103.13l.95,.24c.81,.2,1.63-.29,1.83-1.1l16.9-67.87c.2-.81-.29-1.63-1.1-1.83l-.95-.24c-.81-.2-1.63,.29-1.83,1.1l-16.9,67.87c-.2,.81,.29,1.63,1.1,1.83"/><path class="cls-10" d="M277.28,103.13l.95,.24c.81,.2,1.63-.29,1.83-1.1l16.9-67.87c.2-.81-.29-1.63-1.1-1.83l-.95-.24c-.81-.2-1.63,.29-1.83,1.1l-16.9,67.87c-.2,.81,.29,1.63,1.1,1.83Z"/><path class="cls-10" d="M279.8,102.83c-.12,.46-.87,.55-2.02,.26-1.16-.29-1.66-.82-1.55-1.28,.12-.46,.9-.67,2.05-.38,1.16,.29,1.63,.93,1.52,1.4Z"/><path class="cls-41" d="M281.04,12.8c1.46-1.21,4.51-3.51,9.72-2.34,4.18,.94,7.11,3.96,8.76,8.91,.33,1,.67,2.94,.91,4.32"/><path class="cls-15" d="M281.04,12.8c1.46-1.21,4.51-3.51,9.72-2.34,4.18,.94,7.11,3.96,8.76,8.91,.33,1,.67,2.94,.91,4.32"/><path class="cls-19" d="M298.62,23.22s7.23-7.05,13.93-6.48c2.23,.19,4.78,.99,6.24,3.66,3.41,6.25,.8,11.96-2.02,15.69-1.73,2.28-3.88,4.2-6.29,5.74-4.65,2.97-15.84,9.78-19.57,9.23-4.77-.7-13.21-19.38-13.94-23.26-.99-5.25-1.11-10.56,2.58-14.1,3.3-3.17,10.27-5.29,15.77,.35,0,0,2.57,2.47,3.3,9.16"/><path class="cls-10" d="M298.62,23.22s7.23-7.05,13.93-6.48c2.23,.19,4.78,.99,6.24,3.66,3.41,6.25,.8,11.96-2.02,15.69-1.73,2.28-3.88,4.2-6.29,5.74-4.65,2.97-15.84,9.78-19.57,9.23-4.77-.7-13.21-19.38-13.94-23.26-.99-5.25-1.11-10.56,2.58-14.1,3.3-3.17,10.27-5.29,15.77,.35,0,0,2.57,2.47,3.3,9.16Z"/><g class="cls-30"><g class="cls-36"><path class="cls-19" d="M297,33.84c-.13-.25-.43-.73-1.02-1.08-.22-.13-.66-.39-1.29-.39-.63,0-1.09,.28-1.27,.41l-4.58,17.12s1.57,3.01,4.12,.94l4.04-17.01Z"/><g class="cls-27"><g class="cls-21"><path class="cls-15" d="M297,33.84c-.13-.25-.43-.73-1.02-1.08-.22-.13-.66-.39-1.29-.39-.63,0-1.09,.28-1.27,.41l-4.58,17.12s1.57,3.01,4.12,.94l4.04-17.01Z"/></g></g></g></g><g class="cls-34"><g class="cls-2"><rect x="286.58" y="26.49" width="5.34" height=".19" transform="translate(32.23 161.91) rotate(-33.02)"/><rect class="cls-14" x="286.58" y="26.49" width="5.34" height=".19" transform="translate(32.23 161.91) rotate(-33.02)"/><rect x="296.9" y="36.24" width="11.35" height=".18" transform="translate(29.02 170.63) rotate(-33)"/><rect class="cls-14" x="296.9" y="36.24" width="11.35" height=".18" transform="translate(29.02 170.63) rotate(-33)"/><rect x="286.21" y="31.62" width="18.1" height=".4" transform="translate(30.43 166.2) rotate(-33.06)"/><rect class="cls-14" x="286.21" y="31.62" width="18.1" height=".4" transform="translate(30.43 166.2) rotate(-33.06)"/><rect x="286.58" y="26.49" width="5.34" height=".19" transform="translate(32.23 161.91) rotate(-33.02)"/><rect x="296.9" y="36.24" width="11.35" height=".18" transform="translate(29.02 170.63) rotate(-33)"/><rect x="286.21" y="31.62" width="18.1" height=".4" transform="translate(30.43 166.2) rotate(-33.06)"/><rect class="cls-16" x="286.58" y="26.49" width="5.34" height=".19" transform="translate(32.23 161.91) rotate(-33.02)"/><rect class="cls-16" x="296.9" y="36.24" width="11.35" height=".18" transform="translate(29.02 170.63) rotate(-33)"/><rect class="cls-16" x="286.21" y="31.62" width="18.1" height=".4" transform="translate(30.43 166.2) rotate(-33.06)"/></g></g><g class="cls-27"><g class="cls-37"><path class="cls-15" d="M287.72,48.79s2.13,3.27,6.05,1.85"/></g></g></g></g></g></g></g></g></svg>